<svg width="506" height="356" viewBox="0 0 506 356" fill="none" xmlns="http://www.w3.org/2000/svg">
<g clip-path="url(#clip0)">
<path d="M68.0486 282.948H85.3701L128.055 266.245C128.055 266.245 158.368 253.873 155.893 277.381C153.419 300.888 149.088 332.438 149.088 332.438C149.088 332.438 135.479 326.252 128.055 328.108C120.632 329.964 125.581 290.372 125.581 290.372C125.581 290.372 64.9555 319.447 59.3879 315.735C53.8203 312.024 52.583 286.041 52.583 286.041L68.0486 282.948Z" fill="#2F2E41"/>
<path opacity="0.1" d="M68.0486 282.948H85.3701L128.055 266.245C128.055 266.245 158.368 253.873 155.893 277.381C153.419 300.888 149.088 332.438 149.088 332.438C149.088 332.438 135.479 326.252 128.055 328.108C120.632 329.964 125.581 290.372 125.581 290.372C125.581 290.372 64.9555 319.447 59.3879 315.735C53.8203 312.024 52.583 286.041 52.583 286.041L68.0486 282.948Z" fill="black"/>
<path d="M95.339 228.704L116.302 258.822L165.173 299.651C165.173 299.651 210.332 310.168 204.146 317.591C197.96 325.015 160.224 310.168 160.224 310.168C160.224 310.168 103.929 269.339 102.073 266.245C100.217 263.152 79.8027 234.077 79.8027 234.077L95.339 228.704Z" fill="#A0616A"/>
<path opacity="0.1" d="M95.339 228.704L116.302 258.822L165.173 299.651C165.173 299.651 210.332 310.168 204.146 317.591C197.96 325.015 160.224 310.168 160.224 310.168C160.224 310.168 103.929 269.339 102.073 266.245C100.217 263.152 79.8027 234.077 79.8027 234.077L95.339 228.704Z" fill="black"/>
<path d="M82.8956 204.382L96.5053 230.983C96.5053 230.983 93.4122 243.974 88.4632 245.212C83.5142 246.449 62.481 229.127 62.481 229.127L82.8956 204.382Z" fill="#D0CDE1"/>
<path opacity="0.9" d="M82.8956 204.382L96.5053 230.983C96.5053 230.983 93.4122 243.974 88.4632 245.212C83.5142 246.449 62.481 229.127 62.481 229.127L82.8956 204.382Z" fill="#97CFED"/>
<path d="M248.929 269.176L252.949 285.759C252.994 285.944 252.987 286.137 252.929 286.319L234.692 343.308C234.62 343.533 234.472 343.728 234.274 343.858C234.076 343.988 233.84 344.046 233.604 344.023C233.368 344 233.147 343.896 232.979 343.73C232.81 343.564 232.703 343.344 232.676 343.109L230.154 320.908C230.137 320.761 230.152 320.612 230.198 320.47L246.937 269.099C247.007 268.884 247.145 268.699 247.33 268.57C247.515 268.441 247.737 268.376 247.962 268.385C248.187 268.393 248.403 268.475 248.578 268.618C248.752 268.761 248.875 268.956 248.929 269.176Z" fill="#2F2E41"/>
<path d="M247.45 270.575L251.161 284.804L235.077 336.768L231.366 320.684L247.45 270.575Z" fill="#F2F2F2"/>
<path d="M166.41 347.904C167.029 349.76 230.747 347.285 231.366 346.667C231.905 345.892 232.361 345.063 232.727 344.192C233.308 342.955 233.84 341.718 233.84 341.718L231.366 321.687L168.266 319.447C168.266 319.447 166.688 336.422 166.367 344.192C166.286 346.153 166.286 347.533 166.41 347.904Z" fill="#2F2E41"/>
<path opacity="0.1" d="M223.324 324.396L224.561 341.718H196.723V324.396H223.324Z" fill="black"/>
<path opacity="0.1" d="M187.444 329.963L187.61 329.93L186.825 337.387H171.359V329.963H187.444Z" fill="black"/>
<path opacity="0.1" d="M166.41 347.903C167.029 349.759 230.747 347.285 231.366 346.666C231.905 345.891 232.361 345.062 232.727 344.191H166.367C166.286 346.152 166.286 347.532 166.41 347.903Z" fill="black"/>
<path d="M92.175 195.722C107.55 195.722 120.013 183.258 120.013 167.884C120.013 152.509 107.55 140.045 92.175 140.045C76.8005 140.045 64.3369 152.509 64.3369 167.884C64.3369 183.258 76.8005 195.722 92.175 195.722Z" fill="#A0616A"/>
<path d="M90.3191 192.629C90.3191 192.629 81.0398 208.713 79.1839 217.374C77.328 226.034 51.3458 200.052 51.3458 200.052L47.9434 191.082C47.9434 191.082 72.379 179.638 70.5231 170.358C68.6673 161.079 90.3191 192.629 90.3191 192.629Z" fill="#A0616A"/>
<path d="M95.2682 240.881L120.632 274.287L181.257 319.447C181.257 319.447 225.179 328.726 215.281 335.531C205.383 342.336 176.927 329.345 176.927 329.345C176.927 329.345 115.683 296.558 102.692 282.948C89.7006 269.338 65.5742 246.449 65.5742 246.449L95.2682 240.881Z" fill="#A0616A"/>
<path d="M61.2441 292.846L68.6676 304.6L112.972 290.662C122.693 287.603 133.352 288.729 141.975 294.161C149.707 299.032 154.656 306.765 143.521 318.21C121.251 341.099 106.404 328.726 106.404 328.726C106.404 328.726 31.5501 363.988 19.1776 346.666C6.80513 329.345 6.18652 320.684 6.18652 320.684C6.18652 320.684 53.8206 290.99 61.2441 292.846Z" fill="#2F2E41"/>
<path d="M154.038 333.676C154.038 333.676 173.834 346.667 150.326 352.853C126.818 359.039 109.497 350.378 109.497 350.378C109.497 350.378 89.082 350.378 89.082 339.862C89.082 329.345 95.8869 328.108 95.8869 328.108L116.92 331.201C116.92 331.201 142.284 324.396 154.038 333.676Z" fill="#D0CDE1"/>
<path d="M115.012 160.881C116.907 161.726 118.786 162.726 120.846 162.971C122.905 163.216 125.251 162.497 126.226 160.666C126.752 159.677 126.813 158.513 126.837 157.393C126.912 153.996 126.666 150.324 124.513 147.695C123.143 146.022 121.143 144.967 119.725 143.334C118.709 142.165 118.033 140.747 117.305 139.38C114.547 134.2 110.463 129.221 104.788 127.728C102.418 127.105 99.9325 127.135 97.4822 127.17L83.1905 127.371C80.8778 127.404 78.5293 127.442 76.3153 128.111C71.7153 129.502 68.3659 133.37 65.2984 137.07C63.0034 139.838 60.7024 142.634 58.98 145.79C56.5106 150.395 55.262 155.557 55.3531 160.782C55.334 162.122 55.507 163.458 55.8669 164.749C56.2879 165.933 49.9261 187.676 50.5426 188.771C53.2228 194.035 61.6976 180.013 58.6792 185.091C63.9225 182.949 69.1103 180.141 72.569 175.656C74.1162 173.65 75.3297 171.301 77.3917 169.829C79.4537 168.356 82.8136 168.229 84.1366 170.389C84.5914 171.264 84.8256 172.236 84.8188 173.221C84.9154 174.843 84.9127 176.527 85.6004 178C86.2881 179.472 87.9263 180.66 89.4903 180.219C92.1837 179.46 91.9258 175.326 94.0003 173.449C95.5758 172.023 98.0065 172.295 100.031 171.648C102.389 170.894 104.158 168.851 105.166 166.589C105.933 164.87 105.922 160.372 107.372 159.441C109.191 158.274 113.326 160.13 115.012 160.881Z" fill="#2F2E41"/>
<path d="M45.7335 188.148C46.9859 187.814 48.3044 187.817 49.555 188.158C53.5261 189.224 62.4282 192.046 64.3369 196.341C66.8114 201.908 75.4722 210.569 75.4722 210.569C75.4722 210.569 87.226 222.323 84.7515 230.365C82.277 238.407 72.9977 247.687 72.9977 247.687C72.9977 247.687 75.4722 286.041 63.0997 295.939C50.7272 305.837 45.7782 299.032 45.7782 308.312C45.7782 317.591 7.4235 346.667 0 328.726C0 328.726 3.71175 295.321 2.4745 283.567C1.25509 271.982 3.04024 199.706 45.7335 188.148Z" fill="#97CFED"/>
<path d="M65.5739 203.764C65.5739 203.764 103.31 231.602 96.5052 243.356C96.5052 243.356 73.6161 254.491 68.6671 253.873C63.7181 253.254 44.5407 231.602 39.5917 229.746C34.6427 227.891 32.1682 194.485 65.5739 203.764Z" fill="#97CFED"/>
<path d="M242.109 136.243C258.988 136.243 272.67 122.56 272.67 105.682C272.67 88.804 258.988 75.1216 242.109 75.1216C225.231 75.1216 211.549 88.804 211.549 105.682C211.549 122.56 225.231 136.243 242.109 136.243Z" fill="#F2F2F2"/>
<path d="M486.586 71.9538H315.33V36.1182H486.586V71.9538ZM316.084 71.1993H485.832V36.8726H316.084V71.1993Z" fill="#3F3D56"/>
<path d="M484.803 37.1289H314.301V72.2101H484.803V37.1289Z" fill="#97CFED"/>
<path d="M195.853 9.80747C197.312 9.80747 198.494 8.62525 198.494 7.16692C198.494 5.70858 197.312 4.52637 195.853 4.52637C194.395 4.52637 193.213 5.70858 193.213 7.16692C193.213 8.62525 194.395 9.80747 195.853 9.80747Z" fill="#6C63FF"/>
<path d="M204.907 9.80747C206.365 9.80747 207.547 8.62525 207.547 7.16692C207.547 5.70858 206.365 4.52637 204.907 4.52637C203.448 4.52637 202.266 5.70858 202.266 7.16692C202.266 8.62525 203.448 9.80747 204.907 9.80747Z" fill="#6C63FF"/>
<path d="M213.96 9.80747C215.418 9.80747 216.6 8.62525 216.6 7.16692C216.6 5.70858 215.418 4.52637 213.96 4.52637C212.502 4.52637 211.319 5.70858 211.319 7.16692C211.319 8.62525 212.502 9.80747 213.96 9.80747Z" fill="#6C63FF"/>
<path d="M505.926 206.715H188.31V0H505.926V206.715ZM189.064 205.96H505.172V0.754435H189.064V205.96Z" fill="#3F3D56"/>
<path d="M505.549 11.4424H188.687V12.1968H505.549V11.4424Z" fill="#3F3D56"/>
<path d="M196.608 9.05305C196.011 9.05305 195.428 8.87607 194.932 8.54447C194.435 8.21288 194.048 7.74157 193.82 7.19015C193.592 6.63873 193.532 6.03197 193.648 5.44658C193.765 4.8612 194.052 4.32349 194.474 3.90145C194.896 3.47942 195.434 3.192 196.019 3.07556C196.605 2.95912 197.211 3.01889 197.763 3.24729C198.314 3.4757 198.786 3.86249 199.117 4.35875C199.449 4.85502 199.626 5.43846 199.626 6.03531C199.625 6.83538 199.307 7.60242 198.741 8.16815C198.175 8.73389 197.408 9.05212 196.608 9.05305ZM196.608 3.77201C196.16 3.77201 195.723 3.90475 195.351 4.15345C194.978 4.40214 194.688 4.75563 194.517 5.16919C194.346 5.58275 194.301 6.03783 194.388 6.47686C194.476 6.9159 194.691 7.31918 195.008 7.63571C195.324 7.95224 195.727 8.1678 196.167 8.25513C196.606 8.34246 197.061 8.29764 197.474 8.12633C197.888 7.95503 198.241 7.66494 198.49 7.29274C198.739 6.92054 198.871 6.48295 198.871 6.03531C198.871 5.43526 198.632 4.85999 198.208 4.43569C197.783 4.01139 197.208 3.77271 196.608 3.77201Z" fill="#3F3D56"/>
<path d="M205.661 9.05305C205.064 9.05305 204.481 8.87607 203.985 8.54447C203.488 8.21288 203.102 7.74157 202.873 7.19015C202.645 6.63873 202.585 6.03197 202.702 5.44658C202.818 4.8612 203.105 4.32349 203.527 3.90145C203.949 3.47942 204.487 3.192 205.073 3.07556C205.658 2.95912 206.265 3.01889 206.816 3.24729C207.368 3.4757 207.839 3.86249 208.17 4.35875C208.502 4.85502 208.679 5.43846 208.679 6.03531C208.678 6.83538 208.36 7.60242 207.794 8.16815C207.228 8.73389 206.461 9.05212 205.661 9.05305ZM205.661 3.77201C205.214 3.77201 204.776 3.90475 204.404 4.15345C204.032 4.40214 203.742 4.75563 203.57 5.16919C203.399 5.58275 203.354 6.03783 203.441 6.47686C203.529 6.9159 203.744 7.31918 204.061 7.63571C204.377 7.95224 204.781 8.1678 205.22 8.25513C205.659 8.34246 206.114 8.29764 206.527 8.12633C206.941 7.95503 207.294 7.66494 207.543 7.29274C207.792 6.92054 207.925 6.48295 207.925 6.03531C207.924 5.43526 207.685 4.85999 207.261 4.43569C206.837 4.01139 206.261 3.77271 205.661 3.77201Z" fill="#3F3D56"/>
<path d="M214.715 9.05305C214.118 9.05305 213.534 8.87606 213.038 8.54447C212.542 8.21288 212.155 7.74157 211.927 7.19016C211.698 6.63874 211.638 6.03197 211.755 5.44659C211.871 4.8612 212.159 4.32349 212.581 3.90145C213.003 3.47942 213.54 3.19201 214.126 3.07557C214.711 2.95912 215.318 3.01888 215.869 3.24729C216.421 3.47569 216.892 3.86248 217.224 4.35874C217.555 4.85501 217.732 5.43846 217.732 6.03531C217.731 6.83538 217.413 7.60241 216.847 8.16815C216.282 8.73388 215.515 9.05212 214.715 9.05305ZM214.715 3.77201C214.267 3.77201 213.829 3.90475 213.457 4.15345C213.085 4.40214 212.795 4.75562 212.623 5.16918C212.452 5.58275 212.407 6.03782 212.495 6.47686C212.582 6.9159 212.798 7.31918 213.114 7.63571C213.431 7.95224 213.834 8.1678 214.273 8.25513C214.712 8.34246 215.167 8.29764 215.581 8.12633C215.994 7.95503 216.348 7.66493 216.596 7.29274C216.845 6.92054 216.978 6.48295 216.978 6.03531C216.977 5.43526 216.738 4.85999 216.314 4.43569C215.89 4.01139 215.315 3.77271 214.715 3.77201Z" fill="#3F3D56"/>
<path d="M288.546 11.8198H287.792V206.63H288.546V11.8198Z" fill="#3F3D56"/>
<path d="M379.268 107.601H323.817V115.145H379.268V107.601Z" fill="#F2F2F2"/>
<path d="M466.405 107.601H410.954V115.145H466.405V107.601Z" fill="#F2F2F2"/>
<path d="M382.663 111.75H326.458V103.451H382.663V111.75ZM327.212 110.996H381.908V104.206H327.212V110.996Z" fill="#3F3D56"/>
<path d="M379.268 166.07H323.817V173.614H379.268V166.07Z" fill="#F2F2F2"/>
<path d="M382.663 170.219H326.458V161.92H382.663V170.219ZM327.212 169.465H381.908V162.675H327.212V169.465Z" fill="#3F3D56"/>
<path d="M466.594 136.081H324.006V143.625H466.594V136.081Z" fill="#F2F2F2"/>
<path d="M469.989 140.984H326.646V132.686H469.989V140.984ZM327.401 140.23H469.234V133.44H327.401V140.23Z" fill="#3F3D56"/>
<path d="M469.8 111.75H413.595V103.451H469.8V111.75ZM414.349 110.996H469.046V104.206H414.349V110.996Z" fill="#3F3D56"/>
<path d="M239.343 134.212C233.206 134.212 227.207 132.392 222.104 128.982C217.001 125.572 213.023 120.726 210.675 115.056C208.326 109.386 207.711 103.146 208.909 97.1269C210.106 91.1075 213.061 85.5784 217.401 81.2386C221.741 76.8989 227.27 73.9435 233.289 72.7462C239.309 71.5488 245.548 72.1633 251.218 74.512C256.888 76.8606 261.735 80.8379 265.144 85.9409C268.554 91.0439 270.374 97.0434 270.374 103.181C270.365 111.408 267.093 119.295 261.275 125.113C255.458 130.93 247.57 134.202 239.343 134.212ZM239.343 73.0902C233.392 73.0902 227.574 74.855 222.626 78.1614C217.678 81.4678 213.821 86.1673 211.543 91.6656C209.266 97.1639 208.67 103.214 209.831 109.051C210.992 114.888 213.858 120.25 218.066 124.458C222.274 128.666 227.636 131.532 233.473 132.693C239.31 133.854 245.36 133.258 250.858 130.981C256.357 128.703 261.056 124.846 264.363 119.898C267.669 114.95 269.434 109.132 269.434 103.181C269.425 95.203 266.252 87.5546 260.61 81.9135C254.969 76.2724 247.321 73.0993 239.343 73.0902Z" fill="#3F3D56"/>
</g>
<defs>
<clipPath id="clip0">
<rect width="505.926" height="355.081" fill="white"/>
</clipPath>
</defs>
</svg>
