<svg width="452" height="283" viewBox="0 0 452 283" fill="none" xmlns="http://www.w3.org/2000/svg">
<path d="M135.5 274C210.335 274 271 212.663 271 137C271 61.337 210.335 0 135.5 0C60.6654 0 0 61.337 0 137C0 212.663 60.6654 274 135.5 274Z" fill="#FBBEBE"/>
<path d="M235.5 283C355.07 283 452 277.851 452 271.5C452 265.149 355.07 260 235.5 260C115.93 260 19 265.149 19 271.5C19 277.851 115.93 283 235.5 283Z" fill="#3F3D56"/>
<path opacity="0.2" d="M235 277C342.143 277 429 272.747 429 267.5C429 262.253 342.143 258 235 258C127.857 258 41 262.253 41 267.5C41 272.747 127.857 277 235 277Z" fill="black"/>
<path d="M409 65H55V86H409V65Z" fill="#3F3D56"/>
<path d="M55 259.767C55 260.98 55.2362 262.18 55.6952 263.301C56.1541 264.421 56.8268 265.439 57.6748 266.296C58.5228 267.153 59.5296 267.833 60.6376 268.297C61.7456 268.761 62.9331 269 64.1324 269H399.868C401.067 269 402.254 268.761 403.362 268.297C404.47 267.833 405.477 267.153 406.325 266.296C407.173 265.439 407.846 264.421 408.305 263.301C408.764 262.18 409 260.98 409 259.767V76H55V259.767Z" fill="#1B0F0F"/>
<path d="M399.868 50H64.1324C62.9331 50 61.7456 50.2429 60.6376 50.7148C59.5296 51.1867 58.5228 51.8784 57.6748 52.7504C56.8268 53.6224 56.1541 54.6575 55.6952 55.7968C55.2362 56.9361 55 58.1572 55 59.3904V76H409V59.3904C409 58.1572 408.764 56.9361 408.305 55.7968C407.846 54.6575 407.173 53.6224 406.325 52.7504C405.477 51.8784 404.47 51.1867 403.362 50.7148C402.254 50.2429 401.067 50 399.868 50Z" fill="#3F3D56"/>
<path opacity="0.2" d="M399.868 50H64.1324C62.9331 50 61.7456 50.2429 60.6376 50.7148C59.5296 51.1867 58.5228 51.8784 57.6748 52.7504C56.8268 53.6224 56.1541 54.6575 55.6952 55.7968C55.2362 56.9361 55 58.1572 55 59.3904V76H409V59.3904C409 58.1572 408.764 56.9361 408.305 55.7968C407.846 54.6575 407.173 53.6224 406.325 52.7504C405.477 51.8784 404.47 51.1867 403.362 50.7148C402.254 50.2429 401.067 50 399.868 50Z" fill="#FF1988"/>
<path d="M76.5 69C79.5376 69 82 66.3137 82 63C82 59.6863 79.5376 57 76.5 57C73.4624 57 71 59.6863 71 63C71 66.3137 73.4624 69 76.5 69Z" fill="#3F3D56"/>
<path d="M91.5 69C94.5376 69 97 66.3137 97 63C97 59.6863 94.5376 57 91.5 57C88.4624 57 86 59.6863 86 63C86 66.3137 88.4624 69 91.5 69Z" fill="#3F3D56"/>
<path d="M106.5 69C109.538 69 112 66.3137 112 63C112 59.6863 109.538 57 106.5 57C103.462 57 101 59.6863 101 63C101 66.3137 103.462 69 106.5 69Z" fill="#3F3D56"/>
<path opacity="0.2" d="M210.752 91H73.248C72.0065 91 71 92.021 71 93.2805V253.719C71 254.979 72.0065 256 73.248 256H210.752C211.994 256 213 254.979 213 253.719V93.2805C213 92.021 211.994 91 210.752 91Z" fill="#FF1988"/>
<path d="M134.5 131C144.165 131 152 122.941 152 113C152 103.059 144.165 95 134.5 95C124.835 95 117 103.059 117 113C117 122.941 124.835 131 134.5 131Z" fill="#3C354C"/>
<path d="M133.5 148C143.165 148 151 139.941 151 130C151 120.059 143.165 112 133.5 112C123.835 112 116 120.059 116 130C116 139.941 123.835 148 133.5 148Z" fill="#3C354C"/>
<path d="M125.887 117C125.887 117 125.099 128.258 121.556 129.866C118.012 131.474 132.581 156 132.581 156L138.487 148.361L133.762 134.691C133.762 134.691 137.306 123.433 138.881 122.629C140.456 121.825 125.887 117 125.887 117Z" fill="#FFC1C7"/>
<path opacity="0.1" d="M125.887 117C125.887 117 125.099 128.258 121.556 129.866C118.012 131.474 132.581 156 132.581 156L138.487 148.361L133.762 134.691C133.762 134.691 137.306 123.433 138.881 122.629C140.456 121.825 125.887 117 125.887 117Z" fill="black"/>
<path d="M174.076 174C174.076 174 190.994 183.039 187.533 193.257C184.073 203.474 176.767 181.86 176.767 181.86L171 177.537L174.076 174Z" fill="#FFC1C7"/>
<path d="M174.676 201C174.676 201 181.301 216.147 175.845 216.966C170.39 217.785 170 203.456 170 203.456L174.676 201Z" fill="#FFC1C7"/>
<path d="M145.77 159C146.161 159 149.288 160.208 149.288 160.208C149.288 160.208 161.012 182.35 165.702 186.778C170.392 191.206 177.036 202.076 175.864 202.881C174.691 203.686 166.093 209.323 165.312 207.712C164.53 206.102 161.403 200.063 159.449 198.855C157.495 197.648 147.725 184.363 144.989 183.155C142.253 181.947 136 162.623 136 162.623L145.77 159Z" fill="#97CFED"/>
<path opacity="0.1" d="M145.786 159C146.177 159 149.308 160.208 149.308 160.208C149.308 160.208 154.788 186.039 159.485 190.468C164.182 194.896 177.099 202.076 175.925 202.881C174.751 203.686 166.139 209.323 165.357 207.712C164.574 206.102 161.442 200.063 159.485 198.855C157.528 197.648 147.743 184.363 145.003 183.155C142.263 181.947 136 162.623 136 162.623L145.786 159Z" fill="#97CFED"/>
<path d="M133.5 128C139.851 128 145 122.851 145 116.5C145 110.149 139.851 105 133.5 105C127.149 105 122 110.149 122 116.5C122 122.851 127.149 128 133.5 128Z" fill="#FBBEBE"/>
<path d="M149 159.864C149 159.864 142.651 167.434 141.857 167.832C141.559 167.983 139.575 168.864 137.218 169.908C133.309 171.637 128.365 173.808 128.365 173.808C128.365 173.808 125.19 175.8 123.603 175.8C122.015 175.8 113.285 180.182 113.285 180.182C113.285 180.182 106.935 184.963 102.967 184.963C98.9988 184.963 102.57 187.354 97.4114 186.955C92.2526 186.557 96.6178 171.816 98.9988 169.824C101.38 167.832 101.777 159.864 101.38 157.474C100.983 155.083 103.364 146.318 106.539 135.163C109.713 124.008 116.46 128.39 116.46 128.39C116.46 128.39 120.428 126 120.825 126C121.222 126 125.19 132.773 125.984 136.757C126.476 139.227 129.714 144.299 132.103 147.796C133.567 149.944 134.714 151.498 134.714 151.498C134.714 151.498 134.714 150.753 134.694 149.725C134.662 147.948 134.567 145.338 134.317 144.326C133.92 142.733 133.523 134.366 133.523 134.366C133.523 134.366 133.523 133.968 134.714 133.968C135.904 133.968 145.428 148.709 145.428 148.709L146.222 156.677L147.579 158.235L149 159.864Z" fill="#97CFED"/>
<path opacity="0.1" d="M149 160.031C149 160.031 142.68 167.544 141.89 167.94C141.594 168.09 139.619 168.964 137.273 170C125.889 167.109 112.858 160.624 112.858 160.624C112.858 160.624 109.106 147.377 112.266 141.446C115.426 135.514 124.51 142.237 124.51 142.237C124.51 142.237 127.971 144.914 132.181 148.053C133.019 148.678 133.884 149.323 134.761 149.967C139.342 153.34 144.15 156.737 146.117 157.659C146.476 157.825 146.974 158.082 147.586 158.414L149 160.031Z" fill="black"/>
<path d="M110.016 160.33C110.016 160.33 138.948 169.553 146.377 170.354C153.806 171.156 167.099 186.393 168.272 185.992C169.445 185.591 177.655 175.567 175.701 173.963C173.746 172.359 150.443 157.924 146.26 155.92C142.076 153.915 124.873 140.282 124.873 140.282C124.873 140.282 115.88 133.465 112.753 139.48C109.625 145.494 110.016 160.33 110.016 160.33Z" fill="#97CFED"/>
<path d="M124.758 204.951C124.758 204.951 119.98 201.308 116.795 202.117C113.611 202.927 109.63 205.356 110.028 210.619C110.26 213.742 110.659 216.85 111.222 219.929H111.62L112.814 212.643C112.814 212.643 116.397 214.262 117.194 217.096C117.99 219.929 127.943 225.597 130.331 223.573C132.72 221.548 127.943 219.12 127.943 219.12L124.758 204.951Z" fill="#F2F2F2"/>
<path opacity="0.1" d="M124.758 204.951C124.758 204.951 119.98 201.308 116.795 202.117C113.611 202.927 109.63 205.356 110.028 210.619C110.26 213.742 110.659 216.85 111.222 219.929H111.62L112.814 212.643C112.814 212.643 116.397 214.262 117.194 217.096C117.99 219.929 127.943 225.597 130.331 223.573C132.72 221.548 127.943 219.12 127.943 219.12L124.758 204.951Z" fill="black"/>
<path d="M133.678 208C133.678 208 167.521 204 165.947 197.6C164.373 191.2 152.567 184 152.567 184L132.891 188L120 202.18L125.02 204.8L133.678 208Z" fill="#3C354C"/>
<path opacity="0.1" d="M133.678 208C133.678 208 167.521 204 165.947 197.6C164.373 191.2 152.567 184 152.567 184L132.891 188L120 202.18L125.02 204.8L133.678 208Z" fill="black"/>
<path d="M117.808 214C117.808 214 110.93 225.434 108.907 225.828C106.885 226.222 104.457 228.588 107.289 233.713C108.987 236.774 110.085 240.117 110.526 243.57H111.335L110.93 236.473C110.93 236.473 116.19 244.753 116.594 247.907C116.999 251.061 131.968 254.215 134.395 249.878C136.823 245.541 131.159 242.387 131.159 242.387C131.159 242.387 122.663 233.319 123.876 227.011C125.09 220.703 126.304 219.125 126.304 219.125L117.808 214Z" fill="#F2F2F2"/>
<path d="M96.4409 184.776C96.4409 184.776 92.9018 207.787 105.878 206.979C118.855 206.172 145.987 189.62 145.987 189.62L154.245 180.335C154.245 180.335 160.143 171.857 150.313 169.435C140.482 167.013 124.36 175.491 124.36 175.491L99.9799 186.391L96.4409 184.776Z" fill="#3C354C"/>
<path d="M152.426 179L154 180.951C154 180.951 129.989 219.591 127.628 219.981C125.266 220.372 117 214.517 117 213.346C117 212.175 120.149 205.54 120.936 204.76C121.723 203.979 129.596 186.025 131.17 184.854C132.745 183.684 152.426 179 152.426 179Z" fill="#3C354C"/>
<path d="M134 116C141.18 116 147 111.971 147 107C147 102.029 141.18 98 134 98C126.82 98 121 102.029 121 107C121 111.971 126.82 116 134 116Z" fill="#3C354C"/>
<path opacity="0.2" d="M371.686 116H256.314C255.036 116 254 117.114 254 118.489V123.511C254 124.886 255.036 126 256.314 126H371.686C372.964 126 374 124.886 374 123.511V118.489C374 117.114 372.964 116 371.686 116Z" fill="#6C63FF"/>
<path opacity="0.2" d="M399.683 150H228.317C227.037 150 226 151.144 226 152.556V154.444C226 155.856 227.037 157 228.317 157H399.683C400.963 157 402 155.856 402 154.444V152.556C402 151.144 400.963 150 399.683 150Z" fill="#6C63FF"/>
<path opacity="0.2" d="M399.683 169H228.317C227.037 169 226 170.144 226 171.556V173.444C226 174.856 227.037 176 228.317 176H399.683C400.963 176 402 174.856 402 173.444V171.556C402 170.144 400.963 169 399.683 169Z" fill="#6C63FF"/>
<path opacity="0.2" d="M399.683 188H228.317C227.037 188 226 188.981 226 190.191V191.809C226 193.019 227.037 194 228.317 194H399.683C400.963 194 402 193.019 402 191.809V190.191C402 188.981 400.963 188 399.683 188Z" fill="#6C63FF"/>
<path opacity="0.2" d="M399.683 207H228.317C227.037 207 226 207.981 226 209.191V210.809C226 212.019 227.037 213 228.317 213H399.683C400.963 213 402 212.019 402 210.809V209.191C402 207.981 400.963 207 399.683 207Z" fill="#6C63FF"/>
<path d="M399.045 236H367.955C366.323 236 365 237.331 365 238.973V244.027C365 245.669 366.323 247 367.955 247H399.045C400.677 247 402 245.669 402 244.027V238.973C402 237.331 400.677 236 399.045 236Z" fill="#FF1988"/>
<path d="M135.5 274C210.335 274 271 212.663 271 137C271 61.337 210.335 0 135.5 0C60.6654 0 0 61.337 0 137C0 212.663 60.6654 274 135.5 274Z" fill="#97CFED"/>
<path d="M235.5 283C355.07 283 452 277.851 452 271.5C452 265.149 355.07 260 235.5 260C115.93 260 19 265.149 19 271.5C19 277.851 115.93 283 235.5 283Z" fill="#3F3D56"/>
<path opacity="0.2" d="M235 277C342.143 277 429 272.747 429 267.5C429 262.253 342.143 258 235 258C127.857 258 41 262.253 41 267.5C41 272.747 127.857 277 235 277Z" fill="black"/>
<path d="M409 65H55V86H409V65Z" fill="#3F3D56"/>
<path d="M55 259.767C55 260.98 55.2362 262.18 55.6952 263.301C56.1541 264.421 56.8268 265.439 57.6748 266.296C58.5228 267.153 59.5296 267.833 60.6376 268.297C61.7456 268.761 62.9331 269 64.1324 269H399.868C401.067 269 402.254 268.761 403.362 268.297C404.47 267.833 405.477 267.153 406.325 266.296C407.173 265.439 407.846 264.421 408.305 263.301C408.764 262.18 409 260.98 409 259.767V76H55V259.767Z" fill="#DFECF3"/>
<path d="M399.868 50H64.1324C62.9331 50 61.7456 50.2429 60.6376 50.7148C59.5296 51.1867 58.5228 51.8784 57.6748 52.7504C56.8268 53.6224 56.1541 54.6575 55.6952 55.7968C55.2362 56.9361 55 58.1572 55 59.3904V76H409V59.3904C409 58.1572 408.764 56.9361 408.305 55.7968C407.846 54.6575 407.173 53.6224 406.325 52.7504C405.477 51.8784 404.47 51.1867 403.362 50.7148C402.254 50.2429 401.067 50 399.868 50Z" fill="#FF1988"/>
<path d="M76.5 69C79.5376 69 82 66.3137 82 63C82 59.6863 79.5376 57 76.5 57C73.4624 57 71 59.6863 71 63C71 66.3137 73.4624 69 76.5 69Z" fill="#3F3D56"/>
<path d="M91.5 69C94.5376 69 97 66.3137 97 63C97 59.6863 94.5376 57 91.5 57C88.4624 57 86 59.6863 86 63C86 66.3137 88.4624 69 91.5 69Z" fill="#3F3D56"/>
<path d="M106.5 69C109.538 69 112 66.3137 112 63C112 59.6863 109.538 57 106.5 57C103.462 57 101 59.6863 101 63C101 66.3137 103.462 69 106.5 69Z" fill="#3F3D56"/>
<path d="M210.752 91H73.248C72.0065 91 71 92.021 71 93.2805V253.719C71 254.979 72.0065 256 73.248 256H210.752C211.994 256 213 254.979 213 253.719V93.2805C213 92.021 211.994 91 210.752 91Z" fill="#1B0F0F"/>
<path d="M134.5 131C144.165 131 152 122.941 152 113C152 103.059 144.165 95 134.5 95C124.835 95 117 103.059 117 113C117 122.941 124.835 131 134.5 131Z" fill="#FF6AB2"/>
<path d="M133.442 148C143.016 148 145 134.277 145 124.336C145 114.395 143.016 112 133.442 112C123.868 112 117 119.408 117 129.349C117 139.29 123.868 148 133.442 148Z" fill="#FF6AB2"/>
<path d="M125.887 117C125.887 117 125.099 128.258 121.556 129.866C118.012 131.474 132.581 156 132.581 156L138.487 148.361L133.762 134.691C133.762 134.691 137.306 123.433 138.881 122.629C140.456 121.825 125.887 117 125.887 117Z" fill="#FFC1C7"/>
<path opacity="0.1" d="M125.887 117C125.887 117 125.099 128.258 121.556 129.866C118.012 131.474 132.581 156 132.581 156L138.487 148.361L133.762 134.691C133.762 134.691 137.306 123.433 138.881 122.629C140.456 121.825 125.887 117 125.887 117Z" fill="black"/>
<path d="M174.076 174C174.076 174 190.994 183.039 187.533 193.257C184.073 203.474 176.767 181.86 176.767 181.86L171 177.537L174.076 174Z" fill="#FFC1C7"/>
<path d="M174.676 201C174.676 201 181.301 216.147 175.845 216.966C170.39 217.785 170 203.456 170 203.456L174.676 201Z" fill="#FFC1C7"/>
<path d="M145.77 159C146.161 159 149.288 160.208 149.288 160.208C149.288 160.208 161.012 182.35 165.702 186.778C170.392 191.206 177.036 202.076 175.864 202.881C174.691 203.686 166.093 209.323 165.312 207.712C164.53 206.102 161.403 200.063 159.449 198.855C157.495 197.648 147.725 184.363 144.989 183.155C142.253 181.947 136 162.623 136 162.623L145.77 159Z" fill="#97CFED"/>
<path opacity="0.1" d="M145.786 159C146.177 159 149.308 160.208 149.308 160.208C149.308 160.208 154.788 186.039 159.485 190.468C164.182 194.896 177.099 202.076 175.925 202.881C174.751 203.686 166.139 209.323 165.357 207.712C164.574 206.102 161.442 200.063 159.485 198.855C157.528 197.648 147.743 184.363 145.003 183.155C142.263 181.947 136 162.623 136 162.623L145.786 159Z" fill="#97CFED"/>
<path d="M133.5 128C139.851 128 145 122.851 145 116.5C145 110.149 139.851 105 133.5 105C127.149 105 122 110.149 122 116.5C122 122.851 127.149 128 133.5 128Z" fill="#FBBEBE"/>
<path d="M149 159.864C149 159.864 142.755 167.434 141.975 167.832C141.682 167.983 139.731 168.864 137.412 169.908C133.568 171.637 128.705 173.808 128.705 173.808C128.705 173.808 125.582 175.8 124.021 175.8C122.46 175.8 113.874 180.182 113.874 180.182C113.874 180.182 107.629 184.963 103.726 184.963C99.8232 184.963 103.336 187.354 98.262 186.955C93.1882 186.557 104.897 171.816 107.239 169.824C109.58 167.832 109.971 159.864 109.58 157.474C109.19 155.083 104.116 146.318 107.239 135.163C110.361 124.008 116.996 128.39 116.996 128.39C116.996 128.39 120.899 126 121.289 126C121.68 126 125.582 132.773 126.363 136.757C126.847 139.227 130.032 144.299 132.381 147.796C133.822 149.944 134.949 151.498 134.949 151.498C134.949 151.498 134.949 150.753 134.93 149.725C134.899 147.948 134.805 145.338 134.559 144.326C134.169 142.733 133.779 134.366 133.779 134.366C133.779 134.366 133.779 133.968 134.949 133.968C136.12 133.968 145.487 148.709 145.487 148.709L146.268 156.677L147.603 158.235L149 159.864Z" fill="#97CFED"/>
<path opacity="0.1" d="M149 160.031C149 160.031 142.68 167.544 141.89 167.94C141.594 168.09 139.619 168.964 137.273 170C125.889 167.109 112.858 160.624 112.858 160.624C112.858 160.624 109.106 147.377 112.266 141.446C115.426 135.514 124.51 142.237 124.51 142.237C124.51 142.237 127.971 144.914 132.181 148.053C133.019 148.678 133.884 149.323 134.761 149.967C139.342 153.34 144.15 156.737 146.117 157.659C146.476 157.825 146.974 158.082 147.586 158.414L149 160.031Z" fill="black"/>
<path d="M110.016 160.33C110.016 160.33 138.948 169.553 146.377 170.354C153.806 171.156 167.099 186.393 168.272 185.992C169.445 185.591 177.655 175.567 175.701 173.963C173.746 172.359 150.443 157.924 146.26 155.92C142.076 153.915 124.873 140.282 124.873 140.282C124.873 140.282 115.88 133.465 112.753 139.48C109.625 145.494 110.016 160.33 110.016 160.33Z" fill="#97CFED"/>
<path d="M124.758 204.951C124.758 204.951 119.98 201.308 116.795 202.117C113.611 202.927 109.63 205.356 110.028 210.619C110.26 213.742 110.659 216.85 111.222 219.929H111.62L112.814 212.643C112.814 212.643 116.397 214.262 117.194 217.096C117.99 219.929 127.943 225.597 130.331 223.573C132.72 221.548 127.943 219.12 127.943 219.12L124.758 204.951Z" fill="#F2F2F2"/>
<path opacity="0.1" d="M124.758 204.951C124.758 204.951 119.98 201.308 116.795 202.117C113.611 202.927 109.63 205.356 110.028 210.619C110.26 213.742 110.659 216.85 111.222 219.929H111.62L112.814 212.643C112.814 212.643 116.397 214.262 117.194 217.096C117.99 219.929 127.943 225.597 130.331 223.573C132.72 221.548 127.943 219.12 127.943 219.12L124.758 204.951Z" fill="black"/>
<path d="M133.678 208C133.678 208 167.521 204 165.947 197.6C164.373 191.2 152.567 184 152.567 184L132.891 188L120 202.18L125.02 204.8L133.678 208Z" fill="#3C354C"/>
<path opacity="0.7" d="M133.678 208C133.678 208 167.521 204 165.947 197.6C164.373 191.2 152.567 184 152.567 184L132.891 188L120 202.18L125.02 204.8L133.678 208Z" fill="#FF6AB2"/>
<path d="M117.808 214C117.808 214 110.93 225.434 108.907 225.828C106.885 226.222 104.457 228.588 107.289 233.713C108.987 236.774 110.085 240.117 110.526 243.57H111.335L110.93 236.473C110.93 236.473 116.19 244.753 116.594 247.907C116.999 251.061 131.968 254.215 134.395 249.878C136.823 245.541 131.159 242.387 131.159 242.387C131.159 242.387 122.663 233.319 123.876 227.011C125.09 220.703 126.304 219.125 126.304 219.125L117.808 214Z" fill="#F2F2F2"/>
<path d="M96.4409 184.776C96.4409 184.776 92.9018 207.787 105.878 206.979C118.855 206.172 145.987 189.62 145.987 189.62L154.245 180.335C154.245 180.335 160.143 171.857 150.313 169.435C140.482 167.013 124.36 175.491 124.36 175.491L99.9799 186.391L96.4409 184.776Z" fill="#FF6AB2"/>
<path d="M152.426 179L154 180.951C154 180.951 129.989 219.591 127.628 219.981C125.266 220.372 117 214.517 117 213.346C117 212.175 120.149 205.54 120.936 204.76C121.723 203.979 129.596 186.025 131.17 184.854C132.745 183.684 152.426 179 152.426 179Z" fill="#FF6AB2"/>
<path d="M146.829 106.832C146.829 106.999 146.833 107.154 146.842 107.298C149.344 108.343 147.043 110.539 146.842 107.298C146.192 107.026 145.216 106.832 143.794 106.832C136.661 106.832 121 111.71 121 106.832C121 101.954 126.782 98 133.914 98C141.047 98 146.829 101.954 146.829 106.832Z" fill="#FF6AB2"/>
<path opacity="0.2" d="M371.686 116H256.314C255.036 116 254 117.114 254 118.489V123.511C254 124.886 255.036 126 256.314 126H371.686C372.964 126 374 124.886 374 123.511V118.489C374 117.114 372.964 116 371.686 116Z" fill="#6C63FF"/>
<path opacity="0.2" d="M399.683 150H228.317C227.037 150 226 151.144 226 152.556V154.444C226 155.856 227.037 157 228.317 157H399.683C400.963 157 402 155.856 402 154.444V152.556C402 151.144 400.963 150 399.683 150Z" fill="#6C63FF"/>
<path opacity="0.2" d="M399.683 169H228.317C227.037 169 226 170.144 226 171.556V173.444C226 174.856 227.037 176 228.317 176H399.683C400.963 176 402 174.856 402 173.444V171.556C402 170.144 400.963 169 399.683 169Z" fill="#6C63FF"/>
<path opacity="0.2" d="M399.683 188H228.317C227.037 188 226 188.981 226 190.191V191.809C226 193.019 227.037 194 228.317 194H399.683C400.963 194 402 193.019 402 191.809V190.191C402 188.981 400.963 188 399.683 188Z" fill="#6C63FF"/>
<path opacity="0.2" d="M399.683 207H228.317C227.037 207 226 207.981 226 209.191V210.809C226 212.019 227.037 213 228.317 213H399.683C400.963 213 402 212.019 402 210.809V209.191C402 207.981 400.963 207 399.683 207Z" fill="#6C63FF"/>
<path d="M399.045 236H367.955C366.323 236 365 237.331 365 238.973V244.027C365 245.669 366.323 247 367.955 247H399.045C400.677 247 402 245.669 402 244.027V238.973C402 237.331 400.677 236 399.045 236Z" fill="#FF1988"/>
</svg>
