<svg width="304" height="312" viewBox="0 0 304 312" fill="none" xmlns="http://www.w3.org/2000/svg">
<path d="M303.243 148.944C303.243 231.204 244.816 297.889 172.743 297.889C100.669 297.889 166.595 142.35 42.2416 148.944C-82.112 155.539 100.669 0 172.743 0C244.816 0 303.243 66.6847 303.243 148.944Z" fill="#97CFED"/>
<path d="M188.973 241.746L194.786 230.885L176.583 225.837L182.09 241.746H188.973Z" fill="#EB71AB"/>
<path d="M192.186 311.5L189.126 241.44H182.09L185.914 311.5H192.186Z" fill="#434141"/>
<path d="M101.321 161.284C132.68 100.096 168.058 67.9702 116.312 41.9678C109.826 48.9131 106.706 54.012 119.219 64.7602C129.303 80.0515 122.278 88.6235 104.228 116.617C75.2874 156.902 69.8681 175.925 91.5312 199.526L104.228 180.252C100.549 177.158 99.9787 172.892 101.321 161.284Z" fill="#FF6AB2"/>
<path d="M124.114 161.131C114.069 175.38 108.558 182.76 102.087 179.181L90.7668 197.691C99.6571 208.279 119.525 212.07 141.4 214.211C155.167 218.953 165.434 222.841 176.583 226.908L178.877 230.732H193.715C222.238 231.657 238.164 229.685 266.376 218.953H303.395L262.246 185.147C222.021 147.9 201.926 148.785 165.263 143.081C141.764 144.984 134.088 149.859 124.114 161.131Z" fill="#FF6AB2"/>
<path d="M139.564 173.98C151.402 188.88 158.784 195.337 175.97 196.62L162.356 201.974H173.829L192.95 208.246H170.311L175.97 213.447L195.092 211.917L202.74 215.129L178.265 217.577L180.713 221.401L207.329 219.718L211.918 215.129L235.629 211.917C244.642 209.481 247.646 210.265 252.761 211.917L241.289 217.577L246.795 223.237C228.668 229.967 216.977 231.19 195.092 231.65H180.713L175.97 226.296C150.638 215.311 142.386 213.686 126.255 211.917C117.41 211.367 105.096 209.819 91.0724 199.373V191.113H85.5655C82.7665 184.06 82.4832 180.955 82.3531 175.663L91.0724 173.98C90.4179 184.655 92.5226 189.678 104.993 195.243C112.652 196.848 115.253 193.054 119.372 184.841C127.832 164.24 134.074 157.729 147.671 154.4L139.564 173.98Z" fill="#FF1988"/>
<path d="M121.972 69.808C139.553 79.707 62.9262 163.425 86.9424 183.923C104.993 139.103 127.161 112.882 133.598 94.7421C145.499 61.2039 131.767 60.9794 128.856 57.4175L116.007 67.8194L121.972 69.808Z" fill="#FF1988"/>
<path d="M104.84 77.7623C99.7178 79.9536 97.8725 81.4029 95.5086 84.1871C89.3587 78.9412 87.343 74.4438 87.2482 62.6183C90.7665 45.6387 107.134 36.9194 117.536 42.8853C123.703 51.1464 123.87 56.6869 120.749 67.5134C115.187 71.2541 111.82 73.4514 104.84 77.7623Z" fill="#FF6AB2"/>
<path d="M127.632 49.9222C120.347 41.5436 110.778 42.8164 103.616 48.8514V57.5707L109.123 72.5618L118.607 67.2078C129.095 64.3098 130.816 60.3842 127.632 49.9222Z" fill="#FF6AB2"/>
<path d="M102.239 77.9154C100.636 79.344 99.495 79.5543 96.8854 78.5273L87.5542 63.5363C95.3185 55.4594 100.327 48.4078 107.593 47.6274C110.235 48.9827 110.259 49.9986 109.735 51.9106L105.911 55.4289C106.977 57.0199 106.951 58.204 105.911 60.7828C109.819 61.5138 111.439 60.3606 114.171 57.8764C116.357 60.4181 117.114 61.917 117.383 64.76L110.806 72.4085C109.199 73.7511 108.296 74.269 106.675 74.2442L105.911 72.4085H103.31C103.594 74.816 103.545 76.0895 102.239 77.9154Z" fill="#FF1988"/>
<path d="M97.9563 77.9152C96.6848 79.2571 96.7238 80.4588 96.8855 82.6573L91.8376 90.9177L91.3786 96.7305C90.3807 102.143 90.3343 105.774 91.3786 113.557C91.0358 115.584 90.7508 116.211 90.0019 116.005V117.075C84.1067 114.586 81.1944 108.986 76.5406 93.2122C76.0817 90.9177 75.7758 89.8469 75.0109 87.8583C75.1639 82.3514 76.7226 79.2799 80.0589 74.091C83.5591 68.9403 85.5284 66.4306 87.2485 62.7713L93.2143 62.3123C95.1988 61.2724 96.1286 60.7015 97.3445 59.7119C98.2084 56.8408 99.5498 56.6023 102.239 56.6525C103.708 58.3442 103.65 59.432 101.475 61.7005C99.2439 64.6486 98.3653 66.4598 98.8742 70.5727C97.5159 73.4555 97.5606 75.0593 97.9563 77.9152Z" fill="#EAD6CF"/>
<path d="M91.3782 91.0709C91.6258 92.7363 91.6478 93.9273 91.3782 96.7307H82.047L81.1292 87.7055C84.5167 80.8186 86.8079 78.1158 91.8371 76.0798C91.9447 78.7638 91.9626 80.3664 91.3782 84.6461H92.7549C92.5269 88.2107 92.1557 89.3797 91.3782 91.0709Z" fill="#EFA788"/>
<path d="M88.472 65.5249C90.0977 69.9031 90.9846 71.7008 92.4492 71.7967C82.5605 79.0306 88.7925 107.918 90.0017 116.77C82.6859 108.354 80.0524 101.308 75.6226 88.3174C77.3164 77.4281 81.6406 73.459 88.472 65.5249Z" fill="#EFA788"/>
<path d="M81.2828 87.3998C82.696 91.7715 85.3546 93.5233 91.3788 96.425C90.5928 102.491 90.7669 105.45 91.2258 108.663C91.4777 112.272 91.9907 115.393 90.1551 116.158C83.1185 107.745 73.0225 86.7184 85.8719 77.7627C90.9199 74.2444 93.571 71.8528 94.5912 71.7969L94.7441 72.1028C91.5318 73.6325 83.2604 80.0749 81.2828 87.3998Z" fill="#272D26"/>
<path d="M87.8604 71.6438C85.7861 73.6017 84.6445 74.7271 82.8124 76.9977L83.2713 77.3037C85.617 75.215 86.6017 73.9366 88.3193 71.6438H87.8604Z" fill="#272D26"/>
<path d="M90.002 117.076V116.158C85.5658 111.263 80.1673 100.482 79.2941 91.0709V85.564L75.9288 88.0115L75.0109 87.5526C77.6082 99.8279 79.2699 102.598 82.5064 109.733C85.758 115.419 87.5635 116.553 90.002 117.076Z" fill="#272D26"/>
<path d="M98.4933 58.3328C98.2179 58.8951 98.1118 59.5578 98.1092 60.1492C98.1865 60.4093 98.3072 60.591 98.4611 60.7219C98.6206 60.8575 98.8257 60.947 99.0801 61.0044C99.518 61.1031 100.066 61.1004 100.714 61.0972C100.826 61.0966 100.94 61.096 101.058 61.096C102.425 60.6975 102.981 59.5213 102.988 58.3687C102.823 57.7932 102.649 57.4341 102.254 57.2313C101.84 57.0185 101.15 56.9606 99.8922 57.1146C99.2112 57.3118 98.7688 57.7703 98.4933 58.3328Z" fill="#C9B7A1" stroke="#7F7552" stroke-width="0.305939"/>
<path d="M98.8748 59.1419C98.8828 59.4727 98.9882 59.7543 99.2232 59.9584C99.4716 60.1741 99.8885 60.3241 100.557 60.3241C101.052 60.3241 101.396 60.2487 101.651 60.0659C101.9 59.8876 102.09 59.5896 102.237 59.0884C102.161 58.5237 101.972 58.239 101.718 58.0836C101.445 57.9171 101.065 57.8766 100.557 57.8766C100.086 57.8766 99.7792 58.0165 99.5337 58.2386C99.2872 58.4615 99.0977 58.7706 98.8748 59.1419Z" fill="white" stroke="#7F7552" stroke-width="0.305939"/>
<ellipse rx="0.611878" ry="0.458909" transform="matrix(-1 0 0 1 100.25 59.1)" fill="black"/>
<path d="M113.772 138.095C114.033 138.183 114.181 138.258 114.532 138.487C115.041 138.821 115.565 139.333 115.805 139.723C115.936 139.939 116.282 140.877 116.429 141.421C116.585 142 116.663 142.603 116.674 143.28C116.675 143.458 116.597 144.132 116.384 145.726C116.223 146.937 116.069 148.101 116.043 148.31C116.003 148.6 115.967 148.759 115.887 148.99C115.763 149.346 115.502 149.888 115.271 150.273C115.125 150.515 115.096 150.583 115.069 150.76C114.962 151.432 114.382 152.914 114.019 153.444C113.405 154.335 112.848 154.813 112.319 154.898C111.631 155.011 110.723 154.694 109.132 153.78C108.789 153.583 108.272 153.285 107.987 153.122C107.702 152.957 107.316 152.749 107.131 152.657C106.74 152.468 106.5 152.309 105.897 151.841C105.38 151.442 104.118 150.395 103.665 149.991C103.489 149.831 103.269 149.649 103.177 149.587C102.775 149.311 100.697 148.1 100.598 148.086C100.586 148.085 100.569 148.106 100.557 148.135C100.547 148.163 100.5 148.188 100.454 148.193C100.407 148.198 100.307 148.239 100.226 148.283C99.8408 148.491 99.4536 148.527 98.3795 148.457C98.0346 148.436 97.6286 148.42 97.4784 148.426C97.2618 148.433 97.0147 148.411 96.3151 148.315C95.511 148.204 95.3933 148.183 95.0685 148.078C94.8732 148.013 94.6376 147.929 94.5487 147.885C94.2192 147.731 93.932 147.416 93.7752 147.029L93.6936 146.828L93.3115 147.077C92.3456 147.707 91.5458 148.088 91.152 148.109C91.065 148.114 90.9229 148.124 90.8331 148.128C90.6045 148.14 90.2234 148.278 89.1422 148.741C88.6202 148.963 88.0327 149.201 87.8305 149.271C87.517 149.378 87.4345 149.392 87.2399 149.386C87.1167 149.383 86.9576 149.39 86.8892 149.407C86.703 149.444 86.1261 149.647 85.3855 149.933C84.0528 150.449 82.9994 150.773 82.4745 150.827C81.7568 150.904 81.312 150.794 81.0457 150.473C80.8576 150.251 80.7885 150.001 80.7047 149.25C80.6174 148.462 80.6029 148.086 80.5865 146.259C80.5741 144.8 80.5739 144.76 80.667 143.683C80.7543 142.692 80.7463 142.855 80.7562 141.568C80.7636 140.425 80.7552 140.131 80.6841 139.351C80.6231 138.664 80.6344 138.289 80.7363 137.714C80.8918 136.832 81.1785 136.001 81.461 135.597C81.5569 135.463 81.8264 135.259 82.041 135.162C82.1482 135.113 82.5325 134.974 82.8911 134.853C83.5572 134.628 83.7364 134.558 83.9335 134.442L84.0456 134.379L84.5028 134.482C86.173 134.858 87.5492 135.303 88.2485 135.695C88.8787 136.046 89.6817 136.625 90.8876 137.598C92.1893 138.648 92.7618 139.043 93.8274 139.634C94.2601 139.875 94.671 140.107 94.7425 140.151L94.8669 140.228L94.9343 140.177C95.0595 140.082 95.2898 139.996 95.5223 139.956C95.9931 139.877 96.2102 139.887 97.4915 140.06C98.1436 140.147 98.8057 140.223 98.9624 140.233C99.5446 140.264 100.328 140.527 100.804 140.851C101.019 140.995 101.258 141.227 101.342 141.365L101.413 141.481L101.745 141.339C102.213 141.139 102.945 140.875 103.86 140.575C104.832 140.254 105.344 140.066 106.752 139.503C109.535 138.39 110.33 138.169 111.863 138.08C112.462 138.045 113.462 138.01 113.521 138.021C113.552 138.025 113.665 138.061 113.772 138.095Z" fill="black"/>
<path fill-rule="evenodd" clip-rule="evenodd" d="M107.598 28.8449C109.495 24.9882 109.741 21.4344 110.722 17.4337C112.273 11.1156 146.557 24.6224 143.309 29.7434L138.554 37.2391C138.554 37.2391 135.843 42.5886 135.868 42.6128C138.305 44.9608 141.151 45.1465 142.657 49.6195C144.533 55.1903 125.487 60.1764 119.129 57.8992C111.992 55.3436 100.419 52.5289 93.2161 41.4391C90.8162 37.7442 95.4905 25.992 107.599 28.8455L107.598 28.8449Z" fill="#00006C"/>
<path fill-rule="evenodd" clip-rule="evenodd" d="M107.599 28.845C109.495 24.9883 109.741 21.4344 110.723 17.4338C112.273 11.1157 146.557 24.6225 143.309 29.7434L138.554 37.2392C138.554 37.2392 135.843 42.5887 135.868 42.6129C138.305 44.9609 141.151 45.1466 142.657 49.6195C144.533 55.1904 125.86 58.4574 119.129 57.8992C111.66 57.2803 99.5663 54.0629 93.2162 41.4392C91.2361 37.5033 95.4906 25.9921 107.599 28.8456L107.599 28.845Z" fill="#000050"/>
<path d="M104.611 61.0553C114.024 62.3123 117.196 60.5251 121.722 55.9998" stroke="#F5BF00" stroke-width="0.777778"/>
<path fill-rule="evenodd" clip-rule="evenodd" d="M107.598 28.845C109.494 24.9884 109.741 21.4345 110.722 17.4339C112.272 11.1158 146.557 24.6226 143.308 29.7435L138.554 37.2393C138.554 37.2393 135.843 42.5887 135.868 42.613C138.305 44.9609 141.151 45.1467 142.657 49.6196C144.533 55.1904 125.83 58.7456 119.128 57.8993C111.143 56.8907 99.4966 54.1621 93.216 41.4393C91.2656 37.4886 95.4904 25.9922 107.599 28.8456L107.598 28.845Z" fill="#000003"/>
<path opacity="0.27755" fill-rule="evenodd" clip-rule="evenodd" d="M143.557 29.3239C139.892 35.6554 135.331 41.2669 134.078 49.538C133.562 52.9427 126.641 53.3572 115.007 51.0877C108.816 49.8799 100.535 42.4183 102.639 38.8886C104.206 36.2598 106.981 31.4152 108.16 27.6836C109.902 23.2445 111.272 16.0351 111.272 16.0351C109.253 20.8006 138.293 34.3824 143.556 29.3241L143.557 29.3239Z" fill="#00002C"/>
<path fill-rule="evenodd" clip-rule="evenodd" d="M118.093 15.7273L119.716 16.1526C121.224 16.5481 124.892 17.1267 127.693 18.4133L135.498 21.9989C136.967 22.6741 144.99 27.7884 143.73 29.5582C139.996 34.8013 109.168 22.2874 111.596 16.1111C113.009 14.664 115.629 15.6134 118.094 15.7275L118.093 15.7273Z" fill="#000078"/>
<path fill-rule="evenodd" clip-rule="evenodd" d="M118.093 15.7273L119.716 16.1526C121.224 16.5481 124.892 17.1267 127.693 18.4133L135.498 21.9989C136.967 22.6741 144.99 27.7884 143.73 29.5582C139.996 34.8013 109.168 22.2874 111.596 16.1111C113.009 14.664 115.629 15.6134 118.094 15.7275L118.093 15.7273Z" fill="black"/>
<g opacity="0.4" filter="url(#filter0_f)">
<path fill-rule="evenodd" clip-rule="evenodd" d="M111.814 15.9349C111.622 16.0429 111.443 16.1764 111.281 16.3428C108.901 22.3958 138.46 34.5353 143.156 30.0831C137.231 33.4809 109.443 21.8694 111.754 15.9936C111.773 15.9733 111.794 15.9545 111.814 15.9352L111.814 15.9349Z" fill="#A4E8FC"/>
</g>
<g opacity="0.27347" filter="url(#filter1_f)">
<path fill-rule="evenodd" clip-rule="evenodd" d="M137.309 30.8831L128.946 50.114L122.698 49.1746C122.663 49.1694 132.676 30.3973 132.676 30.3973C133.045 28.8744 137.309 30.8835 137.309 30.8835L137.309 30.8831Z" fill="#8CE4FC"/>
</g>
<path fill-rule="evenodd" clip-rule="evenodd" d="M132.243 30.0515C134.541 31.7998 123.87 49.3507 123.87 49.3507C126.277 51.4698 109.91 46.7417 109.995 45.02C111.526 46.6136 120.127 25.6499 118.746 25.076C118.751 25.0415 132.243 30.0514 132.243 30.0514L132.243 30.0515Z" fill="black"/>
<g opacity="0.26939" filter="url(#filter2_f)">
<path fill-rule="evenodd" clip-rule="evenodd" d="M118.955 24.1956C116.97 31.268 114.24 37.7262 110.592 43.4266L104.344 42.4872C106.241 43.9465 116.755 24.3035 114.994 22.9691C115.363 21.4462 118.955 24.1959 118.955 24.1959L118.955 24.1956Z" fill="#84E0FC"/>
</g>
<path fill-rule="evenodd" clip-rule="evenodd" d="M115.7 22.5139C116.262 23.3027 107.057 41.9998 106.092 41.6275C106.649 42.5882 103.148 38.3089 103.148 38.3089C108.462 29.1932 109.25 24.0297 110.928 16.8864C111.517 19.6112 113.658 21.0208 115.7 22.5139L115.7 22.5139Z" fill="black"/>
<path fill-rule="evenodd" clip-rule="evenodd" d="M142.834 30.5216C141.853 32.6186 137.634 39.9172 137.634 39.9172C136.613 42.0435 133.851 48.9195 133.851 48.9195C132.328 48.5503 129.661 49.2421 129.675 49.21L137.477 31.1188C137.483 31.0843 142.834 30.5214 142.834 30.5214L142.834 30.5216Z" fill="black"/>
<path fill-rule="evenodd" clip-rule="evenodd" d="M92.4358 37.9226C94.9727 29.1601 100.956 27.9373 107.672 28.3212C108.189 28.5431 102.819 39.6945 101.902 40.5768C101.366 40.7499 105.814 46.1318 106.634 45.9177C109.198 47.2854 92.7378 39.2243 92.7378 39.2243C93.7508 40.8845 92.1227 39.0052 92.436 37.9228L92.4358 37.9226Z" fill="url(#paint0_linear)"/>
<path fill-rule="evenodd" clip-rule="evenodd" d="M132.977 51.218C132.977 51.218 134.054 49.7203 133.749 48.4955C120.05 52.172 105.707 41.6808 102.9 38.1435C103.393 38.8524 101.962 40.4991 101.962 40.4991C98.3536 46.0163 128.922 55.8165 132.977 51.218L132.977 51.218Z" fill="#0000FF"/>
<path opacity="0.50204" fill-rule="evenodd" clip-rule="evenodd" d="M140.602 46.8444C140.937 47.3981 141.241 48.0463 141.504 48.8271C143.38 54.3979 124.366 59.293 117.975 57.1056L117.771 57.0372L117.75 57.1808C118.348 57.3609 118.925 57.5407 119.469 57.7269C125.86 59.9138 144.596 55.4683 142.645 49.4652C142.32 48.4651 141.917 47.6166 141.468 46.9743L140.602 46.8444Z" fill="black"/>
<g opacity="0.45714" filter="url(#filter3_f)">
<path fill-rule="evenodd" clip-rule="evenodd" d="M141.131 47.0636C141.162 47.1151 141.191 47.1689 141.222 47.2221L142.446 47.4062C142.41 47.3521 142.376 47.2975 142.339 47.2453L141.131 47.0636ZM135.039 55.5296C129.449 57.5736 122.043 58.5359 118.504 57.325L118.3 57.2566L118.279 57.4002C118.877 57.5804 119.454 57.7602 119.998 57.9464C123.193 59.0397 129.543 58.3613 134.861 56.7151L135.039 55.5296L135.039 55.5296Z" fill="#E4F4FC"/>
</g>
<g opacity="0.43673" filter="url(#filter4_f)">
<path fill-rule="evenodd" clip-rule="evenodd" d="M125.348 52.5827C122.39 51.0853 119.759 54.7623 125.363 57.1507C125.721 58.5023 122.249 56.8228 122.249 56.8228C121.817 57.5994 108.983 48.018 108.983 48.018C108.989 47.9835 125.348 52.5829 125.348 52.5829L125.348 52.5827Z" fill="#00A0F0"/>
</g>
<g opacity="0.22449" filter="url(#filter5_f)">
<path fill-rule="evenodd" clip-rule="evenodd" d="M108.239 28.7565C108.273 28.7617 103.573 38.7931 103.573 38.7931L102.991 38.425C105.97 32.9639 106.481 31.3377 107.972 28.1553C108.601 28.6354 108.239 28.7565 108.239 28.7565L108.239 28.7565Z" fill="white"/>
</g>
<path fill-rule="evenodd" clip-rule="evenodd" d="M125.839 48.7849L127.694 49.0326C128.086 49.0849 128.444 49.2459 128.691 49.4803C128.937 49.7146 129.05 50.003 129.007 50.2821L128.731 52.0357C128.688 52.3148 128.49 52.5616 128.182 52.722C127.874 52.8823 127.481 52.943 127.089 52.8907L125.234 52.643C124.842 52.5907 124.484 52.4296 124.238 52.1953C123.991 51.961 123.878 51.6726 123.922 51.3935L124.197 49.6399C124.241 49.3608 124.438 49.1139 124.746 48.9536C125.054 48.7933 125.447 48.7326 125.839 48.7849Z" fill="#FF00C7"/>
<path d="M104.611 58.7221C104.611 61.3628 102.812 63.3887 100.722 63.3887C98.6327 63.3887 96.8332 61.3628 96.8332 58.7221C96.8332 56.0813 98.6327 54.0554 100.722 54.0554C102.812 54.0554 104.611 56.0813 104.611 58.7221Z" fill="url(#paint1_radial)" stroke="#F5BF00" stroke-width="0.777778"/>
<defs>
<filter id="filter0_f" x="110.383" y="15.1737" width="33.5335" height="16.6305" filterUnits="userSpaceOnUse" color-interpolation-filters="sRGB">
<feFlood flood-opacity="0" result="BackgroundImageFix"/>
<feBlend mode="normal" in="SourceGraphic" in2="BackgroundImageFix" result="shape"/>
<feGaussianBlur stdDeviation="0.380544" result="effect1_foregroundBlur"/>
</filter>
<filter id="filter1_f" x="120.663" y="27.792" width="18.681" height="24.3568" filterUnits="userSpaceOnUse" color-interpolation-filters="sRGB">
<feFlood flood-opacity="0" result="BackgroundImageFix"/>
<feBlend mode="normal" in="SourceGraphic" in2="BackgroundImageFix" result="shape"/>
<feGaussianBlur stdDeviation="1.01744" result="effect1_foregroundBlur"/>
</filter>
<filter id="filter2_f" x="102.309" y="20.4746" width="18.6804" height="24.9869" filterUnits="userSpaceOnUse" color-interpolation-filters="sRGB">
<feFlood flood-opacity="0" result="BackgroundImageFix"/>
<feBlend mode="normal" in="SourceGraphic" in2="BackgroundImageFix" result="shape"/>
<feGaussianBlur stdDeviation="1.01744" result="effect1_foregroundBlur"/>
</filter>
<filter id="filter3_f" x="117.554" y="46.3382" width="25.618" height="12.8659" filterUnits="userSpaceOnUse" color-interpolation-filters="sRGB">
<feFlood flood-opacity="0" result="BackgroundImageFix"/>
<feBlend mode="normal" in="SourceGraphic" in2="BackgroundImageFix" result="shape"/>
<feGaussianBlur stdDeviation="0.362647" result="effect1_foregroundBlur"/>
</filter>
<filter id="filter4_f" x="107.284" y="46.3183" width="19.8045" height="13.058" filterUnits="userSpaceOnUse" color-interpolation-filters="sRGB">
<feFlood flood-opacity="0" result="BackgroundImageFix"/>
<feBlend mode="normal" in="SourceGraphic" in2="BackgroundImageFix" result="shape"/>
<feGaussianBlur stdDeviation="0.849761" result="effect1_foregroundBlur"/>
</filter>
<filter id="filter5_f" x="102.564" y="27.7285" width="6.20525" height="11.4913" filterUnits="userSpaceOnUse" color-interpolation-filters="sRGB">
<feFlood flood-opacity="0" result="BackgroundImageFix"/>
<feBlend mode="normal" in="SourceGraphic" in2="BackgroundImageFix" result="shape"/>
<feGaussianBlur stdDeviation="0.213363" result="effect1_foregroundBlur"/>
</filter>
<linearGradient id="paint0_linear" x1="98.3279" y1="30.2048" x2="102.611" y2="45.5084" gradientUnits="userSpaceOnUse">
<stop stop-color="#000018"/>
<stop offset="1" stop-color="#000024" stop-opacity="0"/>
</linearGradient>
<radialGradient id="paint1_radial" cx="0" cy="0" r="1" gradientUnits="userSpaceOnUse" gradientTransform="translate(100.722 58.7221) rotate(90) scale(5.05556 4.27778)">
<stop stop-color="#99E4FC" stop-opacity="0"/>
<stop offset="1" stop-color="#99E4FC" stop-opacity="0.79"/>
</radialGradient>
</defs>
</svg>
