<svg width="508" height="201" viewBox="0 0 508 201" fill="none" xmlns="http://www.w3.org/2000/svg">
<path opacity="0.1" d="M318.963 159.5C219.455 157.518 139.051 143.13 139.375 127.363C139.699 111.596 220.629 100.421 320.136 102.403C419.644 104.385 500.048 118.774 499.724 134.54C499.4 150.307 418.47 161.482 318.963 159.5Z" fill="#6C63FF"/>
<path d="M117.655 48.7706C158.74 39.342 168.987 45.3854 176.702 65.5232C197.12 64.295 204.959 66.9063 206.12 83.2855C207.171 90.0178 209.297 103.792 209.394 105.033C209.491 106.273 164.474 129.359 141.953 140.747C114.276 154.791 97.3847 154.114 63.5789 130.022C39.1257 133.242 30.4595 126.445 16.1352 112.388C-0.0961501 106.311 0.171332 97.1751 25.2038 65.8683C19.3306 46.1492 34.1837 38.2138 96.4017 30.2282L96.7733 30.2155C109.931 29.7672 117.422 29.5119 117.655 48.7706Z" fill="#A3A3A3"/>
<path opacity="0.05" d="M275.192 80.3991C275.192 80.3991 258.707 73.924 255.713 68.4337C255.311 67.6972 254.927 66.9523 254.491 66.2329C252.672 63.2349 248.79 56.1737 250.18 52.536C251.971 47.8454 245.013 53.5368 245.013 53.5368L250.987 74.6398L261.864 79.5748L275.501 80.3757" fill="#FF1988"/>
<path d="M156.807 79.5154L264.765 71.3184L268.124 114.187L160.166 122.384L156.807 79.5154Z" fill="#6F7D95"/>
<path d="M290.642 49.158L277.958 84.1356L247.45 84.6301L245.136 70.8356L242.939 54.6019L285.638 48.321L290.642 49.158Z" fill="#4B5C7A"/>
<path d="M290.641 49.158C290.641 49.158 284.397 44.1664 277.237 43.4931C270.078 42.8197 246.661 47.0281 246.661 47.0281L243.735 53.0111L244.582 55.6905L290.641 49.158Z" fill="#97CFED"/>
<path d="M234.191 70.907L343.068 62.6401L345.529 94.0374L236.651 102.304L234.191 70.907Z" fill="#4B5C7A"/>
<path d="M264.686 106.493L262.268 102.766L268.745 100.457L267.189 106.303L264.686 106.493Z" fill="#EB71AB"/>
<path d="M265.474 131.548L264.621 106.388L267.18 106.193L267.754 131.375L265.474 131.548Z" fill="#434141"/>
<path d="M294.3 75.2737C281.182 54.2387 267.416 43.7168 285.503 32.9812C288.056 35.288 289.334 37.0269 285.085 41.2194C281.847 46.971 284.642 49.8452 291.991 59.3664C303.644 72.9864 306.148 79.6457 298.933 88.6913L293.775 82.1431C295.026 80.9339 295.114 79.3915 294.3 75.2737Z" fill="#FF6AB2"/>
<path d="M286.008 75.8484C290.06 80.6713 292.271 83.1607 294.524 81.701L299.159 88.0134C296.223 92.0488 289.105 93.9541 281.211 95.3245C276.338 97.4019 272.714 99.0769 268.774 100.84L268.047 102.272L262.652 102.682C252.307 103.801 246.46 103.535 235.901 100.472L222.441 101.494L236.455 88.2581C250.036 73.8156 257.368 73.5778 270.539 70.5238C279.137 70.5562 282.065 72.0894 286.008 75.8484Z" fill="#FF6AB2"/>
<path d="M280.751 80.8737C276.864 86.5334 274.361 89.0483 268.148 89.9821L273.248 91.5226L269.076 91.8393L262.3 94.612L270.532 93.987L268.619 96.0048L261.624 95.9852L258.933 97.3462L267.901 97.5465L267.118 98.9828L257.393 99.1154L255.595 97.5996L246.884 97.1044C243.538 96.4815 242.468 96.845 240.654 97.5774L244.985 99.2865L243.141 101.464C249.921 103.373 254.207 103.488 262.177 103.048L267.406 102.651L268.98 100.604C277.883 95.9728 280.838 95.1634 286.654 94.0847C289.855 93.6437 294.289 92.7496 299.095 88.6237L298.863 85.6671L300.866 85.5151C301.686 82.9134 301.702 81.794 301.601 79.8965L298.383 79.5349C298.92 83.3377 298.296 85.1935 293.918 87.5297C291.178 88.3156 290.125 87.0294 288.397 84.2036C284.743 77.0635 282.291 74.9053 277.254 74.0893L280.751 80.8737Z" fill="#FF1988"/>
<path d="M284.226 43.1022C278.111 47.1307 308.322 74.9801 300.164 82.9799C292.343 67.436 283.547 58.6627 280.698 52.3477C275.43 40.6721 280.416 40.2126 281.375 38.8573L286.339 42.2257L284.226 43.1022Z" fill="#FF1988"/>
<path d="M290.678 45.4763C292.602 46.1193 293.314 46.587 294.251 47.5183C296.341 45.4709 296.947 43.8055 296.65 39.5702C294.895 33.5899 288.698 30.921 285.083 33.3435C283.073 36.4706 283.168 38.4583 284.606 42.2472C286.733 43.4325 288.019 44.126 290.678 45.4763Z" fill="#FF6AB2"/>
<path d="M281.609 36.1409C284.023 32.9408 287.539 33.1322 290.312 35.0945L290.557 38.2154L288.975 43.7331L285.376 42.0786C281.481 41.3309 280.745 39.9734 281.609 36.1409Z" fill="#FF6AB2"/>
<path d="M291.629 45.4594C292.252 45.9264 292.672 45.9702 293.592 45.5306L296.565 39.9073C293.515 37.2307 291.496 34.845 288.832 34.7663C287.91 35.3244 287.929 35.6887 288.174 36.3585L289.663 37.5122C289.32 38.1111 289.362 38.5342 289.813 39.4285C288.412 39.7981 287.791 39.43 286.728 38.6163C286.004 39.5864 285.771 40.1438 285.753 41.1688L288.359 43.7248C288.981 44.161 289.324 44.3215 289.913 44.2678L290.139 43.5897L291.085 43.5179C291.049 44.3874 291.103 44.8419 291.629 45.4594Z" fill="#FF1988"/>
<path d="M293.185 45.3411C293.685 45.7863 293.705 46.2175 293.708 47.0088L295.775 49.826L296.105 51.8939C296.619 53.8037 296.738 55.1019 296.577 57.9166C296.758 58.6328 296.879 58.8491 297.146 58.7547L297.176 59.1379C299.25 58.0842 300.152 55.9995 301.401 50.225C301.504 49.391 301.585 48.9993 301.807 48.2664C301.597 46.2996 300.944 45.2433 299.586 43.4782C298.169 41.7312 297.382 40.8873 296.654 39.625L294.472 39.6255C293.721 39.308 293.367 39.1294 292.897 38.8087C292.502 37.8049 292.008 37.7566 291.031 37.8488C290.545 38.4949 290.596 38.8826 291.451 39.6345C292.345 40.6281 292.715 41.2521 292.646 42.7383C293.22 43.7326 293.249 44.3079 293.185 45.3411Z" fill="#EAD6CF"/>
<path d="M295.946 49.8682C295.903 50.4711 295.929 50.898 296.105 51.894L299.498 51.6364L299.579 48.3807C298.154 46.0092 297.245 45.1051 295.359 44.5152C295.395 45.4788 295.434 46.0529 295.766 47.5686L295.266 47.6066C295.449 48.8762 295.616 49.2844 295.946 49.8682Z" fill="#EFA788"/>
<path d="M296.287 40.6446C295.819 42.2565 295.547 42.9245 295.017 42.9992C298.815 45.3154 297.359 55.827 297.168 59.0287C299.592 55.8144 300.352 53.2198 301.599 48.4478C300.677 44.5971 298.994 43.2958 296.287 40.6446Z" fill="#EFA788"/>
<path d="M299.514 48.2755C299.123 49.8793 298.205 50.5797 296.096 51.7846C296.552 53.9343 296.572 54.9981 296.495 56.1605C296.505 57.4594 296.406 58.5907 297.095 58.8138C299.417 55.6082 302.498 47.8036 297.575 44.9529C295.641 43.8329 294.61 43.0501 294.237 43.0583L294.19 43.172C295.401 43.6308 298.589 45.7084 299.514 48.2755Z" fill="#272D26"/>
<path d="M296.681 42.8174C297.49 43.4609 297.936 43.8322 298.666 44.5944L298.508 44.7165C297.596 44.0337 297.203 43.6033 296.514 42.8301L296.681 42.8174Z" fill="#272D26"/>
<path d="M297.176 59.1382L297.15 58.8097C298.626 56.9352 300.286 52.9275 300.34 49.5348L300.186 47.5637L301.478 48.3469L301.799 48.1573C301.199 52.6226 300.672 53.66 299.695 56.3032C298.673 58.4281 298.048 58.8839 297.176 59.1382Z" fill="#272D26"/>
<path d="M292.442 38.3472C292.558 38.5409 292.615 38.7751 292.633 38.9866C292.612 39.0817 292.573 39.1499 292.521 39.201C292.467 39.254 292.394 39.2917 292.303 39.3193C292.147 39.3668 291.947 39.3809 291.712 39.3977C291.671 39.4006 291.629 39.4036 291.586 39.4068C291.077 39.3018 290.842 38.8956 290.807 38.4835C290.851 38.2732 290.904 38.14 291.042 38.0565C291.187 37.9687 291.437 37.9289 291.898 37.9493C292.152 38.0012 292.326 38.1534 292.442 38.3472Z" fill="#C9B7A1" stroke="#7F7552" stroke-width="0.109829"/>
<path d="M292.326 38.647C292.332 38.7653 292.302 38.8688 292.222 38.9484C292.137 39.0327 291.99 39.098 291.746 39.1164C291.566 39.1301 291.439 39.1126 291.34 39.054C291.245 38.997 291.167 38.8956 291.1 38.7205C291.112 38.5167 291.172 38.4096 291.261 38.3468C291.355 38.2794 291.493 38.2544 291.678 38.2404C291.849 38.2274 291.965 38.2691 292.061 38.3419C292.157 38.4149 292.234 38.5203 292.326 38.647Z" fill="white" stroke="#7F7552" stroke-width="0.109829"/>
<ellipse rx="0.22313" ry="0.164758" transform="matrix(0.99713 -0.0757102 0.0781221 0.996944 291.823 38.6698)" fill="black"/>
<path d="M289.12 67.2994C289.028 67.3379 288.976 67.3687 288.855 67.4605C288.68 67.5941 288.504 67.792 288.428 67.9382C288.387 68.0194 288.288 68.3656 288.251 68.5646C288.211 68.7767 288.2 68.9952 288.215 69.2385C288.22 69.3026 288.268 69.5422 288.391 70.109C288.485 70.5395 288.574 70.9529 288.59 71.0273C288.612 71.1305 288.63 71.1866 288.666 71.2671C288.721 71.3919 288.832 71.5794 288.927 71.7114C288.987 71.7942 289 71.8178 289.015 71.8807C289.073 72.1192 289.326 72.6354 289.474 72.8162C289.722 73.1192 289.939 73.276 290.133 73.2924C290.387 73.3143 290.708 73.176 291.259 72.8052C291.379 72.7254 291.558 72.6045 291.657 72.5384C291.755 72.4713 291.89 72.3862 291.954 72.3483C292.091 72.2701 292.174 72.2064 292.379 72.0223C292.556 71.8652 292.984 71.4554 293.137 71.2981C293.196 71.2362 293.271 71.1648 293.303 71.1402C293.441 71.0302 294.161 70.5396 294.197 70.5321C294.201 70.5312 294.208 70.5382 294.213 70.5485C294.217 70.5581 294.235 70.5659 294.252 70.5665C294.269 70.5671 294.307 70.579 294.338 70.5925C294.484 70.6571 294.625 70.6596 295.014 70.6056C295.138 70.5887 295.286 70.5722 295.34 70.57C295.419 70.5669 295.508 70.5523 295.76 70.499C296.049 70.4377 296.091 70.4267 296.206 70.3803C296.275 70.352 296.358 70.3155 296.389 70.2974C296.505 70.2331 296.6 70.1121 296.646 69.9692L296.67 69.8948L296.816 69.9741C297.185 70.174 297.487 70.2895 297.63 70.2864C297.662 70.2859 297.714 70.2854 297.747 70.2848C297.83 70.2828 297.973 70.3219 298.379 70.4594C298.575 70.5249 298.796 70.5947 298.871 70.6144C298.988 70.6442 299.019 70.6472 299.089 70.6396C299.134 70.6353 299.192 70.6335 299.217 70.6376C299.286 70.6461 299.501 70.7033 299.779 70.7862C300.278 70.9355 300.67 71.0235 300.863 71.0289C301.126 71.0372 301.284 70.9858 301.372 70.8633C301.434 70.7789 301.452 70.6869 301.46 70.4153C301.469 70.1301 301.464 69.9948 301.417 69.3383C301.379 68.8142 301.378 68.7997 301.313 68.4157C301.253 68.0623 301.261 68.1205 301.22 67.6589C301.184 67.2488 301.179 67.1429 301.182 66.8609C301.184 66.6128 301.169 66.4784 301.116 66.2747C301.034 65.9625 300.906 65.6717 300.791 65.5343C300.753 65.4889 300.649 65.4228 300.568 65.3937C300.527 65.3792 300.384 65.3393 300.25 65.3057C300.001 65.243 299.934 65.2226 299.859 65.186L299.817 65.1666L299.654 65.2159C299.057 65.3957 298.57 65.5924 298.327 65.7519C298.108 65.8948 297.833 66.1242 297.423 66.506C296.98 66.9178 296.784 67.0749 296.413 67.316C296.263 67.414 296.12 67.5082 296.096 67.526L296.053 67.5572L296.027 67.5406C295.978 67.5099 295.892 67.4851 295.807 67.4771C295.633 67.4613 295.555 67.4706 295.094 67.5672C294.859 67.6158 294.621 67.6611 294.564 67.6689C294.354 67.6957 294.077 67.811 293.913 67.9401C293.839 67.9978 293.759 68.0872 293.732 68.139L293.71 68.1826L293.585 68.1408C293.409 68.0815 293.136 68.0062 292.794 67.9231C292.432 67.8342 292.24 67.7803 291.712 67.6161C290.669 67.2915 290.373 67.2333 289.814 67.2427C289.595 67.2461 289.23 67.2603 289.209 67.2658C289.198 67.2682 289.158 67.284 289.12 67.2994Z" fill="black"/>
<path fill-rule="evenodd" clip-rule="evenodd" d="M288.292 28.0476C287.492 26.7154 287.3 25.4477 286.828 24.0394C286.082 21.8154 274.02 27.5773 275.348 29.3265L277.291 31.887C277.291 31.887 278.431 33.7326 278.422 33.742C277.605 34.6492 276.577 34.7921 276.159 36.4364C275.639 38.4842 282.7 39.7619 284.944 38.7749C287.462 37.6673 291.584 36.3479 293.88 32.1783C294.645 30.7891 292.607 26.7002 288.292 28.0478L288.292 28.0476Z" fill="#00006C"/>
<path fill-rule="evenodd" clip-rule="evenodd" d="M288.292 28.0478C287.491 26.7157 287.299 25.4479 286.827 24.0397C286.081 21.8157 274.019 27.5776 275.347 29.3268L277.291 31.8873C277.291 31.8873 278.43 33.7329 278.422 33.7422C277.604 34.6495 276.576 34.7923 276.158 36.4366C275.638 38.4845 282.515 39.1557 284.944 38.7752C287.638 38.3531 291.938 36.8754 293.879 32.1786C294.485 30.7142 292.607 26.7004 288.292 28.0481L288.292 28.0478Z" fill="#000050"/>
<path d="M290.293 39.4913C286.909 40.1905 285.705 39.6403 283.93 38.1532" stroke="#F5BF00" stroke-width="0.279214"/>
<path fill-rule="evenodd" clip-rule="evenodd" d="M288.292 28.0475C287.491 26.7153 287.299 25.4476 286.827 24.0393C286.081 21.8153 274.019 27.5772 275.347 29.3264L277.291 31.8869C277.291 31.8869 278.43 33.7325 278.422 33.7419C277.604 34.6491 276.576 34.792 276.158 36.4362C275.638 38.4841 282.534 39.2578 284.944 38.7748C287.815 38.1992 291.966 36.9087 293.879 32.1782C294.474 30.7093 292.607 26.7001 288.292 28.0477L288.292 28.0475Z" fill="#000003"/>
<path opacity="0.27755" fill-rule="evenodd" clip-rule="evenodd" d="M275.246 29.1874C276.76 31.3593 278.579 33.249 279.273 36.1808C279.558 37.3877 282.084 37.3509 286.243 36.2255C288.457 35.6266 291.249 32.7296 290.383 31.5205C289.738 30.6199 288.59 28.9574 288.054 27.6511C287.293 26.1062 286.587 23.5581 286.587 23.5581C287.458 25.2126 277.304 30.8601 275.246 29.1875L275.246 29.1874Z" fill="#00002C"/>
<path fill-rule="evenodd" clip-rule="evenodd" d="M284.111 23.6356L283.534 23.8319C282.997 24.0145 281.68 24.3208 280.7 24.8582L277.966 26.356C277.452 26.638 274.683 28.6909 275.193 29.2931C276.702 31.077 287.546 25.7536 286.484 23.5993C285.929 23.1171 285.004 23.5286 284.111 23.6357L284.111 23.6356Z" fill="#000078"/>
<path fill-rule="evenodd" clip-rule="evenodd" d="M284.111 23.6356L283.534 23.8319C282.997 24.0145 281.68 24.3208 280.7 24.8582L277.966 26.356C277.452 26.638 274.683 28.6909 275.193 29.2931C276.702 31.077 287.546 25.7536 286.484 23.5993C285.929 23.1171 285.004 23.5286 284.111 23.6357L284.111 23.6356Z" fill="black"/>
<g opacity="0.4" filter="url(#filter0_f)">
<path fill-rule="evenodd" clip-rule="evenodd" d="M286.401 23.5398C286.474 23.5735 286.542 23.6166 286.606 23.6721C287.647 25.7838 277.253 30.9397 275.416 29.4655C277.669 30.5278 287.435 25.6092 286.424 23.5593C286.417 23.5525 286.409 23.5463 286.401 23.5399L286.401 23.5398Z" fill="#A4E8FC"/>
</g>
<g opacity="0.27347" filter="url(#filter1_f)">
<path fill-rule="evenodd" clip-rule="evenodd" d="M277.557 29.5852L281.145 36.2493L283.384 35.7457C283.396 35.7429 279.223 29.2873 279.223 29.2873C279.045 28.7517 277.557 29.5854 277.557 29.5854L277.557 29.5852Z" fill="#8CE4FC"/>
</g>
<path fill-rule="evenodd" clip-rule="evenodd" d="M279.377 29.1441C278.593 29.8321 282.973 35.8357 282.973 35.8357C282.161 36.6595 287.965 34.527 287.885 33.9123C287.375 34.5243 283.648 27.2423 284.132 26.9997C284.129 26.9874 279.377 29.144 279.377 29.144L279.377 29.1441Z" fill="black"/>
<g opacity="0.26939" filter="url(#filter2_f)">
<path fill-rule="evenodd" clip-rule="evenodd" d="M284.044 26.6852C284.968 29.1651 286.144 31.405 287.632 33.349L289.87 32.8454C289.224 33.4188 284.845 26.6649 285.445 26.1399C285.267 25.6044 284.044 26.6852 284.044 26.6852L284.044 26.6852Z" fill="#84E0FC"/>
</g>
<path fill-rule="evenodd" clip-rule="evenodd" d="M285.182 25.9953C285.002 26.2927 288.876 32.7412 289.215 32.5821C289.041 32.941 290.186 31.3152 290.186 31.3152C287.998 28.1933 287.563 26.3656 286.749 23.8528C286.614 24.8442 285.879 25.4061 285.182 25.9953L285.182 25.9953Z" fill="black"/>
<path fill-rule="evenodd" clip-rule="evenodd" d="M275.538 29.6091C275.954 30.3338 277.694 32.8348 277.694 32.8348C278.126 33.5689 279.326 35.9575 279.326 35.9575C279.867 35.7846 280.854 35.961 280.848 35.9499L277.497 29.6797C277.494 29.6675 275.538 29.6091 275.538 29.6091L275.538 29.6091Z" fill="black"/>
<path fill-rule="evenodd" clip-rule="evenodd" d="M294.067 30.8817C292.893 27.8094 290.686 27.5314 288.259 27.8489C288.078 27.9422 290.349 31.7947 290.708 32.0863C290.907 32.134 289.448 34.1818 289.145 34.127C288.253 34.6858 293.995 31.3563 293.995 31.3563C293.676 31.9783 294.212 31.2613 294.067 30.8818L294.067 30.8817Z" fill="url(#paint0_linear)"/>
<path fill-rule="evenodd" clip-rule="evenodd" d="M279.709 36.7484C279.709 36.7484 279.274 36.239 279.349 35.7906C284.436 36.7447 289.346 32.589 290.264 31.2423C290.105 31.5104 290.674 32.0639 290.674 32.0639C292.145 33.9502 281.316 38.2926 279.709 36.7484L279.709 36.7484Z" fill="#0000FF"/>
<path opacity="0.50204" fill-rule="evenodd" clip-rule="evenodd" d="M276.805 35.3841C276.7 35.5918 276.608 35.8325 276.535 36.1198C276.014 38.169 283.065 39.4158 285.323 38.4596L285.396 38.4296L285.408 38.4806C285.195 38.5613 284.991 38.6412 284.799 38.7226C282.54 39.6786 275.604 38.5856 276.139 36.3793C276.228 36.0117 276.35 35.6965 276.494 35.4539L276.805 35.3841Z" fill="black"/>
<g opacity="0.45714" filter="url(#filter3_f)">
<path fill-rule="evenodd" clip-rule="evenodd" d="M276.62 35.4771C276.61 35.4964 276.601 35.5165 276.592 35.5364L276.152 35.6353C276.164 35.6149 276.175 35.5944 276.186 35.5747L276.62 35.4771ZM279.078 38.3512C281.168 38.9348 283.887 39.0815 285.138 38.5522L285.21 38.5222L285.222 38.5732C285.01 38.6538 284.805 38.7338 284.613 38.8152C283.484 39.2931 281.157 39.2199 279.177 38.7718L279.078 38.3512L279.078 38.3512Z" fill="#E4F4FC"/>
</g>
<g opacity="0.43673" filter="url(#filter4_f)">
<path fill-rule="evenodd" clip-rule="evenodd" d="M282.516 37.0233C283.548 36.4061 284.61 37.6563 282.643 38.6644C282.552 39.1595 283.765 38.4631 283.765 38.4631C283.945 38.7305 288.332 34.945 288.332 34.945C288.329 34.9327 282.516 37.0233 282.516 37.0233L282.516 37.0233Z" fill="#00A0F0"/>
</g>
<g opacity="0.22449" filter="url(#filter5_f)">
<path fill-rule="evenodd" clip-rule="evenodd" d="M288.069 28.0273C288.056 28.0301 290.048 31.4958 290.048 31.4958L290.248 31.3485C289.012 29.4729 288.78 28.9044 288.148 27.8049C287.934 27.9936 288.069 28.0273 288.069 28.0273L288.069 28.0273Z" fill="white"/>
</g>
<path fill-rule="evenodd" clip-rule="evenodd" d="M282.228 35.6836L281.561 35.8221C281.421 35.8513 281.295 35.9187 281.212 36.0093C281.13 36.0999 281.097 36.2064 281.121 36.3053L281.271 36.9268C281.295 37.0257 281.374 37.1089 281.491 37.1581C281.607 37.2074 281.752 37.2186 281.893 37.1893L282.559 37.0508C282.7 37.0216 282.826 36.9542 282.908 36.8636C282.991 36.773 283.024 36.6665 283 36.5676L282.849 35.9461C282.825 35.8472 282.746 35.764 282.63 35.7148C282.513 35.6655 282.369 35.6543 282.228 35.6836Z" fill="#FF00C7"/>
<path d="M290.225 38.6553C290.299 39.5983 291.009 40.276 291.772 40.2181C292.535 40.1601 293.131 39.3832 293.057 38.4402C292.983 37.4972 292.273 36.8195 291.51 36.8774C290.747 36.9353 290.151 37.7122 290.225 38.6553Z" fill="url(#paint1_radial)" stroke="#F5BF00" stroke-width="0.279214"/>
<g opacity="0.1">
<path opacity="0.1" d="M277.783 52.8383C279.501 50.1154 283.329 51.9527 283.958 52.2758L284.892 52.1113C285.645 51.1684 287.981 48.6362 290.483 50.1781L290.591 50.2455L290.992 53.5384L290.896 53.6249C290.253 54.1964 289.508 54.646 288.699 54.9511C288.187 55.1426 287.636 55.2116 287.091 55.1524C286.687 55.0924 286.301 54.9456 285.96 54.7226C285.62 54.4996 285.333 54.2058 285.121 53.8618L284.632 53.9313L284.263 53.8909C284.22 54.277 284.094 54.6498 283.893 54.9841C283.693 55.3185 283.422 55.6069 283.099 55.83C281.544 56.859 279.099 56.1337 278.999 56.1233L278.872 56.0861L277.749 52.9561L277.783 52.8383ZM279.244 55.651C279.74 55.7754 281.607 56.1665 282.778 55.3827C283.069 55.1712 283.306 54.8969 283.471 54.581C283.637 54.265 283.726 53.9158 283.733 53.5603L283.756 53.2957L284.565 53.3963L285.363 53.3069L285.451 53.4515C285.622 53.7655 285.864 54.0367 286.159 54.244C286.454 54.4514 286.793 54.5894 287.15 54.6474C288.544 54.8333 290.047 53.6678 290.438 53.3392L290.1 50.5565C287.935 49.3491 285.839 51.7333 285.241 52.506L285.178 52.5864L283.861 52.8161L283.777 52.7685C283.739 52.7497 280.27 50.8204 278.527 52.717C278.441 52.8091 278.362 52.9078 278.291 53.0122L279.244 55.651Z" fill="black"/>
<path opacity="0.1" d="M271.957 54.9516L278.099 53.9775L278.601 53.8422L278.305 53.0149C278.376 52.9106 278.455 52.8119 278.542 52.7197L277.799 52.8482L272.779 53.719L271.957 54.9516Z" fill="black"/>
</g>
<path d="M317.077 89.2126L425.034 81.0156L428.393 123.884L320.436 132.081L317.077 89.2126Z" fill="#6F7D95"/>
<path d="M381.185 155.712C364.547 156.975 349.921 143.469 348.516 125.546C347.112 107.623 359.461 92.0687 376.099 90.8054C392.737 89.5422 407.363 103.048 408.768 120.971C410.172 138.895 397.823 154.448 381.185 155.712Z" fill="#4B5C7A"/>
<path opacity="0.05" d="M381.185 155.712C364.547 156.975 349.921 143.469 348.516 125.546C347.112 107.623 359.461 92.0687 376.099 90.8054C392.737 89.5422 407.363 103.048 408.768 120.971C410.172 138.895 397.823 154.448 381.185 155.712Z" fill="black"/>
<path d="M374.491 156.22C357.853 157.483 343.227 143.978 341.822 126.054C340.418 108.131 352.767 92.577 369.405 91.3137C386.043 90.0505 400.669 103.556 402.073 121.48C403.478 139.403 391.129 154.957 374.491 156.22Z" fill="#4B5C7A"/>
<path opacity="0.05" d="M373.662 137.059C366.268 137.621 359.812 132.175 359.241 124.897C358.671 117.619 364.203 111.263 371.597 110.702C378.991 110.14 385.448 115.585 386.018 122.864C386.588 130.142 381.057 136.498 373.662 137.059Z" fill="black"/>
<path d="M372.94 127.835C370.721 128.004 368.783 126.37 368.612 124.185C368.441 122.001 370.101 120.094 372.32 119.925C374.539 119.757 376.477 121.391 376.648 123.575C376.819 125.76 375.159 127.667 372.94 127.835Z" stroke="#6F7D95" stroke-width="0.717978" stroke-miterlimit="10"/>
<path d="M372.165 117.95C371.611 117.992 371.127 117.584 371.084 117.038C371.041 116.493 371.456 116.016 372.01 115.974C372.564 115.932 373.048 116.34 373.091 116.886C373.134 117.431 372.719 117.908 372.165 117.95Z" fill="#6F7D95"/>
<path d="M366.16 120.092C365.708 119.774 365.604 119.155 365.928 118.71C366.251 118.265 366.88 118.162 367.332 118.481C367.784 118.799 367.888 119.418 367.565 119.863C367.241 120.308 366.612 120.41 366.16 120.092Z" fill="#6F7D95"/>
<path d="M364.139 125.058C364 124.528 364.325 123.988 364.863 123.852C365.401 123.716 365.95 124.035 366.088 124.565C366.227 125.095 365.902 125.635 365.364 125.771C364.826 125.907 364.277 125.588 364.139 125.058Z" fill="#6F7D95"/>
<path d="M367.939 130.485C367.438 130.248 367.226 129.657 367.466 129.163C367.706 128.67 368.308 128.461 368.809 128.698C369.31 128.934 369.522 129.526 369.282 130.019C369.042 130.513 368.441 130.721 367.939 130.485Z" fill="#6F7D95"/>
<path d="M373.266 130.618C373.036 130.12 373.26 129.533 373.766 129.307C374.272 129.081 374.869 129.301 375.099 129.799C375.328 130.298 375.104 130.885 374.598 131.111C374.092 131.337 373.495 131.117 373.266 130.618Z" fill="#6F7D95"/>
<path d="M378.127 127.181C377.592 127.033 377.279 126.487 377.428 125.96C377.578 125.433 378.133 125.125 378.668 125.272C379.204 125.419 379.517 125.965 379.367 126.492C379.218 127.02 378.663 127.328 378.127 127.181Z" fill="#6F7D95"/>
<path d="M377.176 121.044C376.861 120.593 376.979 119.976 377.437 119.667C377.896 119.358 378.522 119.473 378.836 119.924C379.151 120.376 379.033 120.992 378.575 121.302C378.116 121.611 377.49 121.496 377.176 121.044Z" fill="#6F7D95"/>
<path d="M153.518 115.122C155.095 122.038 158.557 129.477 158.557 129.477C158.5 129.001 158.451 128.531 158.41 128.066C158.363 127.464 158.316 126.87 158.27 126.276C157.122 106.971 166.863 94.2663 173.3 88.0491C174.971 86.4126 176.79 84.9295 178.735 83.6182L160.027 85.0386C160.027 85.0386 153.827 100.391 152.86 107.751C152.576 109.818 152.905 112.432 153.518 115.122Z" fill="#FF1988"/>
<path d="M187.398 138.01C174.745 138.97 163.621 128.698 162.553 115.067C161.484 101.435 170.876 89.6052 183.53 88.6444C196.184 87.6836 207.307 97.9555 208.376 111.587C209.444 125.219 200.052 137.049 187.398 138.01Z" fill="#4B5C7A"/>
<path opacity="0.05" d="M187.398 138.01C174.745 138.97 163.621 128.698 162.553 115.067C161.484 101.435 170.876 89.6052 183.53 88.6444C196.184 87.6836 207.307 97.9555 208.376 111.587C209.444 125.219 200.052 137.049 187.398 138.01Z" fill="black"/>
<path d="M182.307 138.396C169.654 139.357 158.53 129.085 157.462 115.453C156.394 101.822 165.785 89.9919 178.439 89.0311C191.093 88.0704 202.217 98.3423 203.285 111.974C204.353 125.606 194.961 137.436 182.307 138.396Z" fill="#4B5C7A"/>
<path opacity="0.05" d="M181.677 123.822C176.055 124.249 171.145 120.108 170.711 114.573C170.277 109.038 174.484 104.205 180.107 103.778C185.73 103.351 190.64 107.492 191.073 113.027C191.507 118.562 187.3 123.395 181.677 123.822Z" fill="black"/>
<path d="M181.128 116.807C179.441 116.935 177.968 115.692 177.838 114.032C177.708 112.371 178.97 110.922 180.657 110.793C182.343 110.665 183.816 111.908 183.947 113.568C184.077 115.229 182.815 116.678 181.128 116.807Z" stroke="#6F7D95" stroke-width="0.717978" stroke-miterlimit="10"/>
<path d="M180.539 109.29C180.117 109.322 179.749 109.012 179.716 108.597C179.684 108.181 179.999 107.819 180.421 107.787C180.843 107.755 181.211 108.066 181.243 108.481C181.276 108.896 180.961 109.258 180.539 109.29Z" fill="#6F7D95"/>
<path d="M175.969 110.919C175.625 110.677 175.546 110.206 175.792 109.867C176.038 109.529 176.517 109.451 176.861 109.693C177.205 109.935 177.284 110.406 177.038 110.745C176.792 111.083 176.313 111.162 175.969 110.919Z" fill="#6F7D95"/>
<path d="M174.434 114.699C174.329 114.296 174.576 113.885 174.985 113.781C175.395 113.677 175.813 113.92 175.918 114.324C176.023 114.727 175.776 115.138 175.367 115.241C174.957 115.345 174.54 115.102 174.434 114.699Z" fill="#6F7D95"/>
<path d="M177.323 118.826C176.941 118.646 176.78 118.196 176.963 117.82C177.145 117.445 177.603 117.286 177.984 117.466C178.366 117.646 178.527 118.096 178.344 118.471C178.161 118.847 177.704 119.006 177.323 118.826Z" fill="#6F7D95"/>
<path d="M181.374 118.926C181.199 118.547 181.369 118.1 181.755 117.928C182.14 117.756 182.594 117.924 182.768 118.303C182.943 118.682 182.773 119.129 182.388 119.301C182.002 119.473 181.548 119.305 181.374 118.926Z" fill="#6F7D95"/>
<path d="M185.072 116.308C184.665 116.196 184.427 115.78 184.54 115.379C184.654 114.978 185.077 114.744 185.484 114.856C185.891 114.967 186.13 115.383 186.016 115.784C185.902 116.185 185.48 116.42 185.072 116.308Z" fill="#6F7D95"/>
<path d="M184.345 111.643C184.105 111.299 184.195 110.83 184.544 110.595C184.893 110.359 185.369 110.447 185.608 110.791C185.847 111.134 185.758 111.603 185.409 111.839C185.06 112.074 184.584 111.986 184.345 111.643Z" fill="#6F7D95"/>
<path d="M500.842 117.321L501.933 95.6748L469.116 98.1665L453.407 114.24L463.177 132.632C463.177 132.632 496.157 124.662 500.842 117.321Z" fill="#FF1988"/>
<path d="M311.211 43.9526L311.755 50.8963C311.755 50.8963 329.78 63.2098 334.822 75.735C335.69 77.7652 336.128 79.9481 336.111 82.1505C335.688 96.4552 379.369 67.3226 379.369 67.3226L377.26 66.5034C366.365 62.3151 316.648 43.2661 311.211 43.9526Z" fill="#97CFED"/>
<path d="M275.192 80.3991C275.192 80.3991 258.707 73.924 255.713 68.4337C255.311 67.6972 254.927 66.9523 254.491 66.2329C252.672 63.2349 248.79 56.1737 250.18 52.536C251.971 47.8454 245.013 53.5368 245.013 53.5368L250.987 74.6398L261.864 79.5748L275.501 80.3757" fill="#97CFED"/>
<path opacity="0.05" d="M453.396 114.241L463.166 132.633C463.166 132.633 496.157 124.662 500.842 117.321L500.888 116.378C500.747 116.299 500.598 116.217 500.442 116.138C500.442 116.138 490.937 124.756 468.073 128.318C468.073 128.318 453.404 118.497 474.864 104.722C474.864 104.722 494.401 103.844 501.892 96.3657L501.973 96.2875L501.902 96.1669C501.84 96.0684 501.742 95.915 501.606 95.7069L469.109 98.1743L453.396 114.241Z" fill="black"/>
<path opacity="0.05" d="M336.111 82.147C335.688 96.4553 379.369 67.3227 379.369 67.3227L377.26 66.5035C376.025 68.0158 371.028 73.1805 360.25 73.4803C353.315 73.672 342.848 74.7728 334.803 75.7329C335.677 77.7613 336.122 79.9438 336.111 82.147Z" fill="black"/>
<path opacity="0.05" d="M317.073 89.2127L320.432 132.081L340.489 130.559C338.384 120.687 338.009 106.094 350.22 96.7846C354.777 93.333 360.213 91.1874 365.929 90.5843C371.646 89.9813 377.421 90.9442 382.617 93.367C391.42 97.4657 401.604 106.385 409.118 125.348L428.39 123.884L425.03 81.0156L317.073 89.2127Z" fill="black"/>
<path d="M158.691 129.309C158.319 128.296 145.032 91.7729 171.81 87.9429C198.965 84.0592 203.924 104.029 209.143 131.271C209.143 131.271 295.817 131.067 343.175 140.836C343.175 140.836 329.705 111.686 349.579 96.5311C354.136 93.0795 359.572 90.9339 365.288 90.3308C371.005 89.7278 376.78 90.6908 381.976 93.1135C392.757 98.135 405.617 110.401 413.1 139.473L464.632 135.56C464.632 135.56 474.497 135.42 477.512 130.622C477.512 130.622 491.353 129.873 499.356 121.978C499.356 121.978 508.413 119.469 500.699 115.5C500.699 115.5 490.885 124.141 468.025 127.702C468.025 127.702 453.356 117.881 474.816 104.107C474.816 104.107 494.499 103.221 501.921 95.6721C501.921 95.6721 498.679 90.1898 491.758 83.7842C482.289 74.996 470.619 68.8407 457.941 65.9475C449.402 64.0428 440.612 63.4685 431.892 64.2456L377.63 66.695C377.63 66.695 372.922 73.7351 360.315 74.0838C347.709 74.4325 323.276 77.8071 323.276 77.8071L323.032 77.8256L272.342 79.4096C270.876 79.3182 269.418 79.1281 267.978 78.8409C260.501 77.439 246.145 72.5557 247.351 55.7828L168.294 66.6462C165.311 67.0089 162.369 67.6482 159.508 68.5555C155.509 69.8961 151.926 72.0621 153.243 75.3826C155.933 82.1634 150.178 83.5113 150.178 83.5113C150.178 83.5113 150.127 84.4477 150.101 86.07C149.969 93.7204 150.329 116.665 158.691 129.309Z" fill="#FF6AB2"/>
<path opacity="0.05" d="M399.007 77.6772C399.007 77.6772 432.156 75.4627 455.428 92.8363L443.159 93.7678C443.159 93.7678 408.122 87.6212 399.299 81.306L399.007 77.6772Z" fill="black"/>
<path d="M399.292 77.3496C399.292 77.3496 432.441 75.1351 455.713 92.5087L443.444 93.4402C443.444 93.4402 408.408 87.2935 399.584 80.9784L399.292 77.3496Z" fill="#FFEC9F"/>
<path opacity="0.05" d="M457.659 66.2748L458.295 74.389L487.193 84.9516L491.472 84.1118C482.004 75.324 470.336 69.1686 457.659 66.2748Z" fill="black"/>
<path d="M457.945 65.9509L458.58 74.065L487.481 84.6238L491.761 83.784C482.292 74.9971 470.622 68.843 457.945 65.9509Z" fill="#FFEC9F"/>
<path opacity="0.05" d="M421.262 105.75C421.262 105.75 437 113.664 440.097 133.484L431.508 134.136C431.508 134.136 426.431 112.656 416.048 106.146L421.262 105.75Z" fill="black"/>
<path opacity="0.05" d="M243.727 119.838L322.341 122.978C322.341 122.978 324.964 90.3022 323.027 77.8149L272.337 79.3989C270.872 79.3107 269.416 79.1242 267.977 78.8406L268.212 81.8365L229.471 75.6685C229.471 75.6685 223.761 85.514 243.727 119.838Z" fill="black"/>
<path d="M246.661 47.0279C246.661 47.0279 229.933 46.1738 223.662 60.6201L247.277 57.9233L246.661 47.0279Z" fill="#97CFED"/>
<path opacity="0.05" d="M225.192 65.4009C226.001 67.3594 225.683 69.6051 222.032 71.4198C218.994 72.9322 215.198 71.737 213.877 68.6508C213.107 66.8514 213.372 64.7285 216.621 62.7716C219.869 60.8147 223.779 61.9796 225.192 65.4009Z" fill="black"/>
<path d="M501.694 100.244C501.694 100.244 482.823 111.759 468.417 109.036" stroke="#FF1988" stroke-width="0.358989" stroke-miterlimit="10"/>
<path d="M501.424 105.708C501.424 105.708 489.478 116.315 463.631 116.024" stroke="#FF1988" stroke-width="0.358989" stroke-miterlimit="10"/>
<path d="M501.194 110.295C501.194 110.295 489.438 122.014 463.282 120.569" stroke="#FF1988" stroke-width="0.358989" stroke-miterlimit="10"/>
<path opacity="0.05" d="M224.484 58.9271C224.484 58.9271 235.413 66.8574 245.074 70.0845C245.074 70.0845 231.066 73.6505 224.484 58.9271Z" fill="black"/>
<path opacity="0.1" d="M335.046 76.3156C335.046 76.3156 286.778 84.528 268.048 81.6979C268.048 81.6979 267.116 82.4131 272.771 79.3841L335.046 76.3156Z" fill="black"/>
<path opacity="0.05" d="M150.097 86.0703C152.973 83.8824 157.458 79.4553 156.449 74.9844C155.944 72.7435 157.407 70.5009 159.504 68.5522C155.505 69.8928 151.922 72.0588 153.239 75.3793C155.929 82.1602 150.174 83.508 150.174 83.508C150.174 83.508 150.127 84.4477 150.097 86.0703Z" fill="black"/>
<path opacity="0.1" d="M397.856 95.422C399.159 94.2752 401.647 92.4553 404.082 92.6305L403.525 90.9409C403.525 90.9409 399.727 90.0807 398.507 91.3219C398.06 91.7735 397.857 93.4343 397.856 95.422Z" fill="black"/>
<path opacity="0.1" d="M442.889 67.735C442.889 67.735 434.534 68.9419 432.084 67.4069C435.312 69.4737 439.03 70.6802 442.875 70.9082L442.889 67.735Z" fill="black"/>
<path d="M469.145 157.35C469.254 158.732 469.498 159.844 469.705 159.828C469.912 159.812 469.981 158.68 469.872 157.295C469.764 155.91 469.62 156.594 469.427 156.609C469.235 156.623 469.037 155.972 469.145 157.35Z" fill="#FFD037"/>
<path d="M467.333 159.148C468.617 159.716 469.722 160.046 469.799 159.857C469.875 159.667 468.904 159.079 467.62 158.514C466.335 157.949 466.86 158.391 466.78 158.577C466.699 158.764 466.048 158.579 467.333 159.148Z" fill="#FFD037"/>
<path d="M496.573 155.268C496.681 156.649 496.613 157.785 496.405 157.801C496.198 157.816 495.954 156.708 495.845 155.323C495.737 153.938 495.986 154.592 496.178 154.577C496.371 154.563 496.465 153.89 496.573 155.268Z" fill="#FFD037"/>
<path d="M498.644 156.77C497.463 157.526 496.423 158.019 496.317 157.843C496.212 157.668 497.081 156.939 498.262 156.187C499.443 155.435 498.993 155.952 499.102 156.123C499.21 156.295 499.825 156.014 498.644 156.77Z" fill="#FFD037"/>
<path d="M222.513 53.0576L223.102 60.5741L157.946 71.6422L152.56 65.9302L222.513 53.0576Z" fill="#FF1988"/>
<defs>
<filter id="filter0_f" x="275.143" y="23.2668" width="11.8094" height="6.73318" filterUnits="userSpaceOnUse" color-interpolation-filters="sRGB">
<feFlood flood-opacity="0" result="BackgroundImageFix"/>
<feBlend mode="normal" in="SourceGraphic" in2="BackgroundImageFix" result="shape"/>
<feGaussianBlur stdDeviation="0.136611" result="effect1_foregroundBlur"/>
</filter>
<filter id="filter1_f" x="276.826" y="28.3774" width="7.28789" height="8.60248" filterUnits="userSpaceOnUse" color-interpolation-filters="sRGB">
<feFlood flood-opacity="0" result="BackgroundImageFix"/>
<feBlend mode="normal" in="SourceGraphic" in2="BackgroundImageFix" result="shape"/>
<feGaussianBlur stdDeviation="0.365249" result="effect1_foregroundBlur"/>
</filter>
<filter id="filter2_f" x="283.313" y="25.2607" width="7.28723" height="8.81904" filterUnits="userSpaceOnUse" color-interpolation-filters="sRGB">
<feFlood flood-opacity="0" result="BackgroundImageFix"/>
<feBlend mode="normal" in="SourceGraphic" in2="BackgroundImageFix" result="shape"/>
<feGaussianBlur stdDeviation="0.365249" result="effect1_foregroundBlur"/>
</filter>
<filter id="filter3_f" x="275.892" y="35.2167" width="9.59053" height="4.18575" filterUnits="userSpaceOnUse" color-interpolation-filters="sRGB">
<feFlood flood-opacity="0" result="BackgroundImageFix"/>
<feBlend mode="normal" in="SourceGraphic" in2="BackgroundImageFix" result="shape"/>
<feGaussianBlur stdDeviation="0.130186" result="effect1_foregroundBlur"/>
</filter>
<filter id="filter4_f" x="281.906" y="34.3347" width="7.03642" height="5.11741" filterUnits="userSpaceOnUse" color-interpolation-filters="sRGB">
<feFlood flood-opacity="0" result="BackgroundImageFix"/>
<feBlend mode="normal" in="SourceGraphic" in2="BackgroundImageFix" result="shape"/>
<feGaussianBlur stdDeviation="0.305055" result="effect1_foregroundBlur"/>
</filter>
<filter id="filter5_f" x="287.874" y="27.6515" width="2.52774" height="3.99733" filterUnits="userSpaceOnUse" color-interpolation-filters="sRGB">
<feFlood flood-opacity="0" result="BackgroundImageFix"/>
<feBlend mode="normal" in="SourceGraphic" in2="BackgroundImageFix" result="shape"/>
<feGaussianBlur stdDeviation="0.0765949" result="effect1_foregroundBlur"/>
</filter>
<linearGradient id="paint0_linear" x1="291.706" y1="28.2736" x2="290.596" y2="33.8733" gradientUnits="userSpaceOnUse">
<stop stop-color="#000018"/>
<stop offset="1" stop-color="#000024" stop-opacity="0"/>
</linearGradient>
<radialGradient id="paint1_radial" cx="0" cy="0" r="1" gradientUnits="userSpaceOnUse" gradientTransform="translate(291.641 38.5477) rotate(85.5194) scale(1.81506 1.55995)">
<stop stop-color="#99E4FC" stop-opacity="0"/>
<stop offset="1" stop-color="#99E4FC" stop-opacity="0.79"/>
</radialGradient>
</defs>
</svg>
