<svg width="165" height="139" viewBox="0 0 165 139" fill="none" xmlns="http://www.w3.org/2000/svg">
<path d="M93.905 1.2413C49.902 4.58994 -2.57362 38.6851 0.0979935 73.7917C2.76961 108.898 53.5928 141.579 97.5958 138.231C141.599 134.882 166.928 69.274 164.257 34.1674C161.585 -0.939117 137.908 -2.10733 93.905 1.2413Z" fill="#F2F2F2"/>
<g clip-path="url(#clip0)">
<path d="M156.255 116.164C158.883 125.517 133.593 146.888 89.0976 134.958C53.2728 125.353 21.9399 121.284 21.9399 116.164C21.9399 111.043 52.0075 116.414 89.0976 116.414C126.188 116.414 154.871 111.234 156.255 116.164Z" fill="#3F3D56"/>
<path opacity="0.1" d="M156.255 116.164C158.883 125.517 133.593 146.888 89.0976 134.958C53.2728 125.353 21.9399 121.284 21.9399 116.164C21.9399 111.043 52.0075 116.414 89.0976 116.414C126.188 116.414 154.871 111.234 156.255 116.164Z" fill="black"/>
<path d="M156.255 116.164C158.883 125.517 133.593 137.366 89.0976 125.436C53.2728 115.83 21.9399 121.285 21.9399 116.164C21.9399 111.043 52.0075 106.892 89.0976 106.892C126.188 106.892 154.871 111.234 156.255 116.164Z" fill="#3F3D56"/>
<path opacity="0.1" d="M110.693 122.881C113.561 122.881 115.887 122.076 115.887 121.083C115.887 120.09 113.561 119.285 110.693 119.285C107.824 119.285 105.499 120.09 105.499 121.083C105.499 122.076 107.824 122.881 110.693 122.881Z" fill="black"/>
<path opacity="0.1" d="M131.869 122.881C134.738 122.881 137.063 122.076 137.063 121.083C137.063 120.09 134.738 119.285 131.869 119.285C129 119.285 126.675 120.09 126.675 121.083C126.675 122.076 129 122.881 131.869 122.881Z" fill="black"/>
<path opacity="0.1" d="M89.1164 117.687C98.4948 117.687 106.098 115.63 106.098 113.092C106.098 110.554 98.4948 108.497 89.1164 108.497C79.738 108.497 72.1353 110.554 72.1353 113.092C72.1353 115.63 79.738 117.687 89.1164 117.687Z" fill="black"/>
<path d="M164.233 99.1076V16H14V99.1076H83.3229V110.217C79.8606 110.632 77.5294 111.406 77.5294 112.293C77.5294 113.617 82.7171 114.69 89.1165 114.69C95.5159 114.69 100.704 113.617 100.704 112.293C100.704 111.406 98.3725 110.632 94.9101 110.217V99.1076H164.233Z" fill="#3F3D56"/>
<path d="M156.442 18.9116H21.7915V93.399H156.442V18.9116Z" fill="#F2F2F2"/>
<path opacity="0.1" d="M156.442 18.9966C156.442 18.9966 100.504 24.7901 90.3153 47.1653C80.1267 69.5404 21.7915 93.314 21.7915 93.314H156.442V18.9966Z" fill="black"/>
<path d="M131.319 54.5571V60.0807H110.643V54.8948H110.044V121.083H110.643V109.234H131.319V121.083H131.918V54.5571H131.319ZM131.319 60.68V69.7914H110.643V60.68L131.319 60.68ZM110.643 89.2129V80.1016H131.319V89.2129H110.643ZM131.319 89.8123V98.9236H110.643V89.8123H131.319ZM110.643 79.5023V70.3907H131.319V79.5023H110.643ZM110.643 108.635V99.523H131.319V108.635H110.643Z" fill="#2F2E41"/>
<path d="M104.124 55.8723V56.7002C104.124 56.7002 103.533 56.9368 103.533 57.883C103.533 58.8291 103.06 62.3774 103.06 62.3774C103.06 62.3774 103.887 63.087 104.597 62.8505C104.99 62.7312 105.353 62.5296 105.662 62.2591L105.78 58.5926L105.307 57.6464V55.9906L104.124 55.8723Z" fill="#97CFED"/>
<path d="M126.75 22.9922C126.75 22.9922 124.693 23.2287 124.693 24.1749C124.693 25.1211 123.048 28.6693 123.048 28.6693C123.048 28.6693 125.928 29.379 128.396 29.1424C130.864 28.9059 132.098 28.5511 132.098 28.5511L132.51 24.8846L130.864 23.9384L126.75 22.9922Z" fill="#97CFED"/>
<path d="M126.951 31.2713V29.0241C126.951 29.0241 124.467 24.0566 126.478 24.0566C128.489 24.0566 128.725 28.551 128.725 28.551V31.7444L126.951 31.2713Z" fill="#FFB8B8"/>
<path d="M105.662 54.8078C105.662 54.8078 104.361 54.0982 104.124 54.8078C103.888 55.5175 103.178 57.055 104.124 57.1733C105.07 57.2916 106.017 56.4637 106.017 56.4637L105.662 54.8078Z" fill="#FFB8B8"/>
<path d="M112.065 59.5987C112.065 59.5987 111.353 60.5393 112.386 69.7154C113.419 78.8916 112.824 85.5731 114.785 85.4815C114.785 85.4815 114.274 87.4713 115.94 87.5447C117.607 87.6181 118.369 87.7338 118.498 87.274C118.628 86.8143 118.831 84.6878 118.379 84.7089C118.379 84.7089 118.407 85.3125 118.596 82.8841C118.785 80.4558 118.25 68.988 118.934 67.4439L121.609 72.9142C121.609 72.9142 121.728 75.4793 122.237 76.6653C122.746 77.8513 123.825 84.7571 123.825 84.7571L123.723 85.8204C123.723 85.8204 127.373 86.2548 127.496 85.6442C127.618 85.0336 127.576 84.1283 127.411 83.8335C127.246 83.5388 127.246 83.5388 127.52 82.9212C127.641 82.689 127.711 82.4335 127.725 82.1719C127.738 81.9104 127.696 81.6489 127.6 81.4052C127.428 80.9596 126.97 71.1517 126.97 71.1517C126.97 71.1517 126.112 59.2454 124.273 58.7263C122.434 58.2073 112.065 59.5987 112.065 59.5987Z" fill="#2F2E41"/>
<path d="M115.28 86.3657L114.172 88.5346C114.172 88.5346 112.254 87.9436 112.712 89.6612C114.553 89.7185 116.396 89.6072 118.216 89.3287C118.216 89.3287 118.985 89.5952 119.115 89.1355C119.244 88.6758 118.642 87.1161 118.19 87.1372C117.737 87.1584 115.28 86.3657 115.28 86.3657Z" fill="#2F2E41"/>
<path d="M124.004 85.3536C124.004 85.3536 122.923 88.126 123.383 88.2558C123.843 88.3855 127.945 88.7989 128.254 88.9357C128.563 89.0725 130.079 89.1529 130.187 88.2405C130.296 87.3282 129.376 87.0687 129.376 87.0687C129.376 87.0687 127.702 86.8444 127.179 85.3566C126.656 83.8688 124.004 85.3536 124.004 85.3536Z" fill="#2F2E41"/>
<path d="M113.76 37.1044C115.505 37.1044 116.92 35.6899 116.92 33.945C116.92 32.2001 115.505 30.7856 113.76 30.7856C112.016 30.7856 110.601 32.2001 110.601 33.945C110.601 35.6899 112.016 37.1044 113.76 37.1044Z" fill="#FFB8B8"/>
<path d="M112.098 35.4417C112.098 35.4417 112.929 39.765 112.597 40.5964C112.264 41.4279 117.252 40.2639 117.252 40.2639C117.252 40.2639 116.255 35.9405 116.421 34.9428C116.587 33.9451 112.098 35.4417 112.098 35.4417Z" fill="#FFB8B8"/>
<path d="M113.665 30.0428C113.402 29.9952 113.132 30.0071 112.874 30.0777C112.668 30.1689 112.478 30.2934 112.313 30.4461C112.012 30.6859 111.69 30.8988 111.352 31.0823C111.07 31.2038 110.816 31.3821 110.605 31.6061C110.516 31.7285 110.445 31.8629 110.394 32.0053C110.07 32.8329 109.983 33.7344 110.143 34.6087C110.161 34.7329 110.198 34.8536 110.254 34.9662C110.426 35.2846 110.808 35.4101 111.13 35.577C111.74 35.8939 112.203 36.4275 112.704 36.8991C112.89 37.0848 113.099 37.2459 113.325 37.3784C114.04 37.7679 114.913 37.6408 115.715 37.5031C115.772 37.503 115.828 37.4916 115.88 37.4697C115.933 37.4477 115.98 37.4156 116.02 37.3752C116.06 37.3348 116.092 37.2869 116.113 37.2342C116.134 37.1816 116.145 37.1252 116.145 37.0684L116.778 34.2215C116.892 33.7997 116.947 33.3639 116.94 32.9268C116.896 32.2357 116.521 31.2784 116.014 30.7875C115.423 30.2156 114.437 30.1245 113.665 30.0428Z" fill="#2F2E41"/>
<path d="M111.339 40.8515C111.339 40.8515 111.575 39.1956 112.994 39.0774C113.797 39.0016 114.59 38.843 115.36 38.6043C115.478 38.6043 117.016 38.7225 117.725 39.4322C117.725 39.4322 118.199 40.1418 118.435 39.6687C118.672 39.1956 118.672 38.9591 119.145 39.1956C119.618 39.4322 119.618 38.486 120.446 38.6043C121.274 38.7225 123.403 44.0449 123.403 44.0449L122.693 44.8728C122.693 44.8728 121.747 51.2596 123.403 53.9799C125.058 56.7002 125.768 59.657 124.112 60.2484C122.456 60.8397 110.866 66.1621 111.339 62.8504C111.812 59.5387 111.457 54.3347 110.984 54.2164C110.511 54.0981 107.909 44.7545 107.909 44.7545C108.013 44.1613 108.262 43.6029 108.633 43.1285C109.005 42.6541 109.487 42.2783 110.038 42.0342C111.93 41.2063 111.339 40.8515 111.339 40.8515Z" fill="#575A88"/>
<path d="M119.854 39.0775L120.446 38.6044C120.446 38.6044 121.51 38.6044 121.629 38.3678C121.747 38.1313 122.338 38.1313 122.811 37.8947C123.284 37.6582 122.693 37.3034 123.284 37.0668C123.876 36.8303 123.876 37.0668 123.876 36.4755C123.876 35.8841 125.413 35.2927 125.532 34.5831C125.65 33.8734 126.833 30.5618 126.833 30.5618L129.08 31.2714L128.488 35.5293C128.488 35.5293 128.488 37.6582 127.424 39.0775C126.36 40.4968 123.994 44.045 122.811 44.1633C121.629 44.2815 119.854 39.0775 119.854 39.0775Z" fill="#575A88"/>
<path d="M108.618 44.1631L107.909 44.7545C107.909 44.7545 107.672 47.3565 107.672 47.4747C107.672 47.593 107.909 49.0123 107.672 49.1306C107.435 49.2489 106.962 51.6143 107.081 51.7326V52.0874L105.425 54.6894V57.1732L109.328 54.6894C109.328 54.6894 111.575 54.4529 111.22 52.4422C110.865 50.4316 108.618 44.1631 108.618 44.1631Z" fill="#575A88"/>
<path d="M89.1165 99.1075C90.3302 99.1075 91.3141 98.1236 91.3141 96.91C91.3141 95.6963 90.3302 94.7124 89.1165 94.7124C87.9028 94.7124 86.9189 95.6963 86.9189 96.91C86.9189 98.1236 87.9028 99.1075 89.1165 99.1075Z" fill="#97CFED"/>
</g>
<defs>
<clipPath id="clip0">
<rect x="14" y="16" width="150.233" height="122.488" fill="white"/>
</clipPath>
</defs>
</svg>
