<svg width="531" height="507" viewBox="0 0 531 507" fill="none" xmlns="http://www.w3.org/2000/svg">
<path d="M64.4713 182.258C100.078 81.5996 200.437 25.2905 288.631 56.488C376.825 87.6855 387.999 157 452.499 286.999C516.999 416.999 247.882 452.2 159.688 421.003C71.4947 389.805 28.8647 282.916 64.4713 182.258Z" fill="#97CFED"/>
<g clip-path="url(#clip0)">
<path d="M331.694 265.293H144.248V316.096H331.694V265.293Z" fill="#1B0F0F"/>
<rect x="145.999" y="94.9995" width="184" height="82" fill="#1B0F0F"/>
<path d="M319.688 139.426L312.203 142.968L318.827 138.015C317.751 136.334 316.541 134.743 315.21 133.255L282.75 141.323L312.071 130.139C310.731 128.956 309.308 127.872 307.813 126.893L258.352 134.86C253.1 141.427 250.237 149.585 250.233 157.993H324.686C324.683 151.472 322.959 145.067 319.688 139.426Z" fill="#F2F2F2"/>
<path d="M286.963 157.993L261.621 120.35C261.621 120.35 300 133.749 295.644 157.993H286.963Z" fill="#FF1988"/>
<path d="M287.957 157.993L313.299 120.35C313.299 120.35 274.921 133.749 279.276 157.993H287.957Z" fill="#97CFED"/>
<path d="M331.913 367.775H144.029V87.4817H331.913V367.775ZM144.905 366.899H331.037V88.3576H144.905V366.899Z" fill="#2F2E41"/>
<path d="M331.694 94.1311H144.686V95.007H331.694V94.1311Z" fill="#2F2E41"/>
<path d="M149.503 92.7376C150.47 92.7376 151.255 91.9532 151.255 90.9857C151.255 90.0182 150.47 89.2339 149.503 89.2339C148.535 89.2339 147.751 90.0182 147.751 90.9857C147.751 91.9532 148.535 92.7376 149.503 92.7376Z" fill="#97CFED"/>
<path d="M154.321 92.7376C155.289 92.7376 156.073 91.9532 156.073 90.9857C156.073 90.0182 155.289 89.2339 154.321 89.2339C153.354 89.2339 152.569 90.0182 152.569 90.9857C152.569 91.9532 153.354 92.7376 154.321 92.7376Z" fill="#97CFED"/>
<path d="M159.139 92.7376C160.106 92.7376 160.89 91.9532 160.89 90.9857C160.89 90.0182 160.106 89.2339 159.139 89.2339C158.171 89.2339 157.387 90.0182 157.387 90.9857C157.387 91.9532 158.171 92.7376 159.139 92.7376Z" fill="#97CFED"/>
<path d="M159.138 100.183H151.255V104.562H159.138V100.183Z" fill="#97CFED"/>
<path d="M189.795 134.781H151.255V139.161H189.795V134.781Z" fill="#97CFED"/>
<path d="M288.336 104.562H326.876V100.183H288.336V104.562Z" fill="#F2F2F2"/>
<path d="M216.073 142.227H151.255V144.855H216.073V142.227Z" fill="#F2F2F2"/>
<path d="M212.569 147.92H151.255V150.548H212.569V147.92Z" fill="#F2F2F2"/>
<path d="M195.927 153.614H151.255V156.242H195.927V153.614Z" fill="#F2F2F2"/>
<path d="M191.547 231.57H166.146V234.198H191.547V231.57Z" fill="#F2F2F2"/>
<path d="M190.174 237.264H166.146V239.891H190.174V237.264Z" fill="#F2F2F2"/>
<path d="M183.652 242.957H166.146V245.585H183.652V242.957Z" fill="#F2F2F2"/>
<path d="M250.672 231.57H225.271V234.198H250.672V231.57Z" fill="#F2F2F2"/>
<path d="M249.299 237.264H225.271V239.891H249.299V237.264Z" fill="#F2F2F2"/>
<path d="M242.777 242.957H225.271V245.585H242.777V242.957Z" fill="#F2F2F2"/>
<path d="M311.986 231.57H286.584V234.198H311.986V231.57Z" fill="#F2F2F2"/>
<path d="M310.612 237.264H286.584V239.891H310.612V237.264Z" fill="#F2F2F2"/>
<path d="M304.09 242.957H286.584V245.585H304.09V242.957Z" fill="#F2F2F2"/>
<path d="M244.102 330.987H205.562V335.367H244.102V330.987Z" fill="#97CFED"/>
<path d="M270.379 338.432H205.562V341.059H270.379V338.432Z" fill="#F2F2F2"/>
<path d="M266.876 344.125H205.562V346.753H266.876V344.125Z" fill="#F2F2F2"/>
<path d="M250.233 349.819H205.562V352.447H250.233V349.819Z" fill="#F2F2F2"/>
<path opacity="0.3" d="M315.27 182.081H162.86V182.957H315.27V182.081Z" fill="#97CFED"/>
<path opacity="0.3" d="M195.05 197.41H162.642V226.315H195.05V197.41Z" fill="#97CFED"/>
<path d="M254.175 197.41H221.766V226.315H254.175V197.41Z" fill="#3F3D56"/>
<path d="M315.489 197.41H283.08V226.315H315.489V197.41Z" fill="#3F3D56"/>
<path d="M233.748 226.193L233.32 226.185C233.33 225.711 233.597 214.552 237.99 211.468L238.235 211.818C234.019 214.778 233.75 226.079 233.748 226.193Z" fill="#97CFED"/>
<path d="M240.25 211.327C241.431 211.327 242.388 210.37 242.388 209.189C242.388 208.008 241.431 207.051 240.25 207.051C239.069 207.051 238.112 208.008 238.112 209.189C238.112 210.37 239.069 211.327 240.25 211.327Z" fill="#97CFED"/>
<path d="M239.819 216.737C238.707 217.086 237.523 217.138 236.385 216.885C237.107 215.965 238.08 215.274 239.187 214.895C240.293 214.515 241.486 214.464 242.621 214.746C241.878 215.644 240.911 216.33 239.819 216.737Z" fill="#97CFED"/>
<path d="M295.062 226.193L294.635 226.185C294.644 225.711 294.911 214.552 299.304 211.468L299.55 211.818C295.334 214.778 295.064 226.079 295.062 226.193Z" fill="#97CFED"/>
<path d="M301.566 211.327C302.746 211.327 303.703 210.37 303.703 209.189C303.703 208.008 302.746 207.051 301.566 207.051C300.385 207.051 299.428 208.008 299.428 209.189C299.428 210.37 300.385 211.327 301.566 211.327Z" fill="#97CFED"/>
<path d="M301.133 216.737C300.021 217.086 298.837 217.138 297.699 216.885C298.422 215.965 299.395 215.274 300.501 214.895C301.608 214.515 302.801 214.464 303.936 214.746C303.192 215.644 302.226 216.33 301.133 216.737V216.737Z" fill="#97CFED"/>
<path d="M189.795 281.497H151.255V285.877H189.795V281.497Z" fill="#97CFED"/>
<path d="M216.073 288.942H151.255V291.57H216.073V288.942Z" fill="#F2F2F2"/>
<path d="M212.569 294.636H151.255V297.263H212.569V294.636Z" fill="#F2F2F2"/>
<path d="M195.927 300.329H151.255V302.957H195.927V300.329Z" fill="#F2F2F2"/>
<path d="M130.462 282.071C134.488 273.407 135.547 265.358 132.827 264.095C130.107 262.831 124.638 268.83 120.612 277.494C116.586 286.159 115.527 294.207 118.247 295.471C120.967 296.735 126.436 290.736 130.462 282.071Z" fill="#2F2E41"/>
<path opacity="0.4" d="M293.921 301.227C301.479 301.227 307.606 295.099 307.606 287.541C307.606 279.983 301.479 273.856 293.921 273.856C286.362 273.856 280.235 279.983 280.235 287.541C280.235 295.099 286.362 301.227 293.921 301.227Z" fill="#97CFED"/>
<path opacity="0.4" d="M268.592 303.678C273.894 303.678 278.192 299.38 278.192 294.078C278.192 288.776 273.894 284.478 268.592 284.478C263.29 284.478 258.992 288.776 258.992 294.078C258.992 299.38 263.29 303.678 268.592 303.678Z" fill="#97CFED"/>
<path d="M99.3575 352.666C118.466 352.666 133.956 337.176 133.956 318.067C133.956 298.959 118.466 283.469 99.3575 283.469C80.2491 283.469 64.7588 298.959 64.7588 318.067C64.7588 337.176 80.2491 352.666 99.3575 352.666Z" fill="#FF6AB2"/>
<path d="M94.1008 345.22H83.5898V364.052H94.1008V345.22Z" fill="#2F2E41"/>
<path d="M115.123 345.22H104.612V364.052H115.123V345.22Z" fill="#2F2E41"/>
<path d="M92.349 367.556C97.1866 367.556 101.108 366.086 101.108 364.272C101.108 362.457 97.1866 360.987 92.349 360.987C87.5115 360.987 83.5898 362.457 83.5898 364.272C83.5898 366.086 87.5115 367.556 92.349 367.556Z" fill="#2F2E41"/>
<path d="M113.371 367.118C118.209 367.118 122.131 365.648 122.131 363.834C122.131 362.019 118.209 360.549 113.371 360.549C108.534 360.549 104.612 362.019 104.612 363.834C104.612 365.648 108.534 367.118 113.371 367.118Z" fill="#2F2E41"/>
<path d="M100.232 321.133C106.763 321.133 112.057 315.838 112.057 309.308C112.057 302.777 106.763 297.483 100.232 297.483C93.7014 297.483 88.4072 302.777 88.4072 309.308C88.4072 315.838 93.7014 321.133 100.232 321.133Z" fill="white"/>
<path d="M100.233 307.994C102.41 307.994 104.174 306.229 104.174 304.052C104.174 301.875 102.41 300.11 100.233 300.11C98.0557 300.11 96.291 301.875 96.291 304.052C96.291 306.229 98.0557 307.994 100.233 307.994Z" fill="#1B0F0F"/>
<path d="M70.1247 305.583C72.7756 304.18 71.3011 296.197 66.8315 287.753C62.3618 279.308 56.5894 273.601 53.9385 275.004C51.2876 276.407 52.7621 284.39 57.2318 292.834C61.7014 301.278 67.4738 306.986 70.1247 305.583Z" fill="#2F2E41"/>
<path d="M391.348 308.479C394.146 307.401 393.629 299.299 390.193 290.384C386.757 281.469 381.703 275.117 378.904 276.196C376.106 277.274 376.622 285.376 380.059 294.291C383.495 303.205 388.549 309.558 391.348 308.479Z" fill="#2F2E41"/>
<path d="M417.179 352.973C436.287 352.973 451.777 337.483 451.777 318.375C451.777 299.266 436.287 283.776 417.179 283.776C398.07 283.776 382.58 299.266 382.58 318.375C382.58 337.483 398.07 352.973 417.179 352.973Z" fill="#FF6AB2"/>
<path d="M422.562 364.343L433.073 364.313L433.021 345.481L422.51 345.511L422.562 364.343Z" fill="#2F2E41"/>
<path d="M401.541 364.404L412.052 364.375L411.999 345.542L401.488 345.572L401.541 364.404Z" fill="#2F2E41"/>
<path d="M424.324 367.843C429.162 367.83 433.079 366.348 433.074 364.534C433.069 362.72 429.144 361.26 424.306 361.274C419.468 361.287 415.551 362.769 415.556 364.583C415.561 366.397 419.487 367.857 424.324 367.843Z" fill="#2F2E41"/>
<path d="M403.301 367.465C408.138 367.451 412.056 365.97 412.051 364.156C412.046 362.341 408.12 360.882 403.283 360.895C398.445 360.909 394.528 362.391 394.533 364.205C394.538 366.019 398.463 367.478 403.301 367.465Z" fill="#2F2E41"/>
<path d="M416.278 321.442C422.809 321.442 428.103 316.148 428.103 309.617C428.103 303.087 422.809 297.792 416.278 297.792C409.747 297.792 404.453 303.087 404.453 309.617C404.453 316.148 409.747 321.442 416.278 321.442Z" fill="white"/>
<path d="M416.278 313.559C418.454 313.559 420.219 311.795 420.219 309.618C420.219 307.441 418.454 305.676 416.278 305.676C414.101 305.676 412.336 307.441 412.336 309.618C412.336 311.795 414.101 313.559 416.278 313.559Z" fill="#3F3D56"/>
<path d="M458.445 307.111C467.066 302.993 473.006 297.46 471.714 294.754C470.421 292.047 462.384 293.192 453.763 297.311C445.142 301.429 439.201 306.962 440.494 309.668C441.787 312.374 449.824 311.23 458.445 307.111Z" fill="#1B0F0F"/>
<path d="M434.208 330.809C434.218 334.195 425.517 340.906 415.842 340.933C406.167 340.96 397.069 331.452 397.06 328.066C397.05 324.68 406.133 328.697 415.808 328.67C425.483 328.643 434.199 327.422 434.208 330.809Z" fill="white"/>
<path d="M142.549 214.658C151.861 212.523 158.867 208.423 158.197 205.499C157.527 202.576 149.434 201.936 140.122 204.071C130.809 206.205 123.803 210.306 124.473 213.229C125.143 216.153 133.236 216.792 142.549 214.658Z" fill="#2F2E41"/>
<path d="M109.389 250.266C128.497 250.266 143.987 234.776 143.987 215.668C143.987 196.559 128.497 181.069 109.389 181.069C90.2804 181.069 74.79 196.559 74.79 215.668C74.79 234.776 90.2804 250.266 109.389 250.266Z" fill="#FF6AB2"/>
<path d="M99.38 241.45L89.0371 239.578L85.6825 258.109L96.0253 259.981L99.38 241.45Z" fill="#2F2E41"/>
<path d="M120.066 245.195L109.723 243.323L106.368 261.854L116.711 263.726L120.066 245.195Z" fill="#2F2E41"/>
<path d="M120.027 270.78C121.2 269.396 119.157 265.739 115.466 262.613C111.774 259.486 107.831 258.074 106.659 259.458C105.487 260.843 107.529 264.499 111.22 267.626C114.912 270.752 118.855 272.164 120.027 270.78Z" fill="#2F2E41"/>
<path d="M99.7724 267.113C100.945 265.728 98.9026 262.072 95.211 258.945C91.5195 255.819 87.5764 254.407 86.404 255.791C85.2317 257.175 87.2739 260.832 90.9654 263.958C94.657 267.085 98.6 268.497 99.7724 267.113Z" fill="#2F2E41"/>
<path d="M111.811 219.03C118.342 219.03 123.636 213.735 123.636 207.205C123.636 200.674 118.342 195.38 111.811 195.38C105.281 195.38 99.9863 200.674 99.9863 207.205C99.9863 213.735 105.281 219.03 111.811 219.03Z" fill="white"/>
<path d="M116.67 206.907C118.847 206.907 120.612 205.142 120.612 202.966C120.612 200.789 118.847 199.024 116.67 199.024C114.493 199.024 112.729 200.789 112.729 202.966C112.729 205.142 114.493 206.907 116.67 206.907Z" fill="#3F3D56"/>
<path d="M74.6325 225.951C83.9452 223.817 90.9513 219.716 90.2812 216.793C89.6111 213.869 81.5184 213.23 72.2058 215.364C62.8931 217.499 55.887 221.599 56.5571 224.523C57.2272 227.447 65.3199 228.086 74.6325 225.951Z" fill="#2F2E41"/>
<path d="M99.8859 229.302C99.5134 231.359 99.9735 233.48 101.165 235.198C102.356 236.917 104.181 238.091 106.239 238.463C108.296 238.836 110.417 238.376 112.135 237.184C113.853 235.993 115.028 234.168 115.4 232.111C116.176 227.826 112.863 226.31 108.579 225.535C104.295 224.759 100.661 225.018 99.8859 229.302Z" fill="white"/>
<path d="M190.854 187.562L159.811 178.255L151.51 205.943L182.554 215.25L190.854 187.562Z" fill="#3F3D56"/>
<path d="M163.022 209.268L162.615 209.137C162.76 208.686 166.221 198.074 171.314 196.381L171.449 196.787C166.561 198.411 163.057 209.16 163.022 209.268Z" fill="#97CFED"/>
<path d="M174.134 196.984C175.315 196.984 176.272 196.027 176.272 194.846C176.272 193.666 175.315 192.708 174.134 192.708C172.953 192.708 171.996 193.666 171.996 194.846C171.996 196.027 172.953 196.984 174.134 196.984Z" fill="#97CFED"/>
<path d="M171.552 201.953C170.386 201.968 169.237 201.677 168.22 201.109C169.176 200.435 170.307 200.052 171.476 200.007C172.645 199.961 173.802 200.254 174.808 200.851C173.838 201.497 172.715 201.877 171.552 201.953V201.953Z" fill="#97CFED"/>
</g>
<defs>
<clipPath id="clip0">
<rect x="25.999" y="62.9995" width="450" height="304.844" fill="white"/>
</clipPath>
</defs>
</svg>
