<svg width="165" height="155" viewBox="0 0 165 155" fill="none" xmlns="http://www.w3.org/2000/svg">
<g clip-path="url(#clip0)">
<path opacity="0.1" d="M50.8056 5.67185C56.3884 0.70262 65.1533 -0.316073 73.129 0.0795544C98.1835 1.32377 120.799 13.42 140.372 27.1026C147.455 32.0547 154.428 37.3928 159.024 44.214C168.389 58.0973 165.606 77.332 152.595 88.7708C148.166 92.6621 142.8 95.6513 137.289 98.2908C127.492 102.994 116.921 106.769 105.804 107.847C97.8738 108.611 89.8466 107.99 81.9646 106.92C59.9299 103.931 38.3118 97.3256 20.1932 86.0244C12.2444 81.0685 4.75419 74.9067 1.47832 66.889C-1.79756 58.8713 0.299081 48.7112 8.41422 43.9655C11.7704 42.0027 15.784 41.1159 19.7116 40.2845C25.495 39.0594 31.3702 37.8515 36.5898 35.3592C41.9795 32.7867 48.3611 27.8117 47.2928 22.1181C46.1479 16.0079 45.2305 10.6411 50.8056 5.67185Z" fill="#97CFED"/>
<path d="M129.018 44.9524C129.018 44.9524 126.996 44.1325 120.563 47.0816C114.129 50.0306 113.327 49.6579 111.662 49.2145C109.997 48.7711 109.068 48.6564 107.283 46.1928C107.283 46.1928 106.024 39.3678 104.799 38.309C103.573 37.2501 98.4017 38.9129 98.4017 38.9129C98.4017 38.9129 92.192 40.3368 91.009 32.0324C91.009 32.0324 91.848 25.7788 90.7051 23.86C90.7051 23.86 93.0139 24.8538 96.8211 23.2484C100.628 21.6429 103.677 24.978 103.677 24.978C103.677 24.978 104.632 27.4626 104.537 28.9458C104.441 30.4289 105.045 30.9851 106.861 30.2684C106.861 30.2684 107.753 28.9993 106.49 26.9007C105.227 24.8022 104.325 23.2407 104.676 21.6123C105.028 19.984 106.043 17.7229 109.301 16.5934C112.56 15.4639 116.985 15.2555 119.108 14.363C121.231 13.4704 121.755 12.9009 121.755 12.9009C121.755 12.9009 120.448 14.2101 123.527 19.7622C126.606 25.3144 124.643 27.7226 124.643 27.7226C124.643 27.7226 123.005 31.6273 115.773 31.31C115.773 31.31 108.805 31.5642 112.604 34.519C112.604 34.519 115.037 34.024 118.674 32.8676C122.311 31.7113 124.937 36.4837 125.589 39.8036C126.241 43.1234 129.018 44.9524 129.018 44.9524Z" fill="#97CFED"/>
<path d="M119.651 17.1055L119.689 17.094C119.968 18.1528 116.855 22.4111 114.193 25.7959L114.162 25.771C117.916 21.0044 119.867 17.9254 119.651 17.1055Z" fill="#444053"/>
<path d="M114.217 25.7063L114.234 25.7483C112.107 28.4508 109.433 31.6732 107.292 34.068C107.088 34.2954 106.885 34.5343 106.69 34.779L106.629 34.7293C106.82 34.4846 107.028 34.2438 107.233 34.0164C109.372 31.6312 112.087 28.4107 114.217 25.7063Z" fill="#444053"/>
<path d="M106.681 34.6682L106.723 34.7408C102.828 39.605 102.57 47.1639 102.56 47.2232L101.738 46.2676C101.748 46.2064 102.759 39.5667 106.681 34.6682Z" fill="#444053"/>
<path d="M124.509 42.3149C124.509 42.3149 119.922 39.9258 116.337 40.7859C112.751 41.6459 104.688 37.747 104.688 37.747C104.688 37.747 101.267 36.3575 100.579 34.7731C100.579 34.7731 98.2297 32.2885 98.094 31.006C97.9583 29.7236 95.6744 26.4917 94.1836 26.3674" stroke="#444053" stroke-width="0.191124" stroke-miterlimit="10"/>
<path d="M123.834 44.6143C123.834 44.6143 121.522 43.0547 121.791 41.239" stroke="#444053" stroke-width="0.191124" stroke-miterlimit="10"/>
<path d="M120.286 46.6266C120.286 46.6266 116.977 45.4263 116.654 40.717" stroke="#444053" stroke-width="0.191124" stroke-miterlimit="10"/>
<path d="M114.954 47.846C114.954 47.846 111.793 45.2238 112.842 40.6406" stroke="#444053" stroke-width="0.191124" stroke-miterlimit="10"/>
<path d="M108.534 46.5657C108.534 46.5657 106.432 42.1507 108.303 39.2781" stroke="#444053" stroke-width="0.191124" stroke-miterlimit="10"/>
<path d="M124.554 39.4043C124.554 39.4043 122.163 40.1688 122.675 41.4226" stroke="#444053" stroke-width="0.191124" stroke-miterlimit="10"/>
<path d="M121.667 35.0713C121.667 35.0713 118.465 36.0862 118.391 40.6139" stroke="#444053" stroke-width="0.191124" stroke-miterlimit="10"/>
<path d="M117.202 34.0164C117.202 34.0164 114.287 37.6133 114.501 40.8815" stroke="#444053" stroke-width="0.191124" stroke-miterlimit="10"/>
<path d="M112.1 35.4268C112.1 35.4268 109.207 38.1942 109.575 39.7328" stroke="#444053" stroke-width="0.191124" stroke-miterlimit="10"/>
<path d="M110.354 34.4501C110.354 34.4501 107.64 34.9356 107.26 34.0449" stroke="#444053" stroke-width="0.191124" stroke-miterlimit="10"/>
<path d="M106.828 31.1743C106.828 31.1743 108.198 32.99 108.548 32.5829" stroke="#444053" stroke-width="0.191124" stroke-miterlimit="10"/>
<path d="M120.422 30.0257C120.422 30.0257 113.579 30.5226 112.031 28.4585" stroke="#444053" stroke-width="0.191124" stroke-miterlimit="10"/>
<path d="M105.398 22.0232C105.398 22.0232 108.607 28.9132 110.941 29.7905" stroke="#444053" stroke-width="0.191124" stroke-miterlimit="10"/>
<path d="M108.758 18.7417C108.758 18.7417 110.728 25.0794 113.171 27.0575" stroke="#444053" stroke-width="0.191124" stroke-miterlimit="10"/>
<path d="M123.3 24.7946C123.3 24.7946 118.098 27.0269 114.975 24.7678" stroke="#444053" stroke-width="0.143343" stroke-miterlimit="10"/>
<path d="M113.389 17.3904C113.389 17.3904 114.577 22.0481 116.179 23.1738" stroke="#444053" stroke-width="0.143343" stroke-miterlimit="10"/>
<path d="M122.514 19.5752C122.514 19.5752 119.589 20.6837 118.5 19.8351" stroke="#444053" stroke-width="0.143343" stroke-miterlimit="10"/>
<path d="M104.323 32.6956C104.323 32.6956 104.323 36.7569 103.219 37.0455" stroke="#444053" stroke-width="0.191124" stroke-miterlimit="10"/>
<path d="M95.2832 37.9574C95.2832 37.9574 99.6791 38.3396 101.699 36.0671" stroke="#444053" stroke-width="0.191124" stroke-miterlimit="10"/>
<path d="M103.19 27.8987C103.19 27.8987 102.127 32.0174 99.1953 33.1278" stroke="#444053" stroke-width="0.191124" stroke-miterlimit="10"/>
<path d="M92.6504 33.6189C92.6504 33.6189 95.7581 34.6988 98.4319 31.9485" stroke="#444053" stroke-width="0.191124" stroke-miterlimit="10"/>
<path d="M99.7351 24.3569C99.7351 24.3569 99.4427 27.8545 97.541 29.4924" stroke="#444053" stroke-width="0.191124" stroke-miterlimit="10"/>
<path d="M92.7676 28.2883C92.7676 28.2883 95.3459 28.3055 95.9498 27.4646" stroke="#444053" stroke-width="0.191124" stroke-miterlimit="10"/>
<path opacity="0.1" d="M81.1265 155C120.815 155 152.989 148.754 152.989 141.048C152.989 133.343 120.815 127.096 81.1265 127.096C41.4377 127.096 9.26367 133.343 9.26367 141.048C9.26367 148.754 41.4377 155 81.1265 155Z" fill="#97CFED"/>
<path d="M85.4432 83.1449L85.4222 83.8884L84.1302 129.475H81.959L83.0216 83.8884L83.0427 83.0303L85.4432 83.1449Z" fill="#504F60"/>
<path opacity="0.1" d="M85.4432 83.1449L85.4222 83.8884L84.1302 129.475H81.959L83.0216 83.8884L83.0427 83.0303L85.4432 83.1449Z" fill="black"/>
<path d="M98.0101 121.763L96.3856 121.76L72.2198 121.708L70.9316 121.706L71.6178 119.592H97.84L98.0101 121.763Z" fill="#504F60"/>
<path opacity="0.1" d="M85.443 83.1449L85.422 83.8884H83.0215L83.0425 83.0303L85.443 83.1449Z" fill="black"/>
<path d="M86.3571 82.0305H82.3301V83.5461H86.3571V82.0305Z" fill="#504F60"/>
<path opacity="0.1" d="M72.4339 119.592L72.2198 121.708L70.9316 121.706L71.6178 119.592H72.4339Z" fill="black"/>
<path d="M75.9015 82.0017L75.8365 82.6592L70.4755 135.532L68.0195 135.415L73.6673 82.6592L73.7303 82.059L75.9015 82.0017Z" fill="#504F60"/>
<path opacity="0.1" d="M98.0103 121.763L96.3858 121.76L96.1641 119.592H97.8402L98.0103 121.763Z" fill="black"/>
<path d="M100.583 135.415L98.1252 135.532L92.7661 82.6592L92.6992 82.0017L94.8704 82.059L94.9335 82.6592L100.583 135.415Z" fill="#504F60"/>
<path d="M111.036 29.8728H56.8789V81.8013H111.036V29.8728Z" fill="white"/>
<path d="M111.036 29.8728H56.8789V81.8013H111.036V29.8728Z" fill="white"/>
<path d="M85.0133 12.5074V25.0451H82.9013V12.5074C82.8953 12.3649 82.9181 12.2227 82.9684 12.0893C83.0188 11.9559 83.0956 11.8341 83.1942 11.7311C83.2929 11.6282 83.4113 11.5463 83.5425 11.4903C83.6736 11.4344 83.8147 11.4055 83.9573 11.4055C84.0999 11.4055 84.241 11.4344 84.3721 11.4903C84.5033 11.5463 84.6217 11.6282 84.7204 11.7311C84.819 11.8341 84.8958 11.9559 84.9462 12.0893C84.9965 12.2227 85.0193 12.3649 85.0133 12.5074Z" fill="#504F60"/>
<path opacity="0.1" d="M85.0142 23.9038H82.9004V25.0448H85.0142V23.9038Z" fill="black"/>
<path d="M85.8433 24.76V28.9016H82.0801V24.76C82.0801 24.6925 82.0934 24.6256 82.1192 24.5632C82.1451 24.5009 82.1829 24.4442 82.2307 24.3964C82.2784 24.3487 82.3351 24.3108 82.3975 24.285C82.4598 24.2591 82.5267 24.2458 82.5942 24.2458H85.3292C85.4654 24.2464 85.5959 24.3007 85.6922 24.397C85.7885 24.4933 85.8428 24.6238 85.8433 24.76Z" fill="#504F60"/>
<path opacity="0.1" d="M83.9591 27.673C84.4003 27.673 84.758 27.3153 84.758 26.8741C84.758 26.4329 84.4003 26.0752 83.9591 26.0752C83.5178 26.0752 83.1602 26.4329 83.1602 26.8741C83.1602 27.3153 83.5178 27.673 83.9591 27.673Z" fill="black"/>
<path d="M83.9591 27.5006C84.4003 27.5006 84.758 27.143 84.758 26.7017C84.758 26.2605 84.4003 25.9028 83.9591 25.9028C83.5178 25.9028 83.1602 26.2605 83.1602 26.7017C83.1602 27.143 83.5178 27.5006 83.9591 27.5006Z" fill="#3F3D56"/>
<path opacity="0.1" d="M85.8451 28.3877H82.0742V28.9018H85.8451V28.3877Z" fill="black"/>
<path opacity="0.1" d="M87.3849 29.074H80.5293V30.2169H87.3849V29.074Z" fill="black"/>
<path d="M87.3849 28.73H80.5293V29.8729H87.3849V28.73Z" fill="#504F60"/>
<path opacity="0.1" d="M70.09 80.4634H98.8829C99.2123 80.4634 99.5283 80.5943 99.7613 80.8272C99.9943 81.0602 100.125 81.3762 100.125 81.7057V81.9771H68.8477V81.7057C68.8477 81.3762 68.9785 81.0602 69.2115 80.8272C69.4445 80.5943 69.7605 80.4634 70.09 80.4634V80.4634Z" fill="black"/>
<path opacity="0.1" d="M73.7291 82.059L75.9003 82.0017L75.8353 82.6592H73.666L73.7291 82.059Z" fill="black"/>
<path opacity="0.1" d="M86.3571 82.0305H82.3301V82.6593H86.3571V82.0305Z" fill="black"/>
<path opacity="0.1" d="M94.9335 82.6592H92.7661L92.6992 82.0017L94.8704 82.059L94.9335 82.6592Z" fill="black"/>
<path d="M70.09 80.8018H98.8829C99.2123 80.8018 99.5283 80.9326 99.7613 81.1656C99.9943 81.3986 100.125 81.7146 100.125 82.0441V82.3155H68.8477V82.0441C68.8477 81.7146 68.9785 81.3986 69.2115 81.1656C69.4445 80.9326 69.7605 80.8018 70.09 80.8018Z" fill="#504F60"/>
<path opacity="0.05" d="M74.1551 35.2871C75.8332 33.1675 78.465 32.7375 80.8617 32.9057C88.3881 33.4351 95.1826 38.5859 101.06 44.4114C103.187 46.5138 105.282 48.792 106.663 51.6971C109.475 57.6085 108.64 65.7982 104.731 70.6681C103.393 72.3251 101.788 73.5961 100.133 74.7218C97.1913 76.7248 94.0167 78.3302 90.674 78.7889C88.2926 79.1158 85.8806 78.8501 83.5126 78.3952C76.8977 77.1223 70.4033 74.3109 64.9601 69.4984C62.5711 67.396 60.3215 64.7661 59.3372 61.3527C58.3529 57.9392 58.9836 53.6121 61.4205 51.5919C62.4296 50.7548 63.6356 50.3783 64.8149 50.0228C66.5522 49.503 68.3182 48.9869 69.8854 47.9204C71.5042 46.8234 73.4212 44.7057 73.1001 42.2804C72.7561 39.6868 72.4809 37.4029 74.1551 35.2871Z" fill="#97CFED"/>
<path d="M37.3015 21.1499C36.6822 21.4193 36.04 21.7959 35.7954 22.4266C35.6425 22.8203 35.6693 23.258 35.6368 23.6784C35.553 24.6829 35.1258 25.6278 34.4269 26.3542C33.9262 26.8702 33.3031 27.2563 32.8158 27.7819C31.9289 28.7375 31.5677 30.2283 32.1449 31.398C32.3246 31.7649 32.5864 32.0879 32.7794 32.4491C33.1521 33.141 33.2573 33.9437 33.3108 34.7293C33.408 36.1018 33.3721 37.4805 33.2037 38.8461C33.0948 39.7195 32.9343 40.614 33.1388 41.4702C33.3136 42.0809 33.5888 42.6584 33.953 43.1789C34.8895 44.6505 35.977 46.0706 37.4238 47.0472C38.9165 48.0545 40.7168 48.5361 42.5115 48.6775C44.3062 48.8189 46.1123 48.6431 47.8993 48.4271C49.2372 48.2666 50.8006 47.9321 51.372 46.707C51.6893 46.0209 51.6071 45.2048 51.9053 44.511C52.4423 43.2591 53.9904 42.7909 54.8562 41.7512C55.7583 40.6637 55.7966 39.1003 55.5749 37.7051C55.3532 36.3099 54.9136 34.9242 55.0168 33.5137C55.1811 31.2489 56.7369 29.0395 56.0527 26.8702C55.6914 25.7063 54.7492 24.829 53.8203 24.0378C52.1728 22.633 50.4202 21.3009 48.4077 20.502C46.6521 19.7805 44.7174 19.6157 42.8651 20.0299C40.9882 20.4599 39.1382 20.3548 37.3015 21.1499Z" fill="#2F2E41"/>
<g opacity="0.08">
<path opacity="0.08" d="M33.3431 35.6046C33.367 34.8838 33.3536 34.1623 33.303 33.443C33.2495 32.6594 33.1444 31.8566 32.7717 31.1629C32.5806 30.8016 32.3168 30.4806 32.1372 30.1136C32.0425 29.9197 31.9719 29.7149 31.9269 29.5039C31.7834 30.1429 31.8574 30.8115 32.1372 31.4037C32.3168 31.7706 32.5787 32.0936 32.7717 32.4549C33.1444 33.1467 33.2495 33.9495 33.303 34.735C33.3317 35.0236 33.3431 35.3141 33.3431 35.6046Z" fill="black"/>
<path opacity="0.08" d="M55.0183 32.2273C54.9941 32.5973 55.0005 32.9687 55.0374 33.3377C55.2476 31.3252 56.467 29.3547 56.1746 27.4128C55.9663 28.9954 55.133 30.597 55.0183 32.2273Z" fill="black"/>
<path opacity="0.08" d="M54.855 40.4647C53.9892 41.514 52.4411 41.9727 51.904 43.2226C51.6059 43.9183 51.688 44.7344 51.3708 45.4206C50.7974 46.6457 49.2416 46.9802 47.898 47.1407C46.111 47.3567 44.3068 47.5344 42.5102 47.3911C40.7137 47.2477 38.9152 46.768 37.4225 45.7608C35.9757 44.7841 34.8882 43.3641 33.9517 41.8905C33.5877 41.3706 33.3126 40.7938 33.1375 40.1838C33.112 40.0792 33.0923 39.9732 33.0782 39.8665C33.0079 40.4018 33.0279 40.9452 33.1375 41.4739C33.3124 42.0846 33.5875 42.662 33.9517 43.1825C34.8882 44.6542 35.9757 46.0742 37.4225 47.0509C38.9152 48.0581 40.7156 48.5397 42.5102 48.6812C44.3049 48.8226 46.111 48.6468 47.898 48.4308C49.2359 48.2702 50.7993 47.9358 51.3708 46.7107C51.688 46.0245 51.6059 45.2084 51.904 44.5147C52.4411 43.2628 53.9892 42.7945 54.855 41.7548C55.6195 40.8374 55.7609 39.5817 55.6558 38.3757C55.6042 39.1366 55.3252 39.8644 54.855 40.4647Z" fill="black"/>
</g>
<path d="M50.6526 49.2621C49.9664 50.0266 48.9324 50.426 47.9004 50.4776C46.8672 50.4984 45.8428 50.2855 44.9035 49.8546C43.173 49.0944 41.6659 47.9039 40.5258 46.3964C39.3856 44.8889 38.6503 43.1146 38.39 41.2425C38.3339 40.9589 38.3463 40.666 38.4263 40.3882C38.7035 39.6084 39.7336 39.4822 40.4255 39.0197C41.0562 38.6012 41.4098 37.873 41.5856 37.1295C41.6315 36.9288 41.6697 36.7281 41.7003 36.5236C41.7806 35.9789 41.8226 35.4266 41.9182 34.8838C41.9492 34.6217 42.0394 34.3701 42.1819 34.148C42.3643 33.9221 42.6039 33.7492 42.8757 33.6472C44.4907 32.9458 46.595 33.265 48.2004 33.8727C48.7375 34.0772 48.6343 34.1384 48.4298 34.6659C48.2983 35.002 48.1841 35.3445 48.0877 35.6922C48.059 35.7897 48.0322 35.8834 48.0074 35.9866C47.7797 36.8845 47.6616 37.8067 47.6557 38.733C47.6557 39.5816 47.7532 40.4704 48.2176 41.1832C48.9573 42.3128 50.4614 42.7887 51.1342 43.9603C51.3792 44.4267 51.5281 44.9375 51.5719 45.4625C51.7343 46.7947 51.5489 48.2587 50.6526 49.2621Z" fill="#FBBEBE"/>
<path d="M33.3522 134.427C33.2091 134.959 33.1447 135.509 33.1611 136.06L33.1076 138.927C33.0694 140.995 33.0369 143.103 33.6466 145.079C33.8325 145.77 34.1649 146.412 34.6213 146.963C34.8513 147.237 35.1362 147.458 35.4576 147.614C35.779 147.77 36.1297 147.856 36.4867 147.867C36.7823 147.856 37.0749 147.804 37.3563 147.713C37.8685 147.563 38.4036 147.33 38.6808 146.875C39.0496 146.268 38.8451 145.495 38.698 144.8C38.3711 143.252 38.3826 141.656 38.396 140.073L38.4285 136.207C38.4175 135.681 38.4507 135.156 38.5279 134.636C38.6024 134.221 38.7324 133.814 38.7649 133.395C38.8089 133.07 38.7321 132.74 38.5489 132.468C38.3642 132.256 38.1152 132.111 37.8398 132.054C37.3486 131.928 36.8326 131.96 36.3299 131.884C36.1046 131.854 35.8853 131.79 35.6801 131.692C35.5578 131.633 35.2979 131.36 35.1717 131.362C34.9233 131.362 34.7608 132.044 34.6232 132.279C34.2008 132.988 33.6122 133.621 33.3522 134.427Z" fill="#FBBEBE"/>
<path d="M49.1887 107.859C47.8279 111.922 48.753 116.406 48.2599 120.679C48.0812 122.03 47.8305 123.369 47.5088 124.693L45.1445 135.22C44.7527 136.971 44.3571 138.733 44.3036 140.526C44.2501 142.318 44.5559 144.157 45.4809 145.699C46.0322 146.594 46.7723 147.358 47.6494 147.937C48.5266 148.516 49.5196 148.896 50.5591 149.052C50.8947 149.099 51.2122 149.232 51.4804 149.439C51.7485 149.647 51.958 149.92 52.0881 150.233C52.1276 150.332 52.1577 150.434 52.1779 150.539C52.2318 150.791 52.2187 151.053 52.1399 151.298C52.0611 151.544 51.9193 151.764 51.7288 151.938C51.3465 152.244 50.8267 152.286 50.3431 152.245C48.0726 152.054 46.1785 150.357 43.9347 149.952C42.0044 149.606 39.9211 150.237 38.1016 149.512C37.9827 149.47 37.8731 149.405 37.7786 149.321C37.6722 149.211 37.5959 149.076 37.5569 148.928C37.1288 147.59 38.008 146.237 38.589 144.96C39.4157 143.136 39.6715 141.106 39.3229 139.134C38.9254 136.91 39.3363 134.559 39.4548 132.292C39.581 130.191 39.8673 128.103 40.311 126.046C40.5977 124.672 40.8404 123.267 41.3985 121.977C41.733 121.213 42.1745 120.484 42.5261 119.722C43.176 118.313 43.5085 116.782 43.8296 115.265C44.4756 112.207 45.1025 109.124 45.1025 106.001C46.3051 105.998 47.4975 106.222 48.6173 106.66C48.8449 106.753 49.0297 106.927 49.1355 107.149C49.2412 107.37 49.2602 107.624 49.1887 107.859V107.859Z" fill="#FBBEBE"/>
<path opacity="0.08" d="M49.1887 107.859C47.8279 111.922 48.753 116.406 48.2599 120.679C48.0812 122.03 47.8305 123.369 47.5088 124.693L45.1445 135.22C44.7527 136.971 44.3571 138.733 44.3036 140.526C44.2501 142.318 44.5559 144.157 45.4809 145.699C46.0322 146.594 46.7723 147.358 47.6494 147.937C48.5266 148.516 49.5196 148.896 50.5591 149.052C50.8947 149.099 51.2122 149.232 51.4804 149.439C51.7485 149.647 51.958 149.92 52.0881 150.233C52.1276 150.332 52.1577 150.434 52.1779 150.539C52.2318 150.791 52.2187 151.053 52.1399 151.298C52.0611 151.544 51.9193 151.764 51.7288 151.938C51.3465 152.244 50.8267 152.286 50.3431 152.245C48.0726 152.054 46.1785 150.357 43.9347 149.952C42.0044 149.606 39.9211 150.237 38.1016 149.512C37.9827 149.47 37.8731 149.405 37.7786 149.321C37.6722 149.211 37.5959 149.076 37.5569 148.928C37.1288 147.59 38.008 146.237 38.589 144.96C39.4157 143.136 39.6715 141.106 39.3229 139.134C38.9254 136.91 39.3363 134.559 39.4548 132.292C39.581 130.191 39.8673 128.103 40.311 126.046C40.5977 124.672 40.8404 123.267 41.3985 121.977C41.733 121.213 42.1745 120.484 42.5261 119.722C43.176 118.313 43.5085 116.782 43.8296 115.265C44.4756 112.207 45.1025 109.124 45.1025 106.001C46.3051 105.998 47.4975 106.222 48.6173 106.66C48.8449 106.753 49.0297 106.927 49.1355 107.149C49.2412 107.37 49.2602 107.624 49.1887 107.859V107.859Z" fill="black"/>
<path d="M50.5551 105.94C50.4787 107.915 50.4054 109.89 50.3354 111.865C50.3354 111.932 50.3354 111.997 50.3354 112.056C50.3263 112.814 50.2624 113.569 50.1442 114.317C49.8862 115.72 49.2517 117.024 48.5808 118.283C48.3812 118.682 48.1518 119.065 47.8947 119.43C47.6692 119.736 47.4073 120.015 47.1971 120.328C46.6524 121.142 46.4842 122.14 46.165 123.065C44.7067 127.285 40.1561 129.831 38.6309 134.024C37.4758 133.702 36.3463 133.293 35.2518 132.803C35.141 132.78 35.0363 132.734 34.9448 132.668C34.8532 132.602 34.7769 132.516 34.721 132.418C34.6651 132.32 34.6308 132.211 34.6205 132.098C34.6102 131.985 34.6241 131.872 34.6612 131.765C35.0091 129.198 35.6169 126.672 36.2246 124.149C36.6317 122.45 37.056 120.722 37.9696 119.231C38.7341 117.985 39.8101 116.968 40.8193 115.909C41.1805 115.527 41.5532 115.107 41.6373 114.589C41.6702 114.269 41.6475 113.945 41.5704 113.633C41.364 112.486 41.2149 111.33 41.1232 110.164C41.1232 110.099 41.1232 110.032 41.106 109.973C41.0199 109.096 40.8116 107.955 41.0027 107.135C41.3487 105.644 44.2519 105.338 45.5228 105.308C47.2066 105.26 48.8905 105.596 50.5551 105.94Z" fill="#FBBEBE"/>
<path d="M54.0059 66.3089C55.9344 67.1288 58.1438 66.8937 60.1907 66.4331C62.2376 65.9725 64.2636 65.3036 66.3602 65.2864C66.9469 65.2864 67.6847 65.4603 67.786 66.0394C67.8395 66.3414 67.6809 66.6376 67.528 66.9052C67.247 67.4002 66.945 67.9162 66.4615 68.2144C66.0792 68.4457 65.6397 68.5221 65.2154 68.6425C64.4222 68.868 63.6864 69.2618 62.9219 69.5637C61.6241 70.076 60.2461 70.3282 58.8643 70.5691C58.2234 70.7109 57.567 70.7706 56.911 70.7468C56.4733 70.701 56.0407 70.6147 55.619 70.4888C54.3767 70.1524 53.1484 69.7702 51.9341 69.342C51.6933 69.256 51.4257 69.1509 51.3302 68.9063C51.2861 68.7588 51.2763 68.6032 51.3015 68.4514C51.3497 67.837 51.2955 67.2189 51.141 66.6223C51.0626 66.3242 50.4491 65.2596 50.6555 65.0436C51.1314 64.541 53.5243 66.1044 54.0059 66.3089Z" fill="#FBBEBE"/>
<path opacity="0.08" d="M54.0059 66.3089C55.9344 67.1288 58.1438 66.8937 60.1907 66.4331C62.2376 65.9725 64.2636 65.3036 66.3602 65.2864C66.9469 65.2864 67.6847 65.4603 67.786 66.0394C67.8395 66.3414 67.6809 66.6376 67.528 66.9052C67.247 67.4002 66.945 67.9162 66.4615 68.2144C66.0792 68.4457 65.6397 68.5221 65.2154 68.6425C64.4222 68.868 63.6864 69.2618 62.9219 69.5637C61.6241 70.076 60.2461 70.3282 58.8643 70.5691C58.2234 70.7109 57.567 70.7706 56.911 70.7468C56.4733 70.701 56.0407 70.6147 55.619 70.4888C54.3767 70.1524 53.1484 69.7702 51.9341 69.342C51.6933 69.256 51.4257 69.1509 51.3302 68.9063C51.2861 68.7588 51.2763 68.6032 51.3015 68.4514C51.3497 67.837 51.2955 67.2189 51.141 66.6223C51.0626 66.3242 50.4491 65.2596 50.6555 65.0436C51.1314 64.541 53.5243 66.1044 54.0059 66.3089Z" fill="black"/>
<path opacity="0.1" d="M48.4307 34.6659C48.2992 35.002 48.185 35.3445 48.0885 35.6922C47.1957 36.3898 46.132 36.8349 45.0085 36.9811C43.885 37.1274 42.7428 36.9694 41.7012 36.5236C41.7814 35.9789 41.8235 35.4266 41.9191 34.8838C41.9501 34.6217 42.0403 34.3701 42.1828 34.148C42.3652 33.9221 42.6048 33.7492 42.8766 33.6472C44.4916 32.9458 46.5959 33.265 48.2013 33.8727C48.7384 34.0772 48.6333 34.1384 48.4307 34.6659Z" fill="black"/>
<path d="M44.1954 36.7761C47.6882 36.7761 50.5197 33.9446 50.5197 30.4517C50.5197 26.9589 47.6882 24.1274 44.1954 24.1274C40.7026 24.1274 37.8711 26.9589 37.8711 30.4517C37.8711 33.9446 40.7026 36.7761 44.1954 36.7761Z" fill="#FBBEBE"/>
<path opacity="0.08" d="M50.5562 105.94C50.4797 107.915 50.4065 109.89 50.3364 111.865C49.3215 111.922 48.3124 111.626 47.3377 111.336C45.3079 110.735 43.1922 110.145 41.0955 109.969C41.0095 109.092 40.8012 107.951 40.9923 107.131C41.3383 105.64 44.2414 105.334 45.5124 105.304C47.2077 105.26 48.8915 105.596 50.5562 105.94Z" fill="black"/>
<path d="M57.119 108.801C57.0082 109.015 56.8629 109.317 56.6833 109.161C54.5274 108.97 52.7021 110.848 50.5501 111.072C49.4626 111.185 48.3808 110.867 47.3373 110.558C43.8282 109.518 40.0631 108.511 36.5789 109.616C36.5348 107.621 36.3631 105.631 36.0648 103.658C35.736 101.497 35.2544 99.356 35.0059 97.1829C34.5434 93.1483 34.8874 89.062 34.5511 85.0159C34.4173 83.3837 34.1688 81.7668 34.0274 80.1346C33.6891 76.2758 33.3145 72.1686 34.918 68.6423C35.1474 68.1326 35.378 67.6262 35.6099 67.1229C35.6803 66.9904 35.7251 66.8458 35.7418 66.6967C35.7445 66.6215 35.7342 66.5465 35.7112 66.475C35.6175 66.1539 35.3079 65.9016 35.1225 65.5996C34.8091 65.1065 34.8435 64.4758 34.8874 63.8929C34.9085 63.6463 34.9734 63.4437 34.9906 63.1972C34.3198 62.2664 33.928 61.2037 33.6337 60.0914C33.2954 58.83 33.0813 57.5074 32.7067 56.2574C32.1047 54.2506 31.0745 52.3834 30.5699 50.3498C30.31 49.3043 30.2909 48.1786 30.2775 47.1007C30.2747 46.6617 30.3073 46.2233 30.375 45.7896C30.4629 45.2449 30.6674 44.7346 31.1682 44.4995C31.56 43.9261 31.6861 43.217 31.709 42.5213C31.7282 42.0569 31.709 41.5772 31.8772 41.1433C32.2193 40.2794 33.2151 39.8704 34.1287 39.7347C35.0422 39.599 36.0151 39.6315 36.8598 39.2436C37.1781 39.0875 37.4813 38.9026 37.7658 38.6912C38.8544 37.9666 39.898 37.1765 40.8907 36.3251C40.9144 36.3012 40.9441 36.2841 40.9767 36.2754C41.0206 36.2754 41.0588 36.3041 41.0932 36.3327C41.8883 37.0399 42.6796 37.747 43.4747 38.4523C43.9085 38.8345 44.3424 39.2168 44.7418 39.643C45.3102 40.2412 45.8049 40.9053 46.2154 41.6211C46.409 41.946 46.5826 42.2824 46.7352 42.6284C46.9748 43.1624 47.1698 43.7154 47.3182 44.2816C47.3984 44.5817 47.4634 44.8836 47.5093 45.1875C47.5456 45.4073 47.5762 45.629 47.5972 45.8545C47.6074 45.9285 47.6151 46.003 47.6202 46.0782C47.7533 46.0509 47.879 45.9955 47.989 45.9157C48.1065 45.8323 48.1974 45.7169 48.2509 45.5831C48.2995 45.4601 48.3335 45.3318 48.3522 45.2009C48.3755 45.035 48.3882 44.8677 48.3904 44.7002C48.3904 44.509 48.4038 44.3007 48.4038 44.1019C48.4048 43.7537 48.3722 43.4061 48.3063 43.0641C48.1782 42.4372 47.9011 41.8505 47.7329 41.2332C47.5647 40.6158 47.5112 39.922 47.8247 39.362C47.9431 39.1499 48.1629 38.9435 48.398 38.9932C48.4866 39.0237 48.567 39.074 48.6332 39.1402C48.6994 39.2065 48.7497 39.2869 48.7803 39.3754C48.8896 39.6281 48.9443 39.901 48.9408 40.1762C48.9408 40.31 48.9408 40.419 49.0631 40.4859C49.0918 41.1127 49.5754 41.6326 50.099 41.9709C50.6227 42.3092 51.219 42.5557 51.6873 42.9743C52.2836 43.5018 52.6123 44.2548 53.0251 44.9352C53.2706 45.2916 53.4715 45.6767 53.6234 46.082C53.716 46.4704 53.7508 46.8703 53.7266 47.2689C53.7024 49.7369 53.6756 52.2037 53.6463 54.6692C53.6023 55.7076 53.6535 56.7478 53.7992 57.7769C53.8967 58.3503 54.0553 58.9103 54.0668 59.497C54.1069 61.1139 52.9774 62.4728 52.1938 63.8929C51.6204 64.9192 51.8325 66.2169 52.3352 67.2815C52.8378 68.3461 53.6023 69.2558 54.1891 70.2726C56.2666 73.8734 55.9264 78.2998 55.8041 82.4644C55.6169 88.9352 56.1147 95.4077 57.2891 101.774C57.7211 104.123 58.2218 106.68 57.119 108.801Z" fill="#FF6AB2"/>
<path opacity="0.08" d="M47.5141 45.2009C47.3038 45.2009 47.0974 45.2219 46.8891 45.2449C46.8891 45.436 46.8891 45.6271 46.8891 45.8182C47.1223 45.8182 47.3612 45.8393 47.5962 45.8679C47.7262 45.8832 47.8581 45.9004 47.988 45.9291C48.3999 45.9997 48.7912 46.1596 49.1348 46.3973C49.777 46.8541 50.1554 47.7601 49.7903 48.4558L49.5514 48.5551C49.6484 48.8137 49.6584 49.0969 49.5801 49.3617C49.4673 49.6121 49.0947 49.7573 48.9112 49.5528C48.7048 49.3177 48.8902 48.8457 48.613 48.7004C48.5232 48.6654 48.4234 48.6656 48.3337 48.7011C48.2441 48.7365 48.1711 48.8045 48.1295 48.8915C48.0559 49.0733 48.0379 49.2729 48.0779 49.4649C48.269 50.9767 48.9914 52.4044 49.0182 53.9296C49.0278 54.4208 49.0373 55.0018 48.6933 55.3496C48.0346 56.0224 47.3733 56.6958 46.7094 57.3698C45.4748 58.6274 44.2382 59.8869 42.9347 61.0719C40.9171 62.9099 38.7427 64.5681 36.4365 66.0277C36.1938 66.1825 35.9491 66.3316 35.7045 66.4826C35.6108 66.1615 35.3012 65.9092 35.1158 65.6073C34.8024 65.1142 34.8368 64.4835 34.8807 63.9005C34.9018 63.654 34.9667 63.4514 34.9839 63.2048C34.3131 62.2741 33.9213 61.2114 33.627 60.0991C33.7149 60.0991 33.799 60.0991 33.885 60.0991C34.8062 60.0857 35.6892 59.7531 36.5473 59.4244C37.3195 59.151 38.0734 58.8286 38.8045 58.4592C39.9048 57.8419 40.9308 57.1006 41.8625 56.2498C42.4493 55.7414 43.1507 55.256 43.9247 55.2101C44.3873 54.7342 45.1021 54.4666 45.341 53.8474C45.4426 53.4998 45.4537 53.1321 45.3735 52.779C45.2459 51.9405 45.0666 51.1107 44.8364 50.2944C44.6453 49.6541 44.6969 49.0234 44.5765 48.3678C44.4152 47.6473 44.3408 46.91 44.3548 46.1718C44.4389 44.79 45.1365 43.5343 45.8169 42.3302C45.9526 42.099 46.0844 41.8639 46.2144 41.6288C46.3234 41.4377 46.4342 41.2465 46.5431 41.0554C46.6731 41.0812 46.7904 41.1502 46.8761 41.2512C46.9618 41.3522 47.0109 41.4792 47.0152 41.6116C47.0163 41.8766 46.9561 42.1382 46.8394 42.3761C46.8031 42.464 46.7706 42.5519 46.7343 42.6398C46.4246 43.4177 46.1112 44.1956 45.8016 44.9754C46.2867 44.7057 46.7937 44.4775 47.3172 44.2931C47.5375 44.2231 47.7631 44.1713 47.9919 44.1383C48.1293 44.1194 48.2679 44.1111 48.4066 44.1134C49.0622 44.1134 49.7235 44.3447 50.1267 44.8569C50.2796 45.048 50.3828 45.3443 50.2204 45.5277C49.6122 45.3568 48.9875 45.251 48.3569 45.2124C48.076 45.1894 47.795 45.1837 47.5141 45.2009Z" fill="black"/>
<path d="M56.4553 64.9115L53.6152 74.72L69.62 69.2997L71.6841 60.7812L56.4553 64.9115ZM63.4237 64.9115C62.8504 64.9115 62.3917 64.6802 62.3917 64.3954C62.3917 64.1106 62.8542 63.8794 63.4237 63.8794C63.9933 63.8794 64.4577 64.1106 64.4577 64.3954C64.4577 64.6802 63.9952 64.9115 63.4237 64.9115Z" fill="#464353"/>
<path d="M44.8403 29.9357C48.6182 29.9357 51.6807 28.4331 51.6807 26.5795C51.6807 24.726 48.6182 23.2234 44.8403 23.2234C41.0625 23.2234 38 24.726 38 26.5795C38 28.4331 41.0625 29.9357 44.8403 29.9357Z" fill="#2F2E41"/>
<path opacity="0.9" d="M58.779 67.1056C59.2783 67.1056 59.683 66.9901 59.683 66.8476C59.683 66.7051 59.2783 66.5896 58.779 66.5896C58.2797 66.5896 57.875 66.7051 57.875 66.8476C57.875 66.9901 58.2797 67.1056 58.779 67.1056Z" fill="#97CFED"/>
<path opacity="0.9" d="M57.7458 68.3959C58.2451 68.3959 58.6498 68.2804 58.6498 68.1379C58.6498 67.9954 58.2451 67.8799 57.7458 67.8799C57.2465 67.8799 56.8418 67.9954 56.8418 68.1379C56.8418 68.2804 57.2465 68.3959 57.7458 68.3959Z" fill="#FBBEBE"/>
<path opacity="0.9" d="M64.4587 66.5878C64.958 66.5878 65.3627 66.4723 65.3627 66.3298C65.3627 66.1873 64.958 66.0718 64.4587 66.0718C63.9594 66.0718 63.5547 66.1873 63.5547 66.3298C63.5547 66.4723 63.9594 66.5878 64.4587 66.5878Z" fill="#FBBEBE"/>
<path opacity="0.9" d="M58.5193 68.3959C59.0185 68.3959 59.4233 68.2804 59.4233 68.1379C59.4233 67.9954 59.0185 67.8799 58.5193 67.8799C58.02 67.8799 57.6152 67.9954 57.6152 68.1379C57.6152 68.2804 58.02 68.3959 58.5193 68.3959Z" fill="#FBBEBE"/>
<path opacity="0.9" d="M56.9724 68.1376C57.4717 68.1376 57.8764 68.0221 57.8764 67.8796C57.8764 67.7371 57.4717 67.6216 56.9724 67.6216C56.4731 67.6216 56.0684 67.7371 56.0684 67.8796C56.0684 68.0221 56.4731 68.1376 56.9724 68.1376Z" fill="#FBBEBE"/>
<path opacity="0.9" d="M56.9724 68.9118C57.4717 68.9118 57.8764 68.7963 57.8764 68.6538C57.8764 68.5113 57.4717 68.3958 56.9724 68.3958C56.4731 68.3958 56.0684 68.5113 56.0684 68.6538C56.0684 68.7963 56.4731 68.9118 56.9724 68.9118Z" fill="#FBBEBE"/>
<path opacity="0.9" d="M59.0368 67.8798C59.5361 67.8798 59.9408 67.7643 59.9408 67.6218C59.9408 67.4793 59.5361 67.3638 59.0368 67.3638C58.5376 67.3638 58.1328 67.4793 58.1328 67.6218C58.1328 67.7643 58.5376 67.8798 59.0368 67.8798Z" fill="#FBBEBE"/>
<path opacity="0.9" d="M57.488 67.3637C57.9873 67.3637 58.392 67.2482 58.392 67.1057C58.392 66.9632 57.9873 66.8477 57.488 66.8477C56.9887 66.8477 56.584 66.9632 56.584 67.1057C56.584 67.2482 56.9887 67.3637 57.488 67.3637Z" fill="#FBBEBE"/>
<path opacity="0.9" d="M59.2966 68.1376C59.7959 68.1376 60.2006 68.0221 60.2006 67.8796C60.2006 67.7371 59.7959 67.6216 59.2966 67.6216C58.7973 67.6216 58.3926 67.7371 58.3926 67.8796C58.3926 68.0221 58.7973 68.1376 59.2966 68.1376Z" fill="#97CFED"/>
<path opacity="0.9" d="M59.8122 66.8456C60.3115 66.8456 60.7162 66.7301 60.7162 66.5876C60.7162 66.4451 60.3115 66.3296 59.8122 66.3296C59.3129 66.3296 58.9082 66.4451 58.9082 66.5876C58.9082 66.7301 59.3129 66.8456 59.8122 66.8456Z" fill="#97CFED"/>
<path opacity="0.9" d="M59.8122 67.3637C60.3115 67.3637 60.7162 67.2482 60.7162 67.1057C60.7162 66.9632 60.3115 66.8477 59.8122 66.8477C59.3129 66.8477 58.9082 66.9632 58.9082 67.1057C58.9082 67.2482 59.3129 67.3637 59.8122 67.3637Z" fill="#97CFED"/>
<path opacity="0.9" d="M60.0681 68.1376C60.5674 68.1376 60.9721 68.0221 60.9721 67.8796C60.9721 67.7371 60.5674 67.6216 60.0681 67.6216C59.5688 67.6216 59.1641 67.7371 59.1641 67.8796C59.1641 68.0221 59.5688 68.1376 60.0681 68.1376Z" fill="#97CFED"/>
<path opacity="0.9" d="M62.6501 67.1056C63.1494 67.1056 63.5541 66.9901 63.5541 66.8476C63.5541 66.7051 63.1494 66.5896 62.6501 66.5896C62.1508 66.5896 61.7461 66.7051 61.7461 66.8476C61.7461 66.9901 62.1508 67.1056 62.6501 67.1056Z" fill="#97CFED"/>
<path opacity="0.9" d="M63.6814 66.8456C64.1806 66.8456 64.5854 66.7301 64.5854 66.5876C64.5854 66.4451 64.1806 66.3296 63.6814 66.3296C63.1821 66.3296 62.7773 66.4451 62.7773 66.5876C62.7773 66.7301 63.1821 66.8456 63.6814 66.8456Z" fill="#97CFED"/>
<path opacity="0.9" d="M63.6814 67.3637C64.1806 67.3637 64.5854 67.2482 64.5854 67.1057C64.5854 66.9632 64.1806 66.8477 63.6814 66.8477C63.1821 66.8477 62.7773 66.9632 62.7773 67.1057C62.7773 67.2482 63.1821 67.3637 63.6814 67.3637Z" fill="#97CFED"/>
<path opacity="0.9" d="M62.3923 68.1376C62.8916 68.1376 63.2963 68.0221 63.2963 67.8796C63.2963 67.7371 62.8916 67.6216 62.3923 67.6216C61.893 67.6216 61.4883 67.7371 61.4883 67.8796C61.4883 68.0221 61.893 68.1376 62.3923 68.1376Z" fill="#97CFED"/>
<path opacity="0.9" d="M62.6501 68.1376C63.1494 68.1376 63.5541 68.0221 63.5541 67.8796C63.5541 67.7371 63.1494 67.6216 62.6501 67.6216C62.1508 67.6216 61.7461 67.7371 61.7461 67.8796C61.7461 68.0221 62.1508 68.1376 62.6501 68.1376Z" fill="#97CFED"/>
<path opacity="0.9" d="M62.3923 68.1376C62.8916 68.1376 63.2963 68.0221 63.2963 67.8796C63.2963 67.7371 62.8916 67.6216 62.3923 67.6216C61.893 67.6216 61.4883 67.7371 61.4883 67.8796C61.4883 68.0221 61.893 68.1376 62.3923 68.1376Z" fill="#97CFED"/>
<path opacity="0.9" d="M61.6169 68.1376C62.1162 68.1376 62.5209 68.0221 62.5209 67.8796C62.5209 67.7371 62.1162 67.6216 61.6169 67.6216C61.1176 67.6216 60.7129 67.7371 60.7129 67.8796C60.7129 68.0221 61.1176 68.1376 61.6169 68.1376Z" fill="#97CFED"/>
<path opacity="0.9" d="M60.5857 67.1056C61.0849 67.1056 61.4897 66.9901 61.4897 66.8476C61.4897 66.7051 61.0849 66.5896 60.5857 66.5896C60.0864 66.5896 59.6816 66.7051 59.6816 66.8476C59.6816 66.9901 60.0864 67.1056 60.5857 67.1056Z" fill="#97CFED"/>
<path opacity="0.9" d="M60.8435 67.6218C61.3427 67.6218 61.7475 67.5062 61.7475 67.3637C61.7475 67.2212 61.3427 67.1057 60.8435 67.1057C60.3442 67.1057 59.9395 67.2212 59.9395 67.3637C59.9395 67.5062 60.3442 67.6218 60.8435 67.6218Z" fill="#97CFED"/>
<path opacity="0.9" d="M61.6169 66.8456C62.1162 66.8456 62.5209 66.7301 62.5209 66.5876C62.5209 66.4451 62.1162 66.3296 61.6169 66.3296C61.1176 66.3296 60.7129 66.4451 60.7129 66.5876C60.7129 66.7301 61.1176 66.8456 61.6169 66.8456Z" fill="#3F3D56"/>
<path opacity="0.9" d="M61.6169 67.3637C62.1162 67.3637 62.5209 67.2482 62.5209 67.1057C62.5209 66.9632 62.1162 66.8477 61.6169 66.8477C61.1176 66.8477 60.7129 66.9632 60.7129 67.1057C60.7129 67.2482 61.1176 67.3637 61.6169 67.3637Z" fill="#97CFED"/>
<path d="M61.3591 67.6218C61.8584 67.6218 62.2631 67.5062 62.2631 67.3637C62.2631 67.2212 61.8584 67.1057 61.3591 67.1057C60.8598 67.1057 60.4551 67.2212 60.4551 67.3637C60.4551 67.5062 60.8598 67.6218 61.3591 67.6218Z" fill="#F86D70"/>
<path opacity="0.9" d="M62.3923 67.6218C62.8916 67.6218 63.2963 67.5062 63.2963 67.3637C63.2963 67.2212 62.8916 67.1057 62.3923 67.1057C61.893 67.1057 61.4883 67.2212 61.4883 67.3637C61.4883 67.5062 61.893 67.6218 62.3923 67.6218Z" fill="#97CFED"/>
<path opacity="0.9" d="M62.9079 68.6537C63.4072 68.6537 63.8119 68.5382 63.8119 68.3957C63.8119 68.2532 63.4072 68.1377 62.9079 68.1377C62.4086 68.1377 62.0039 68.2532 62.0039 68.3957C62.0039 68.5382 62.4086 68.6537 62.9079 68.6537Z" fill="#97CFED"/>
<path opacity="0.9" d="M63.4236 67.3637C63.9228 67.3637 64.3276 67.2482 64.3276 67.1057C64.3276 66.9632 63.9228 66.8477 63.4236 66.8477C62.9243 66.8477 62.5195 66.9632 62.5195 67.1057C62.5195 67.2482 62.9243 67.3637 63.4236 67.3637Z" fill="#97CFED"/>
<path opacity="0.9" d="M63.4236 67.8798C63.9228 67.8798 64.3276 67.7643 64.3276 67.6218C64.3276 67.4793 63.9228 67.3638 63.4236 67.3638C62.9243 67.3638 62.5195 67.4793 62.5195 67.6218C62.5195 67.7643 62.9243 67.8798 63.4236 67.8798Z" fill="#97CFED"/>
<path opacity="0.9" d="M63.6814 68.6537C64.1806 68.6537 64.5854 68.5382 64.5854 68.3957C64.5854 68.2532 64.1806 68.1377 63.6814 68.1377C63.1821 68.1377 62.7773 68.2532 62.7773 68.3957C62.7773 68.5382 63.1821 68.6537 63.6814 68.6537Z" fill="#97CFED"/>
<path opacity="0.9" d="M66.2653 67.6218C66.7646 67.6218 67.1694 67.5062 67.1694 67.3637C67.1694 67.2212 66.7646 67.1057 66.2653 67.1057C65.7661 67.1057 65.3613 67.2212 65.3613 67.3637C65.3613 67.5062 65.7661 67.6218 66.2653 67.6218Z" fill="#97CFED"/>
<path opacity="0.9" d="M67.2946 67.3637C67.7939 67.3637 68.1987 67.2482 68.1987 67.1057C68.1987 66.9632 67.7939 66.8477 67.2946 66.8477C66.7954 66.8477 66.3906 66.9632 66.3906 67.1057C66.3906 67.2482 66.7954 67.3637 67.2946 67.3637Z" fill="#97CFED"/>
<path opacity="0.9" d="M67.2946 67.8798C67.7939 67.8798 68.1987 67.7643 68.1987 67.6218C68.1987 67.4793 67.7939 67.3638 67.2946 67.3638C66.7954 67.3638 66.3906 67.4793 66.3906 67.6218C66.3906 67.7643 66.7954 67.8798 67.2946 67.8798Z" fill="#A1616A"/>
<path opacity="0.9" d="M66.0056 68.6537C66.5049 68.6537 66.9096 68.5382 66.9096 68.3957C66.9096 68.2532 66.5049 68.1377 66.0056 68.1377C65.5063 68.1377 65.1016 68.2532 65.1016 68.3957C65.1016 68.5382 65.5063 68.6537 66.0056 68.6537Z" fill="#97CFED"/>
<path opacity="0.9" d="M66.2653 68.6537C66.7646 68.6537 67.1694 68.5382 67.1694 68.3957C67.1694 68.2532 66.7646 68.1377 66.2653 68.1377C65.7661 68.1377 65.3613 68.2532 65.3613 68.3957C65.3613 68.5382 65.7661 68.6537 66.2653 68.6537Z" fill="#97CFED"/>
<path opacity="0.9" d="M66.0056 68.6537C66.5049 68.6537 66.9096 68.5382 66.9096 68.3957C66.9096 68.2532 66.5049 68.1377 66.0056 68.1377C65.5063 68.1377 65.1016 68.2532 65.1016 68.3957C65.1016 68.5382 65.5063 68.6537 66.0056 68.6537Z" fill="#97CFED"/>
<path d="M65.2321 68.6537C65.7314 68.6537 66.1362 68.5382 66.1362 68.3957C66.1362 68.2532 65.7314 68.1377 65.2321 68.1377C64.7329 68.1377 64.3281 68.2532 64.3281 68.3957C64.3281 68.5382 64.7329 68.6537 65.2321 68.6537Z" fill="#F86D70"/>
<path opacity="0.9" d="M64.2009 67.6218C64.7002 67.6218 65.1049 67.5062 65.1049 67.3637C65.1049 67.2212 64.7002 67.1057 64.2009 67.1057C63.7016 67.1057 63.2969 67.2212 63.2969 67.3637C63.2969 67.5062 63.7016 67.6218 64.2009 67.6218Z" fill="#97CFED"/>
<path opacity="0.9" d="M64.4587 68.1376C64.958 68.1376 65.3627 68.0221 65.3627 67.8796C65.3627 67.7371 64.958 67.6216 64.4587 67.6216C63.9594 67.6216 63.5547 67.7371 63.5547 67.8796C63.5547 68.0221 63.9594 68.1376 64.4587 68.1376Z" fill="#97CFED"/>
<path opacity="0.9" d="M65.2321 67.3637C65.7314 67.3637 66.1362 67.2482 66.1362 67.1057C66.1362 66.9632 65.7314 66.8477 65.2321 66.8477C64.7329 66.8477 64.3281 66.9632 64.3281 67.1057C64.3281 67.2482 64.7329 67.3637 65.2321 67.3637Z" fill="#A1616A"/>
<path d="M65.2321 67.8798C65.7314 67.8798 66.1362 67.7643 66.1362 67.6218C66.1362 67.4793 65.7314 67.3638 65.2321 67.3638C64.7329 67.3638 64.3281 67.4793 64.3281 67.6218C64.3281 67.7643 64.7329 67.8798 65.2321 67.8798Z" fill="#F86D70"/>
<path d="M64.9743 68.1376C65.4736 68.1376 65.8783 68.0221 65.8783 67.8796C65.8783 67.7371 65.4736 67.6216 64.9743 67.6216C64.4751 67.6216 64.0703 67.7371 64.0703 67.8796C64.0703 68.0221 64.4751 68.1376 64.9743 68.1376Z" fill="#F86D70"/>
<path opacity="0.9" d="M56.1966 69.9657C56.6873 69.8736 57.0638 69.6854 57.0375 69.5453C57.0112 69.4053 56.5921 69.3664 56.1014 69.4585C55.6107 69.5506 55.2342 69.7388 55.2605 69.8788C55.2868 70.0189 55.7059 70.0578 56.1966 69.9657Z" fill="#97CFED"/>
<path opacity="0.9" d="M56.8938 70.8858C57.3846 70.7937 57.761 70.6055 57.7348 70.4655C57.7085 70.3254 57.2894 70.2866 56.7987 70.3787C56.3079 70.4707 55.9315 70.6589 55.9578 70.799C55.984 70.9391 56.4031 70.9779 56.8938 70.8858Z" fill="#97CFED"/>
<path opacity="0.9" d="M57.1634 69.5233C57.6541 69.4312 58.0306 69.243 58.0043 69.1029C57.978 68.9629 57.5589 68.924 57.0682 69.0161C56.5775 69.1082 56.201 69.2964 56.2273 69.4365C56.2536 69.5765 56.6727 69.6154 57.1634 69.5233Z" fill="#97CFED"/>
<path opacity="0.9" d="M56.6546 70.2058C57.1439 70.1159 57.5197 69.9299 57.4941 69.7902C57.4684 69.6506 57.051 69.6102 56.5617 69.7001C56.0724 69.7899 55.6966 69.976 55.7222 70.1157C55.7479 70.2553 56.1653 70.2957 56.6546 70.2058Z" fill="#97CFED"/>
<path opacity="0.9" d="M57.6556 70.7442C58.1463 70.6521 58.5228 70.4639 58.4965 70.3239C58.4702 70.1838 58.0511 70.1449 57.5604 70.237C57.0697 70.3291 56.6932 70.5173 56.7195 70.6574C56.7458 70.7974 57.1649 70.8363 57.6556 70.7442Z" fill="#97CFED"/>
<path opacity="0.9" d="M60.0032 69.2511C60.4939 69.159 60.8704 68.9708 60.8441 68.8307C60.8179 68.6907 60.3987 68.6518 59.908 68.7439C59.4173 68.836 59.0408 69.0242 59.0671 69.1642C59.0934 69.3043 59.5125 69.3432 60.0032 69.2511Z" fill="#97CFED"/>
<path opacity="0.9" d="M60.97 68.8089C61.4607 68.7168 61.8372 68.5286 61.8109 68.3886C61.7847 68.2485 61.3655 68.2096 60.8748 68.3017C60.3841 68.3938 60.0076 68.582 60.0339 68.7221C60.0602 68.8622 60.4793 68.901 60.97 68.8089Z" fill="#97CFED"/>
<path opacity="0.9" d="M61.0638 69.3158C61.5545 69.2237 61.931 69.0355 61.9047 68.8954C61.8784 68.7554 61.4593 68.7165 60.9686 68.8086C60.4779 68.9007 60.1014 69.0889 60.1277 69.2289C60.154 69.369 60.5731 69.4079 61.0638 69.3158Z" fill="#97CFED"/>
<path opacity="0.9" d="M59.9388 70.3148C60.4295 70.2227 60.806 70.0345 60.7797 69.8944C60.7534 69.7544 60.3343 69.7155 59.8436 69.8076C59.3529 69.8997 58.9764 70.0879 59.0027 70.228C59.029 70.368 59.4481 70.4069 59.9388 70.3148Z" fill="#97CFED"/>
<path opacity="0.9" d="M60.1907 70.2672C60.6814 70.1751 61.0579 69.9869 61.0316 69.8468C61.0053 69.7068 60.5862 69.6679 60.0955 69.76C59.6048 69.8521 59.2283 70.0403 59.2546 70.1803C59.2809 70.3204 59.7 70.3593 60.1907 70.2672Z" fill="#97CFED"/>
<path opacity="0.9" d="M59.9388 70.3148C60.4295 70.2227 60.806 70.0345 60.7797 69.8944C60.7534 69.7544 60.3343 69.7155 59.8436 69.8076C59.3529 69.8997 58.9764 70.0879 59.0027 70.228C59.029 70.368 59.4481 70.4069 59.9388 70.3148Z" fill="#97CFED"/>
<path opacity="0.9" d="M59.179 70.4566C59.6697 70.3645 60.0462 70.1763 60.0199 70.0363C59.9936 69.8962 59.5745 69.8574 59.0838 69.9494C58.5931 70.0415 58.2166 70.2297 58.2429 70.3698C58.2692 70.5099 58.6883 70.5487 59.179 70.4566Z" fill="#97CFED"/>
<path opacity="0.9" d="M57.9739 69.6344C58.4646 69.5423 58.8411 69.3541 58.8148 69.214C58.7886 69.074 58.3694 69.0351 57.8787 69.1272C57.388 69.2193 57.0115 69.4075 57.0378 69.5475C57.0641 69.6876 57.4832 69.7265 57.9739 69.6344Z" fill="#3F3D56"/>
<path opacity="0.9" d="M58.3216 70.0911C58.8123 69.999 59.1888 69.8109 59.1625 69.6708C59.1362 69.5307 58.7171 69.4919 58.2264 69.584C57.7357 69.6761 57.3592 69.8643 57.3855 70.0043C57.4118 70.1444 57.8309 70.1832 58.3216 70.0911Z" fill="#97CFED"/>
<path opacity="0.9" d="M58.9388 69.1883C59.4295 69.0962 59.806 68.908 59.7797 68.768C59.7534 68.6279 59.3343 68.589 58.8436 68.6811C58.3529 68.7732 57.9764 68.9614 58.0027 69.1015C58.029 69.2415 58.4481 69.2804 58.9388 69.1883Z" fill="#3F3D56"/>
<path opacity="0.9" d="M59.0345 69.6969C59.5252 69.6048 59.9017 69.4166 59.8754 69.2765C59.8491 69.1365 59.43 69.0976 58.9393 69.1897C58.4486 69.2818 58.0721 69.47 58.0984 69.61C58.1247 69.7501 58.5438 69.789 59.0345 69.6969Z" fill="#97CFED"/>
<path opacity="0.9" d="M58.8294 69.9994C59.3201 69.9073 59.6966 69.7191 59.6703 69.579C59.644 69.439 59.2249 69.4001 58.7342 69.4922C58.2435 69.5843 57.867 69.7725 57.8933 69.9125C57.9196 70.0526 58.3387 70.0915 58.8294 69.9994Z" fill="#3F3D56"/>
<path opacity="0.9" d="M59.8431 69.8077C60.3338 69.7156 60.7103 69.5274 60.684 69.3874C60.6577 69.2473 60.2386 69.2084 59.7479 69.3005C59.2572 69.3926 58.8807 69.5808 58.907 69.7209C58.9333 69.8609 59.3524 69.8998 59.8431 69.8077Z" fill="#97CFED"/>
<path opacity="0.9" d="M60.5423 70.7259C61.033 70.6338 61.4095 70.4456 61.3832 70.3056C61.3569 70.1655 60.9378 70.1266 60.4471 70.2187C59.9564 70.3108 59.5799 70.499 59.6062 70.6391C59.6325 70.7791 60.0516 70.818 60.5423 70.7259Z" fill="#97CFED"/>
<path opacity="0.9" d="M60.8118 69.3619C61.3025 69.2698 61.679 69.0816 61.6527 68.9416C61.6264 68.8015 61.2073 68.7626 60.7166 68.8547C60.2259 68.9468 59.8494 69.135 59.8757 69.2751C59.902 69.4151 60.3211 69.454 60.8118 69.3619Z" fill="#97CFED"/>
<path opacity="0.9" d="M60.9056 69.8707C61.3963 69.7786 61.7728 69.5904 61.7465 69.4503C61.7202 69.3103 61.3011 69.2714 60.8104 69.3635C60.3197 69.4556 59.9432 69.6438 59.9695 69.7839C59.9958 69.9239 60.4149 69.9628 60.9056 69.8707Z" fill="#97CFED"/>
<path opacity="0.9" d="M61.3021 70.5846C61.7928 70.4925 62.1692 70.3043 62.143 70.1642C62.1167 70.0242 61.6976 69.9853 61.2069 70.0774C60.7162 70.1695 60.3397 70.3577 60.366 70.4977C60.3922 70.6378 60.8113 70.6767 61.3021 70.5846Z" fill="#97CFED"/>
<path opacity="0.9" d="M63.6478 69.0931C64.1385 69.001 64.515 68.8128 64.4887 68.6728C64.4624 68.5327 64.0433 68.4938 63.5526 68.5859C63.0619 68.678 62.6854 68.8662 62.7117 69.0063C62.7379 69.1463 63.157 69.1852 63.6478 69.0931Z" fill="#97CFED"/>
<path opacity="0.9" d="M64.6185 68.6493C65.1092 68.5572 65.4857 68.369 65.4594 68.2289C65.4331 68.0889 65.014 68.05 64.5233 68.1421C64.0326 68.2342 63.6561 68.4224 63.6824 68.5624C63.7086 68.7025 64.1278 68.7414 64.6185 68.6493Z" fill="#97CFED"/>
<path opacity="0.9" d="M64.7122 69.1563C65.2029 69.0642 65.5794 68.876 65.5531 68.736C65.5268 68.5959 65.1077 68.5571 64.617 68.6492C64.1263 68.7413 63.7498 68.9294 63.7761 69.0695C63.8024 69.2096 64.2215 69.2484 64.7122 69.1563Z" fill="#A1616A"/>
<path opacity="0.9" d="M63.5853 70.1551C64.076 70.063 64.4525 69.8748 64.4262 69.7348C64.3999 69.5947 63.9808 69.5558 63.4901 69.6479C62.9994 69.74 62.6229 69.9282 62.6492 70.0683C62.6754 70.2083 63.0946 70.2472 63.5853 70.1551Z" fill="#97CFED"/>
<path opacity="0.9" d="M63.8392 70.107C64.3299 70.0149 64.7064 69.8267 64.6801 69.6867C64.6538 69.5466 64.2347 69.5077 63.744 69.5998C63.2533 69.6919 62.8768 69.8801 62.9031 70.0202C62.9294 70.1602 63.3485 70.1991 63.8392 70.107Z" fill="#97CFED"/>
<path opacity="0.9" d="M63.5853 70.1551C64.076 70.063 64.4525 69.8748 64.4262 69.7348C64.3999 69.5947 63.9808 69.5558 63.4901 69.6479C62.9994 69.74 62.6229 69.9282 62.6492 70.0683C62.6754 70.2083 63.0946 70.2472 63.5853 70.1551Z" fill="#97CFED"/>
<path opacity="0.9" d="M62.8235 70.2984C63.3142 70.2063 63.6907 70.0181 63.6644 69.8781C63.6382 69.738 63.2191 69.6991 62.7283 69.7912C62.2376 69.8833 61.8612 70.0715 61.8874 70.2116C61.9137 70.3517 62.3328 70.3905 62.8235 70.2984Z" fill="#97CFED"/>
<path opacity="0.9" d="M61.0023 69.6709C61.4915 69.581 61.8674 69.3949 61.8418 69.2553C61.8161 69.1156 61.3987 69.0753 60.9094 69.1652C60.4201 69.255 60.0442 69.4411 60.0699 69.5807C60.0955 69.7204 60.513 69.7607 61.0023 69.6709Z" fill="#A1616A"/>
<path opacity="0.9" d="M61.9681 69.9337C62.4588 69.8416 62.8353 69.6534 62.809 69.5133C62.7827 69.3733 62.3636 69.3344 61.8729 69.4265C61.3822 69.5186 61.0057 69.7068 61.032 69.8469C61.0583 69.9869 61.4774 70.0258 61.9681 69.9337Z" fill="#97CFED"/>
<path d="M41.1911 34.7368L41 34.9279C41 34.9279 49.6751 48.4978 51.5959 49.9408L52.1865 49.463C52.1865 49.463 49.9695 45.392 41.1911 34.7368Z" fill="#2F2E41"/>
<path d="M52.695 49.962C52.695 49.962 52.2383 49.1363 52.0624 49.3007C51.8866 49.4651 51.3209 49.8473 51.3954 49.9677C51.4699 50.0881 51.9688 50.7494 51.9688 50.7494C51.9688 50.7494 52.6224 50.7303 52.8231 50.1608L52.695 49.962Z" fill="#464353"/>
<path opacity="0.9" d="M55.5873 54.2925L55.4899 54.2696C55.4899 54.2696 55.5663 53.8281 54.5209 53.3732C54.3299 53.291 54.1346 53.2189 53.936 53.1573C52.3306 52.6508 51.7037 51.5384 52.0248 50.7434C52.0333 50.7166 52.0435 50.6904 52.0554 50.665L52.7243 50.1394L52.8027 50.2063C53.2082 50.5362 53.6508 50.8178 54.1214 51.0453C54.7258 51.3196 55.2067 51.8087 55.4708 52.4176C55.6945 53.0172 55.7351 53.6698 55.5873 54.2925V54.2925Z" fill="#FDD8D8"/>
<path opacity="0.2" d="M52.6739 50.281C52.6739 50.281 52.9013 50.7779 54.0977 51.3647C55.2942 51.9514 55.5484 53.6582 55.5484 53.6582C55.5484 53.6582 54.9253 52.0776 53.9678 51.7871C53.0102 51.4966 52.5859 50.3708 52.5859 50.3708L52.6739 50.281Z" stroke="#2F2E41" stroke-width="0.0477811" stroke-miterlimit="10"/>
<path opacity="0.2" d="M52.4928 50.478C52.4928 50.478 52.4393 51.1489 53.2229 51.7433C54.0065 52.3377 55.4954 53.2971 55.5279 53.7482C55.5279 53.7482 54.8112 53.0009 54.19 52.7524C53.5689 52.504 52.7222 52.0013 52.6266 51.535C52.6266 51.535 52.2826 50.8049 52.3839 50.5201L52.4928 50.478Z" stroke="#2F2E41" stroke-width="0.0477811" stroke-miterlimit="10"/>
<path opacity="0.2" d="M52.2507 50.6267C52.2507 50.6267 51.9296 51.2708 52.7132 52.171C53.0922 52.5208 53.5467 52.7785 54.0415 52.924C54.5927 53.1164 55.0815 53.4546 55.4558 53.9026" stroke="#2F2E41" stroke-width="0.0477811" stroke-miterlimit="10"/>
<path opacity="0.9" d="M62.5853 69.0306C63.076 68.9385 63.4525 68.7503 63.4262 68.6103C63.3999 68.4702 62.9808 68.4313 62.4901 68.5234C61.9994 68.6155 61.6229 68.8037 61.6492 68.9438C61.6754 69.0838 62.0945 69.1227 62.5853 69.0306Z" fill="#3F3D56"/>
<path opacity="0.9" d="M62.681 69.5355C63.1717 69.4434 63.5482 69.2552 63.5219 69.1151C63.4956 68.9751 63.0765 68.9362 62.5858 69.0283C62.0951 69.1204 61.7186 69.3086 61.7449 69.4487C61.7711 69.5887 62.1902 69.6276 62.681 69.5355Z" fill="#97CFED"/>
<path opacity="0.9" d="M62.4759 69.8377C62.9666 69.7456 63.3431 69.5574 63.3168 69.4174C63.2905 69.2773 62.8714 69.2385 62.3807 69.3306C61.89 69.4227 61.5135 69.6109 61.5398 69.7509C61.5661 69.891 61.9852 69.9298 62.4759 69.8377Z" fill="#97CFED"/>
<path d="M29.8319 50.6003C29.8287 50.9637 29.7734 51.3248 29.6675 51.6725C29.593 51.854 29.4764 52.0184 29.3923 52.1962C29.0196 52.9607 29.1839 53.857 29.1323 54.7037C29.0898 55.1834 29.0118 55.6593 28.8992 56.1276C28.4806 58.0771 28.062 60.0284 27.5613 61.9626C27.3969 62.6105 27.2307 63.3234 27.525 63.9216C27.6014 64.0765 27.7046 64.216 27.7677 64.3765C27.9435 64.8161 27.7811 65.3321 27.934 65.7775C28.0153 66.0011 28.1683 66.1915 28.3692 66.3191C28.57 66.4467 28.8075 66.5042 29.0444 66.4827C29.1515 64.6536 30.0096 62.945 31.0551 61.4389C31.552 60.7241 32.1082 60.0265 32.844 59.5621C33.2052 59.3347 33.6085 59.1607 33.899 58.8454C34.1901 58.4837 34.373 58.047 34.4265 57.5859C34.9311 54.761 33.7212 51.9209 32.3241 49.4115C32.0336 48.8897 31.4182 47.7296 30.8047 48.1673C30.1912 48.6049 29.9026 49.8969 29.8319 50.6003Z" fill="#FF6AB2"/>
<path opacity="0.1" d="M44.8403 28.9036C41.4192 28.9036 38.5868 27.6728 38.0803 26.0654C38.027 26.2322 37.9999 26.4063 38 26.5815C38 28.4335 41.058 29.9357 44.8403 29.9357C48.6227 29.9357 51.6788 28.4335 51.6788 26.5815C51.6789 26.4063 51.6518 26.2322 51.5985 26.0654C51.092 27.6728 48.2596 28.9036 44.8403 28.9036Z" fill="black"/>
<g opacity="0.1">
<path opacity="0.1" d="M29.3294 64.3763C29.2644 64.2158 29.1612 64.0763 29.0847 63.9214C28.7904 63.3232 28.9567 62.6103 29.123 61.9624C29.6141 60.0282 30.0327 58.0769 30.4608 56.1274C30.5738 55.6593 30.6511 55.1833 30.6921 54.7035C30.7437 53.8568 30.5812 52.9566 30.952 52.196C31.0399 52.0182 31.1527 51.8538 31.2272 51.6723C31.334 51.3248 31.3894 50.9636 31.3916 50.6001C31.451 49.9675 31.6212 49.3504 31.8943 48.7767C31.8522 48.2187 31.8446 47.6568 31.8369 47.1063C31.8337 46.6673 31.867 46.2287 31.9363 45.7952C32.0223 45.2505 32.2268 44.7402 32.7276 44.5051C33.1098 43.9317 33.2474 43.2227 33.2704 42.527C33.2876 42.0625 33.2704 41.5828 33.4385 41.149C33.7787 40.2851 34.7764 39.8761 35.6881 39.7404C36.5997 39.6047 37.5745 39.6372 38.4192 39.2492C38.7375 39.0932 39.0407 38.9083 39.3252 38.6968C40.1489 38.1235 40.9746 37.5501 41.7544 36.9175L41.1045 36.3441C41.0701 36.3154 41.0319 36.281 40.988 36.2868C40.9554 36.2955 40.9257 36.3126 40.9019 36.3365C39.9056 37.1882 38.8582 37.9784 37.7656 38.7026C37.4811 38.914 37.1779 39.0989 36.8597 39.2549C36.0149 39.6372 35.0478 39.6085 34.1285 39.7461C33.2092 39.8837 32.2173 40.2908 31.8771 41.1547C31.705 41.5886 31.728 42.0683 31.7089 42.5327C31.6859 43.2284 31.5598 43.9394 31.168 44.5109C30.6672 44.7459 30.4627 45.2562 30.3748 45.8009C30.3096 46.2348 30.2796 46.6733 30.285 47.1121C30.285 47.6625 30.3003 48.2244 30.3423 48.7825C30.0684 49.3558 29.8982 49.9731 29.8397 50.6058C29.8365 50.9692 29.7812 51.3303 29.6753 51.678C29.6008 51.8596 29.4842 52.024 29.4001 52.2017C29.0274 52.9662 29.1918 53.8626 29.1402 54.7092C29.0976 55.189 29.0196 55.6649 28.907 56.1331C28.4884 58.0826 28.0699 60.034 27.5691 61.9682C27.4047 62.6161 27.2385 63.329 27.5328 63.9272C27.6092 64.082 27.7125 64.2215 27.7755 64.3821C27.9514 64.8216 27.7889 65.3377 27.9418 65.783C28.0231 66.0066 28.1761 66.1971 28.377 66.3246C28.5778 66.4522 28.8153 66.5097 29.0522 66.4882C29.0917 65.8749 29.2073 65.2689 29.3963 64.684C29.3878 64.5789 29.3653 64.4754 29.3294 64.3763V64.3763Z" fill="black"/>
<path opacity="0.1" d="M48.0088 42.0664C48.1063 42.2576 48.1999 42.4487 48.284 42.6398C48.5244 43.1735 48.7194 43.7266 48.8669 44.293C48.9472 44.5931 49.0122 44.8951 49.058 45.199C49.0944 45.4188 49.1249 45.6405 49.146 45.866C49.1549 45.9399 49.1625 46.0144 49.1689 46.0896C49.302 46.0623 49.4278 46.0069 49.5378 45.9272C49.656 45.8422 49.747 45.7246 49.7996 45.5889C49.8467 45.4655 49.8801 45.3373 49.899 45.2066C49.923 45.0407 49.9364 44.8735 49.9391 44.7059C49.9391 44.5147 49.9506 44.3064 49.9506 44.1077C49.9517 43.7594 49.919 43.4118 49.8531 43.0698C49.727 42.443 49.4479 41.8562 49.2798 41.2389C49.2664 41.1949 49.2568 41.1471 49.2454 41.1013C49.1431 40.9167 49.0831 40.7117 49.0695 40.5011C48.951 40.4342 48.9434 40.3253 48.9472 40.1915C48.9507 39.9162 48.896 39.6433 48.7866 39.3907C48.7561 39.3022 48.7058 39.2217 48.6396 39.1555C48.5734 39.0893 48.4929 39.039 48.4044 39.0085C48.1655 38.9588 47.9457 39.1652 47.831 39.3773C47.5176 39.9373 47.5692 40.633 47.7393 41.2484C47.8119 41.5198 47.9113 41.7931 48.0088 42.0664Z" fill="black"/>
<path opacity="0.1" d="M37.6123 103.662C37.2855 101.5 36.8019 99.3599 36.5535 97.1868C36.0929 93.1522 36.435 89.0659 36.1005 85.0198C35.9648 83.3876 35.7183 81.7707 35.5768 80.1385C35.2386 76.2797 34.8639 72.1724 36.4656 68.6462C36.6968 68.1378 36.9262 67.6313 37.1574 67.1268C37.2279 66.9943 37.2726 66.8497 37.2893 66.7005C37.293 66.6254 37.2826 66.5502 37.2587 66.4788C37.1651 66.1578 36.8555 65.9055 36.6701 65.6035C36.3585 65.1104 36.391 64.4797 36.435 63.8968C36.456 63.6502 36.521 63.4476 36.5382 63.2011C35.8674 62.2703 35.4755 61.2076 35.1812 60.0953C35.1048 59.8086 35.034 59.5219 34.9672 59.2295C34.776 59.3442 34.5849 59.4455 34.3938 59.5621C34.1237 59.7352 33.8731 59.937 33.6465 60.1641C33.9026 61.2498 34.3561 62.2793 34.9844 63.2011C34.9672 63.4476 34.9022 63.6502 34.8811 63.8968C34.8372 64.4797 34.8028 65.1104 35.1162 65.6035C35.3074 65.9036 35.6112 66.1578 35.7049 66.4788C35.7279 66.5504 35.7382 66.6254 35.7355 66.7005C35.7188 66.8497 35.6741 66.9943 35.6036 67.1268C35.3717 67.6364 35.1411 68.1429 34.9117 68.6462C33.3082 72.1724 33.6828 76.2797 34.0211 80.1385C34.1663 81.7688 34.4033 83.3876 34.5448 85.0198C34.8812 89.0659 34.5448 93.1522 34.9996 97.1868C35.2481 99.3599 35.7297 101.5 36.0585 103.662C36.3568 105.635 36.5285 107.625 36.5726 109.619C37.0723 109.463 37.5836 109.346 38.1016 109.27C38.0523 107.392 37.8889 105.52 37.6123 103.662Z" fill="black"/>
<path opacity="0.1" d="M48.8844 110.566C46.2086 109.774 43.3972 109.006 40.666 109.168C42.9022 109.295 45.1689 109.933 47.3363 110.566C48.3798 110.875 49.4616 111.192 50.5491 111.08C50.6389 111.08 50.7287 111.053 50.8185 111.039C50.1634 110.927 49.5171 110.769 48.8844 110.566V110.566Z" fill="black"/>
</g>
<path d="M28.3398 64.8009L29.1808 66.8345C29.3299 67.1919 29.4885 67.5665 29.7905 67.8092C29.9812 67.947 30.2003 68.0405 30.4318 68.0828C30.6632 68.1251 30.9012 68.1152 31.1283 68.0539C31.5795 67.9274 32.0092 67.7341 32.4031 67.4805C33.6779 66.7561 34.9527 66.0299 36.1931 65.2443C38.4982 63.7831 40.6724 62.1249 42.6914 60.2885C43.9948 59.1035 45.2314 57.844 46.4661 56.5864L48.4423 54.5662C48.7863 54.2184 48.7749 53.6354 48.7672 53.1462C48.7405 51.6172 48.0027 50.1952 47.825 48.6815C47.7859 48.4894 47.8039 48.2901 47.8766 48.1081C47.9182 48.0207 47.9915 47.9523 48.0816 47.9169C48.1717 47.8814 48.272 47.8814 48.362 47.917C48.6392 48.0603 48.4538 48.5343 48.6602 48.7694C48.8513 48.9739 49.2164 48.8325 49.3272 48.5783C49.4082 48.3139 49.3987 48.0301 49.3005 47.7717L49.5394 47.6724C49.9044 46.9767 49.526 46.0688 48.8838 45.612C48.2416 45.1552 47.4198 45.0539 46.6324 45.0387V44.4653C47.7532 44.3455 48.8866 44.4415 49.9713 44.7481C50.1357 44.557 50.0306 44.2703 49.8777 44.0773C49.3903 43.46 48.5226 43.2516 47.7447 43.3587C46.9668 43.4657 46.2501 43.8327 45.5544 44.1958L46.5922 41.5946C46.7087 41.3567 46.7683 41.095 46.7662 40.8301C46.7622 40.6979 46.7136 40.5709 46.6282 40.4699C46.5428 40.3689 46.4257 40.2998 46.296 40.2739L45.5697 41.5564C44.8893 42.7585 44.1917 44.0161 44.1076 45.3942C44.0917 46.1331 44.1662 46.8712 44.3293 47.5921C44.4497 48.2476 44.4077 48.8764 44.5892 49.5186C44.8206 50.3346 45 51.1645 45.1263 52.0032C45.2071 52.3564 45.1952 52.7244 45.0919 53.0716C44.8549 53.6909 44.1363 53.9603 43.6776 54.4362C42.9131 54.4821 42.2021 54.9676 41.6153 55.476C40.6837 56.3267 39.6577 57.068 38.5574 57.6854C37.8255 58.0532 37.0717 58.3755 36.3002 58.6505C35.4401 58.9793 34.5571 59.3099 33.6378 59.3252C32.9517 59.3252 32.2445 59.1704 31.5909 59.3768C30.6066 59.6845 30.0619 60.7147 29.6223 61.6397L28.8941 63.1687C28.6679 63.6978 28.4826 64.2435 28.3398 64.8009V64.8009Z" fill="#FBBEBE"/>
<path d="M30.9989 61.3205C31.5092 60.5885 32.0825 59.8756 32.8394 59.4093C32.9808 59.3213 33.1261 59.2411 33.2694 59.1589C32.6827 59.1302 32.0921 59.048 31.5359 59.2201C30.5249 59.5373 29.9649 60.5847 29.51 61.5384L28.757 63.0999C28.5237 63.6387 28.332 64.1946 28.1836 64.7627L28.9003 66.4828H28.9175C29.036 64.6098 29.9209 62.8629 30.9989 61.3205Z" fill="#3F3D56"/>
<path d="M63.2953 64.9878C63.5803 64.9878 63.8114 64.7105 63.8114 64.3685C63.8114 64.0265 63.5803 63.7493 63.2953 63.7493C63.0103 63.7493 62.7793 64.0265 62.7793 64.3685C62.7793 64.7105 63.0103 64.9878 63.2953 64.9878Z" fill="#FBBEBE"/>
<path d="M63.2953 65.2976C63.5803 65.2976 63.8114 65.0203 63.8114 64.6783C63.8114 64.3363 63.5803 64.0591 63.2953 64.0591C63.0103 64.0591 62.7793 64.3363 62.7793 64.6783C62.7793 65.0203 63.0103 65.2976 63.2953 65.2976Z" fill="#FBBEBE"/>
<path opacity="0.9" d="M55.7048 54.7149L55.5729 54.6882C55.5729 54.6882 55.6761 54.1473 54.2656 53.593C54.2675 53.5001 54.2803 53.4077 54.3039 53.3178C54.318 53.2442 54.3405 53.1724 54.3707 53.1038C54.3973 53.0365 54.4313 52.9724 54.472 52.9126C54.5508 52.7741 54.6599 52.6551 54.7912 52.5648C54.8783 52.5039 54.9753 52.4586 55.0779 52.431C55.1525 52.41 55.2297 52.3997 55.3073 52.4004C55.3871 52.4019 55.4666 52.4121 55.5442 52.431C55.8061 53.012 55.9074 53.7631 55.7048 54.7149Z" fill="#97CFED"/>
<path d="M23.2123 126.238C23.2123 126.238 24.4011 127.792 22.6638 130.139C20.9265 132.486 19.495 134.466 20.0741 135.93C20.0741 135.93 22.6944 131.572 24.8274 131.511C26.9603 131.45 25.5536 128.86 23.2123 126.238Z" fill="#97CFED"/>
<path opacity="0.1" d="M23.2131 126.238C23.3168 126.388 23.3985 126.552 23.4558 126.725C25.5371 129.172 26.6456 131.454 24.6465 131.503C22.783 131.555 20.5469 134.888 20.0117 135.729C20.0291 135.794 20.0501 135.858 20.0748 135.92C20.0748 135.92 22.6951 131.563 24.8281 131.501C26.961 131.44 25.5543 128.86 23.2131 126.238Z" fill="black"/>
<path d="M25.4178 128.221C25.4178 128.768 25.3567 129.211 25.2802 129.211C25.2038 129.211 25.1445 128.768 25.1445 128.221C25.1445 127.675 25.221 127.931 25.2955 127.931C25.3701 127.931 25.4178 127.673 25.4178 128.221Z" fill="#FFD037"/>
<path d="M26.1752 128.873C25.6954 129.135 25.275 129.294 25.2406 129.227C25.2062 129.16 25.5636 128.894 26.0433 128.632C26.523 128.37 26.3338 128.562 26.3701 128.632C26.4064 128.703 26.653 128.611 26.1752 128.873Z" fill="#FFD037"/>
<path d="M16.9307 126.238C16.9307 126.238 15.7419 127.792 17.4792 130.139C19.2165 132.486 20.648 134.466 20.0689 135.93C20.0689 135.93 17.4486 131.572 15.3157 131.511C13.1827 131.45 14.5837 128.86 16.9307 126.238Z" fill="#97CFED"/>
<path opacity="0.1" d="M16.9307 126.238C16.8269 126.388 16.7452 126.552 16.6879 126.725C14.6066 129.172 13.4981 131.454 15.4972 131.503C17.3607 131.555 19.5969 134.888 20.132 135.729C20.1147 135.794 20.0936 135.858 20.0689 135.92C20.0689 135.92 17.4486 131.563 15.3157 131.501C13.1827 131.44 14.5837 128.86 16.9307 126.238Z" fill="black"/>
<path d="M14.7207 128.221C14.7207 128.768 14.7819 129.211 14.8583 129.211C14.9348 129.211 14.994 128.768 14.994 128.221C14.994 127.675 14.9176 127.931 14.843 127.931C14.7685 127.931 14.7207 127.673 14.7207 128.221Z" fill="#FFD037"/>
<path d="M13.9634 128.873C14.4431 129.135 14.8617 129.294 14.898 129.227C14.9343 129.16 14.575 128.894 14.0952 128.632C13.6155 128.37 13.8047 128.562 13.7684 128.632C13.7321 128.703 13.4836 128.611 13.9634 128.873Z" fill="#FFD037"/>
<path d="M15.0996 135.727C15.0996 135.727 18.4214 135.625 19.4228 134.911C20.4243 134.196 24.5354 133.347 24.7839 134.49C25.0323 135.633 29.7761 140.178 26.0243 140.208C22.2725 140.239 17.309 139.624 16.3094 139.016C15.3098 138.408 15.0996 135.727 15.0996 135.727Z" fill="#A8A8A8"/>
<path opacity="0.2" d="M26.0912 139.807C22.3413 139.838 17.3759 139.223 16.3763 138.615C15.6118 138.15 15.3118 136.486 15.2105 135.719H15.0996C15.0996 135.719 15.3098 138.395 16.3094 139.008C17.309 139.622 22.2744 140.232 26.0243 140.201C27.108 140.201 27.4826 139.807 27.4615 139.236C27.3106 139.59 26.8977 139.807 26.0912 139.807Z" fill="black"/>
<path d="M108.174 131.816C108.174 131.816 106.051 124.605 108.572 119.298C109.644 117.078 109.967 114.571 109.493 112.152C109.259 111.005 108.92 109.882 108.482 108.797" stroke="#535461" stroke-width="0.382249" stroke-miterlimit="10"/>
<path d="M110.053 105.443C110.053 106.328 108.453 108.884 108.453 108.884C108.453 108.884 106.852 106.321 106.852 105.443C106.866 105.028 107.041 104.635 107.339 104.347C107.638 104.058 108.037 103.897 108.452 103.897C108.867 103.897 109.266 104.058 109.565 104.347C109.864 104.635 110.039 105.028 110.053 105.443V105.443Z" fill="#97CFED"/>
<path d="M112.697 110.34C112.217 111.082 109.48 112.362 109.48 112.362C109.48 112.362 109.53 109.343 110.01 108.601C110.241 108.245 110.603 107.995 111.018 107.906C111.433 107.817 111.867 107.896 112.223 108.127C112.579 108.358 112.83 108.72 112.918 109.135C113.007 109.55 112.928 109.984 112.697 110.34V110.34Z" fill="#97CFED"/>
<path d="M112.581 118.706C111.793 119.103 108.783 118.828 108.783 118.828C108.783 118.828 110.352 116.246 111.14 115.847C111.52 115.656 111.96 115.623 112.364 115.757C112.768 115.891 113.103 116.179 113.294 116.56C113.485 116.94 113.517 117.38 113.383 117.784C113.25 118.188 112.961 118.522 112.581 118.714V118.706Z" fill="#97CFED"/>
<path d="M111.069 125.015C110.358 125.54 107.346 125.779 107.346 125.779C107.346 125.779 108.454 122.97 109.165 122.444C109.334 122.319 109.526 122.228 109.73 122.176C109.934 122.125 110.146 122.114 110.355 122.145C110.563 122.176 110.763 122.247 110.943 122.355C111.124 122.463 111.282 122.606 111.407 122.775C111.533 122.944 111.624 123.136 111.675 123.34C111.726 123.544 111.737 123.756 111.706 123.964C111.675 124.172 111.604 124.372 111.496 124.553C111.388 124.734 111.245 124.891 111.076 125.017L111.069 125.015Z" fill="#97CFED"/>
<path d="M106.121 112.534C106.756 113.15 109.708 113.788 109.708 113.788C109.708 113.788 108.984 110.854 108.351 110.239C108.201 110.09 108.023 109.972 107.827 109.892C107.631 109.812 107.422 109.771 107.21 109.773C106.998 109.775 106.789 109.818 106.594 109.902C106.4 109.985 106.223 110.106 106.076 110.257C105.928 110.409 105.812 110.589 105.735 110.786C105.657 110.982 105.619 111.193 105.623 111.404C105.628 111.616 105.674 111.825 105.759 112.018C105.845 112.212 105.968 112.387 106.121 112.533V112.534Z" fill="#97CFED"/>
<path d="M104.442 119.93C105.232 120.328 108.24 120.053 108.24 120.053C108.24 120.053 106.673 117.471 105.883 117.071C105.506 116.895 105.075 116.872 104.681 117.009C104.287 117.145 103.962 117.429 103.775 117.801C103.587 118.173 103.552 118.604 103.677 119.001C103.801 119.399 104.076 119.732 104.442 119.93V119.93Z" fill="#97CFED"/>
<path d="M103.806 127.354C104.515 127.879 107.527 128.118 107.527 128.118C107.527 128.118 106.418 125.307 105.707 124.781C105.366 124.528 104.938 124.42 104.517 124.483C104.097 124.545 103.718 124.771 103.464 125.113C103.211 125.454 103.103 125.882 103.166 126.303C103.228 126.724 103.455 127.102 103.796 127.356L103.806 127.354Z" fill="#97CFED"/>
<path d="M110.053 105.443C110.053 106.328 108.453 108.884 108.453 108.884C108.453 108.884 106.852 106.321 106.852 105.443C106.866 105.028 107.041 104.635 107.339 104.347C107.638 104.058 108.037 103.897 108.452 103.897C108.867 103.897 109.266 104.058 109.565 104.347C109.864 104.635 110.039 105.028 110.053 105.443V105.443Z" fill="#97CFED"/>
<path d="M112.697 110.34C112.217 111.082 109.48 112.362 109.48 112.362C109.48 112.362 109.53 109.343 110.01 108.601C110.241 108.245 110.603 107.995 111.018 107.906C111.433 107.817 111.867 107.896 112.223 108.127C112.579 108.358 112.83 108.72 112.918 109.135C113.007 109.55 112.928 109.984 112.697 110.34V110.34Z" fill="#97CFED"/>
<path d="M112.581 118.706C111.793 119.103 108.783 118.828 108.783 118.828C108.783 118.828 110.352 116.246 111.14 115.847C111.52 115.656 111.96 115.623 112.364 115.757C112.768 115.891 113.103 116.179 113.294 116.56C113.485 116.94 113.517 117.38 113.383 117.784C113.25 118.188 112.961 118.522 112.581 118.714V118.706Z" fill="#97CFED"/>
<path d="M111.069 125.015C110.358 125.54 107.346 125.779 107.346 125.779C107.346 125.779 108.454 122.97 109.165 122.444C109.334 122.319 109.526 122.228 109.73 122.176C109.934 122.125 110.146 122.114 110.355 122.145C110.563 122.176 110.763 122.247 110.943 122.355C111.124 122.463 111.282 122.606 111.407 122.775C111.533 122.944 111.624 123.136 111.675 123.34C111.726 123.544 111.737 123.756 111.706 123.964C111.675 124.172 111.604 124.372 111.496 124.553C111.388 124.734 111.245 124.891 111.076 125.017L111.069 125.015Z" fill="#97CFED"/>
<path d="M106.121 112.534C106.756 113.15 109.708 113.788 109.708 113.788C109.708 113.788 108.984 110.854 108.351 110.239C108.201 110.09 108.023 109.972 107.827 109.892C107.631 109.812 107.422 109.771 107.21 109.773C106.998 109.775 106.789 109.818 106.594 109.902C106.4 109.985 106.223 110.106 106.076 110.257C105.928 110.409 105.812 110.589 105.735 110.786C105.657 110.982 105.619 111.193 105.623 111.404C105.628 111.616 105.674 111.825 105.759 112.018C105.845 112.212 105.968 112.387 106.121 112.533V112.534Z" fill="#97CFED"/>
<path d="M104.442 119.93C105.232 120.328 108.24 120.053 108.24 120.053C108.24 120.053 106.673 117.471 105.883 117.071C105.506 116.895 105.075 116.872 104.681 117.009C104.287 117.145 103.962 117.429 103.775 117.801C103.587 118.173 103.552 118.604 103.677 119.001C103.801 119.399 104.076 119.732 104.442 119.93V119.93Z" fill="#97CFED"/>
<path d="M103.806 127.354C104.515 127.879 107.527 128.118 107.527 128.118C107.527 128.118 106.418 125.307 105.707 124.781C105.366 124.528 104.938 124.42 104.517 124.483C104.097 124.545 103.718 124.771 103.464 125.113C103.211 125.454 103.103 125.882 103.166 126.303C103.228 126.724 103.455 127.102 103.796 127.356L103.806 127.354Z" fill="#97CFED"/>
<path d="M103.154 131.362C103.154 131.362 105.742 130.848 106.43 130.164C107.118 129.48 110.224 128.281 110.57 129.137C110.916 129.994 115.224 132.903 112.29 133.417C109.356 133.931 105.392 134.101 104.53 133.759C103.668 133.417 103.154 131.362 103.154 131.362Z" fill="#A8A8A8"/>
<path opacity="0.2" d="M112.294 133.097C109.362 133.611 105.396 133.783 104.534 133.441C103.879 133.179 103.422 131.928 103.24 131.339L103.154 131.356C103.154 131.356 103.672 133.411 104.534 133.753C105.396 134.095 109.362 133.925 112.294 133.411C113.139 133.262 113.381 132.914 113.29 132.474C113.217 132.767 112.923 132.988 112.294 133.097Z" fill="black"/>
<path d="M87.0136 68.0279C94.8149 52.8058 103.616 44.8136 90.743 38.3447C89.1292 40.0726 88.3532 41.341 91.466 44.015C93.9747 47.8191 92.2272 49.9516 87.7366 56.9158C80.5369 66.9377 79.1887 71.6703 84.578 77.5418L87.7366 72.7468C86.8214 71.9769 86.6796 70.9158 87.0136 68.0279Z" fill="#FF6AB2"/>
<path d="M92.152 45.2705C96.5257 47.7331 77.4626 68.5604 83.4373 73.6598C87.9278 62.5096 93.4428 55.9863 95.0442 51.4735C98.0049 43.13 94.5887 43.0741 93.8644 42.188L90.6678 44.7758L92.152 45.2705Z" fill="#FF1988"/>
<path d="M87.8899 47.2497C86.6157 47.7948 86.1566 48.1553 85.5685 48.848C84.0386 47.5429 83.5371 46.4241 83.5135 43.4822C84.3888 39.258 88.4607 37.0889 91.0485 38.573C92.5826 40.6282 92.6242 42.0066 91.8477 44.6999C90.4641 45.6305 89.6264 46.1772 87.8899 47.2497Z" fill="#FF6AB2"/>
<path d="M93.5602 40.3236C91.7478 38.2392 89.3672 38.5559 87.5855 40.0572V42.2264L88.9555 45.9558L91.3149 44.6239C93.924 43.9029 94.3522 42.9263 93.5602 40.3236Z" fill="#FF6AB2"/>
<path d="M87.2423 47.2874C86.8434 47.6428 86.5596 47.6951 85.9103 47.4396L83.589 43.7102C85.5205 41.7009 86.7666 39.9466 88.5742 39.7524C89.2315 40.0896 89.2375 40.3423 89.107 40.818L88.1556 41.6933C88.4208 42.0891 88.4145 42.3837 88.1556 43.0252C89.1279 43.207 89.5309 42.9202 90.2106 42.3022C90.7545 42.9345 90.9428 43.3074 91.0098 44.0146L89.3734 45.9174C88.9737 46.2514 88.749 46.3803 88.3459 46.3741L88.1556 45.9174H87.5087C87.5794 46.5163 87.5671 46.8332 87.2423 47.2874Z" fill="#FF1988"/>
<path d="M86.1774 47.2876C85.8611 47.6215 85.8708 47.9204 85.911 48.4674L84.6552 50.5224L84.541 51.9685C84.2928 53.315 84.2812 54.2182 84.541 56.1546C84.4557 56.6589 84.3849 56.8147 84.1985 56.7634V57.0298C82.7319 56.4105 82.0074 55.0175 80.8497 51.0932C80.7355 50.5224 80.6594 50.256 80.4691 49.7612C80.5072 48.3913 80.895 47.6272 81.7249 46.3363C82.5957 45.0549 83.0856 44.4305 83.5136 43.5202L84.9977 43.406C85.4914 43.1473 85.7227 43.0053 86.0252 42.7591C86.2401 42.0448 86.5738 41.9855 87.243 41.9979C87.6083 42.4188 87.594 42.6894 87.0527 43.2538C86.4978 43.9872 86.2792 44.4378 86.4058 45.461C86.0679 46.1782 86.079 46.5772 86.1774 47.2876Z" fill="#EAD6CF"/>
<path d="M84.5403 50.5605C84.6019 50.9748 84.6074 51.2711 84.5403 51.9685H82.2189L81.9906 49.7233C82.8333 48.0099 83.4033 47.3376 84.6545 46.8311C84.6813 47.4988 84.6857 47.8974 84.5403 48.9622H84.8828C84.8261 49.8489 84.7338 50.1398 84.5403 50.5605Z" fill="#EFA788"/>
<path d="M83.8172 44.2051C84.2216 45.2943 84.4423 45.7415 84.8066 45.7653C82.3465 47.565 83.8969 54.7515 84.1978 56.9536C82.3778 54.86 81.7226 53.1071 80.6205 49.8753C81.0419 47.1663 82.1177 46.1789 83.8172 44.2051Z" fill="#EFA788"/>
<path d="M82.0281 49.6468C82.3796 50.7344 83.0411 51.1702 84.5397 51.8921C84.3442 53.4012 84.3875 54.1373 84.5017 54.9365C84.5643 55.8344 84.692 56.6109 84.2353 56.8012C82.4847 54.7082 79.9731 49.4773 83.1697 47.2493C84.4256 46.374 85.0851 45.779 85.3389 45.7651L85.377 45.8412C84.5778 46.2218 82.5201 47.8245 82.0281 49.6468Z" fill="#272D26"/>
<path d="M83.6651 45.7271C83.1491 46.2141 82.8651 46.4941 82.4093 47.059L82.5235 47.1351C83.107 46.6155 83.352 46.2974 83.7793 45.7271H83.6651Z" fill="#272D26"/>
<path d="M84.1973 57.0298V56.8015C83.0937 55.5837 81.7506 52.9018 81.5334 50.5604V49.1904L80.6962 49.7993L80.4678 49.6851C81.114 52.739 81.5274 53.4281 82.3326 55.2032C83.1415 56.6177 83.5906 56.8998 84.1973 57.0298Z" fill="#272D26"/>
<path d="M86.3098 42.4156C86.2413 42.5554 86.2149 42.7203 86.2142 42.8674C86.2335 42.9321 86.2635 42.9773 86.3018 43.0099C86.3414 43.0437 86.3925 43.0659 86.4558 43.0802C86.5647 43.1047 86.7009 43.1041 86.8622 43.1033C86.89 43.1031 86.9186 43.103 86.9478 43.103C87.2879 43.0038 87.4262 42.7112 87.4279 42.4245C87.3868 42.2813 87.3437 42.192 87.2454 42.1415C87.1423 42.0886 86.9706 42.0742 86.6578 42.1125C86.4884 42.1616 86.3783 42.2756 86.3098 42.4156Z" fill="#C9B7A1" stroke="#7F7552" stroke-width="0.0761108"/>
<path d="M86.4061 42.617C86.4081 42.6993 86.4343 42.7693 86.4928 42.8201C86.5546 42.8738 86.6583 42.9111 86.8246 42.9111C86.9477 42.9111 87.0333 42.8923 87.0968 42.8469C87.1588 42.8025 87.2059 42.7284 87.2425 42.6037C87.2236 42.4632 87.1767 42.3924 87.1134 42.3537C87.0456 42.3123 86.9509 42.3022 86.8246 42.3022C86.7075 42.3022 86.6311 42.337 86.57 42.3923C86.5087 42.4477 86.4616 42.5246 86.4061 42.617Z" fill="white" stroke="#7F7552" stroke-width="0.0761108"/>
<ellipse rx="0.152222" ry="0.114166" transform="matrix(-1 0 0 1 86.7482 42.6068)" fill="black"/>
<path fill-rule="evenodd" clip-rule="evenodd" d="M88.5754 35.08C89.0471 34.1205 89.1084 33.2364 89.3526 32.2411C89.7382 30.6693 98.2674 34.0295 97.4593 35.3035L96.2764 37.1683C96.2764 37.1683 95.602 38.4991 95.6083 38.5051C96.2146 39.0892 96.9226 39.1354 97.2973 40.2482C97.7639 41.6341 93.0257 42.8745 91.4439 42.308C89.6685 41.6722 86.7894 40.972 84.9974 38.2131C84.4004 37.2939 85.5632 34.3702 88.5755 35.0801L88.5754 35.08Z" fill="#00006C"/>
<path fill-rule="evenodd" clip-rule="evenodd" d="M88.5743 35.0801C89.046 34.1206 89.1073 33.2365 89.3515 32.2412C89.7371 30.6694 98.2663 34.0296 97.4582 35.3036L96.2753 37.1684C96.2753 37.1684 95.6009 38.4992 95.6072 38.5052C96.2135 39.0893 96.9215 39.1356 97.2961 40.2483C97.7628 41.6342 93.1173 42.447 91.4427 42.3081C89.5847 42.1541 86.5761 41.3537 84.9963 38.2132C84.5037 37.2341 85.5621 34.3703 88.5744 35.0802L88.5743 35.0801Z" fill="#000050"/>
<path d="M87.832 43.0934C90.1736 43.4061 90.9627 42.9615 92.0889 41.8357" stroke="#F5BF00" stroke-width="0.193494"/>
<path fill-rule="evenodd" clip-rule="evenodd" d="M88.5755 35.0801C89.0472 34.1207 89.1085 33.2366 89.3527 32.2413C89.7383 30.6695 98.2675 34.0297 97.4594 35.3037L96.2765 37.1684C96.2765 37.1684 95.6021 38.4993 95.6084 38.5053C96.2147 39.0894 96.9226 39.1356 97.2973 40.2484C97.764 41.6343 93.1111 42.5187 91.4439 42.3082C89.4573 42.0573 86.56 41.3785 84.9975 38.2133C84.5123 37.2305 85.5633 34.3704 88.5755 35.0803L88.5755 35.0801Z" fill="#000003"/>
<path opacity="0.27755" fill-rule="evenodd" clip-rule="evenodd" d="M97.5201 35.1992C96.6084 36.7743 95.4738 38.1703 95.162 40.228C95.0337 41.075 93.3119 41.1781 90.4177 40.6135C88.8775 40.3131 86.8173 38.4568 87.3407 37.5787C87.7305 36.9247 88.4209 35.7195 88.7142 34.7911C89.1476 33.6868 89.4884 31.8933 89.4884 31.8933C88.9862 33.0788 96.2107 36.4576 97.52 35.1992L97.5201 35.1992Z" fill="#00002C"/>
<path fill-rule="evenodd" clip-rule="evenodd" d="M91.1861 31.8167L91.5897 31.9225C91.965 32.0209 92.8775 32.1648 93.5742 32.4849L95.5159 33.3769C95.8815 33.5449 97.8774 34.8172 97.5638 35.2575C96.635 36.5619 88.9656 33.4487 89.5698 31.9122C89.9211 31.5522 90.5729 31.7884 91.1862 31.8168L91.1861 31.8167Z" fill="#000078"/>
<path fill-rule="evenodd" clip-rule="evenodd" d="M91.1861 31.8167L91.5897 31.9225C91.965 32.0209 92.8775 32.1648 93.5742 32.4849L95.5159 33.3769C95.8815 33.5449 97.8774 34.8172 97.5638 35.2575C96.635 36.5619 88.9656 33.4487 89.5698 31.9122C89.9211 31.5522 90.5729 31.7884 91.1862 31.8168L91.1861 31.8167Z" fill="black"/>
<g opacity="0.4" filter="url(#filter0_f)">
<path fill-rule="evenodd" clip-rule="evenodd" d="M89.6231 31.8685C89.5753 31.8953 89.5308 31.9285 89.4904 31.9699C88.8983 33.4758 96.2519 36.4958 97.4202 35.3882C95.9462 36.2335 89.0332 33.3448 89.608 31.8831C89.6129 31.878 89.618 31.8733 89.623 31.8685L89.6231 31.8685Z" fill="#A4E8FC"/>
</g>
<g opacity="0.27347" filter="url(#filter1_f)">
<path fill-rule="evenodd" clip-rule="evenodd" d="M95.9669 35.5871L93.8864 40.3714L92.3321 40.1376C92.3235 40.1364 94.8144 35.4663 94.8144 35.4663C94.9063 35.0874 95.967 35.5872 95.967 35.5872L95.9669 35.5871Z" fill="#8CE4FC"/>
</g>
<path fill-rule="evenodd" clip-rule="evenodd" d="M94.7064 35.3801C95.278 35.8151 92.6234 40.1814 92.6234 40.1814C93.2222 40.7085 89.1504 39.5323 89.1716 39.104C89.5525 39.5004 91.692 34.2851 91.3485 34.1423C91.3498 34.1338 94.7064 35.3801 94.7064 35.3801L94.7064 35.3801Z" fill="black"/>
<g opacity="0.26939" filter="url(#filter2_f)">
<path fill-rule="evenodd" clip-rule="evenodd" d="M91.4001 33.9234C90.9064 35.6829 90.2273 37.2895 89.3197 38.7076L87.7653 38.4739C88.2374 38.837 90.8528 33.9502 90.4148 33.6183C90.5067 33.2394 91.4001 33.9235 91.4001 33.9235L91.4001 33.9234Z" fill="#84E0FC"/>
</g>
<path fill-rule="evenodd" clip-rule="evenodd" d="M90.5913 33.505C90.7309 33.7012 88.4411 38.3526 88.2011 38.26C88.3396 38.499 87.4685 37.4344 87.4685 37.4344C88.7905 35.1666 88.9867 33.8821 89.4041 32.105C89.5505 32.7829 90.0831 33.1336 90.5912 33.505L90.5913 33.505Z" fill="black"/>
<path fill-rule="evenodd" clip-rule="evenodd" d="M97.34 35.4972C97.0959 36.0189 96.0463 37.8347 96.0463 37.8347C95.7923 38.3636 95.1051 40.0742 95.1051 40.0742C94.7263 39.9824 94.0629 40.1545 94.0663 40.1465L96.0073 35.6458C96.0086 35.6373 97.34 35.4972 97.34 35.4972L97.34 35.4972Z" fill="black"/>
<path fill-rule="evenodd" clip-rule="evenodd" d="M84.8033 37.3385C85.4345 35.1586 86.9229 34.8544 88.5939 34.9499C88.7225 35.0051 87.3864 37.7793 87.1583 37.9988C87.025 38.0419 88.1316 39.3808 88.3354 39.3275C88.9735 39.6677 84.8785 37.6623 84.8785 37.6623C85.1305 38.0754 84.7254 37.6078 84.8034 37.3386L84.8033 37.3385Z" fill="url(#paint0_linear)"/>
<path fill-rule="evenodd" clip-rule="evenodd" d="M94.8887 40.646C94.8887 40.646 95.1566 40.2734 95.0808 39.9687C91.6728 40.8833 88.1044 38.2733 87.4063 37.3933C87.529 37.5697 87.1728 37.9794 87.1728 37.9794C86.2752 39.3519 93.88 41.79 94.8887 40.646L94.8887 40.646Z" fill="#0000FF"/>
<path opacity="0.50204" fill-rule="evenodd" clip-rule="evenodd" d="M96.7848 39.5579C96.8682 39.6957 96.9438 39.8569 97.0092 40.0512C97.4759 41.4371 92.7457 42.6548 91.1559 42.1107L91.1051 42.0937L91.0997 42.1294C91.2486 42.1742 91.3921 42.2189 91.5275 42.2653C93.1173 42.8093 97.7784 41.7033 97.293 40.2099C97.2121 39.9611 97.112 39.75 97.0002 39.5902L96.7848 39.5579Z" fill="black"/>
<g opacity="0.45714" filter="url(#filter3_f)">
<path fill-rule="evenodd" clip-rule="evenodd" d="M96.9176 39.6125C96.9254 39.6253 96.9327 39.6387 96.9403 39.652L97.2449 39.6978C97.236 39.6843 97.2274 39.6707 97.2183 39.6577L96.9176 39.6125ZM95.4021 41.7187C94.0115 42.2272 92.1691 42.4666 91.2887 42.1653L91.2379 42.1483L91.2326 42.184C91.3814 42.2289 91.5249 42.2736 91.6603 42.3199C92.4551 42.5919 94.0349 42.4232 95.3577 42.0136L95.4021 41.7187L95.4021 41.7187Z" fill="#E4F4FC"/>
</g>
<g opacity="0.43673" filter="url(#filter4_f)">
<path fill-rule="evenodd" clip-rule="evenodd" d="M92.9911 40.9856C92.2552 40.613 91.6008 41.5278 92.9948 42.122C93.0838 42.4582 92.2202 42.0404 92.2202 42.0404C92.1126 42.2336 88.9199 39.85 88.9199 39.85C88.9212 39.8414 92.9911 40.9856 92.9911 40.9856L92.9911 40.9856Z" fill="#00A0F0"/>
</g>
<g opacity="0.22449" filter="url(#filter5_f)">
<path fill-rule="evenodd" clip-rule="evenodd" d="M88.7345 35.058C88.7431 35.0593 87.5739 37.5549 87.5739 37.5549L87.429 37.4633C88.1703 36.1047 88.2972 35.7002 88.6682 34.9084C88.8247 35.0279 88.7346 35.058 88.7346 35.058L88.7345 35.058Z" fill="white"/>
</g>
<path fill-rule="evenodd" clip-rule="evenodd" d="M93.1136 40.0408L93.5751 40.1024C93.6726 40.1154 93.7618 40.1555 93.823 40.2138C93.8842 40.2721 93.9125 40.3438 93.9016 40.4132L93.8331 40.8495C93.8223 40.9189 93.7731 40.9803 93.6965 41.0202C93.6198 41.0601 93.522 41.0752 93.4245 41.0622L92.9631 41.0006C92.8656 40.9876 92.7764 40.9475 92.7152 40.8892C92.654 40.8309 92.6257 40.7592 92.6366 40.6897L92.705 40.2535C92.7159 40.184 92.7651 40.1226 92.8417 40.0827C92.9183 40.0429 93.0162 40.0278 93.1136 40.0408" fill="#FF00C7"/>
<path d="M87.8325 42.5126C87.8325 43.1696 87.3848 43.6736 86.865 43.6736C86.3452 43.6736 85.8975 43.1696 85.8975 42.5126C85.8975 41.8556 86.3452 41.3516 86.865 41.3516C87.3848 41.3516 87.8325 41.8556 87.8325 42.5126Z" fill="url(#paint1_radial)" stroke="#F5BF00" stroke-width="0.193494"/>
</g>
<defs>
<filter id="filter0_f" x="89.2677" y="31.6791" width="8.34237" height="4.13728" filterUnits="userSpaceOnUse" color-interpolation-filters="sRGB">
<feFlood flood-opacity="0" result="BackgroundImageFix"/>
<feBlend mode="normal" in="SourceGraphic" in2="BackgroundImageFix" result="shape"/>
<feGaussianBlur stdDeviation="0.0946708" result="effect1_foregroundBlur"/>
</filter>
<filter id="filter1_f" x="91.8258" y="34.8182" width="4.6474" height="6.05942" filterUnits="userSpaceOnUse" color-interpolation-filters="sRGB">
<feFlood flood-opacity="0" result="BackgroundImageFix"/>
<feBlend mode="normal" in="SourceGraphic" in2="BackgroundImageFix" result="shape"/>
<feGaussianBlur stdDeviation="0.253115" result="effect1_foregroundBlur"/>
</filter>
<filter id="filter2_f" x="87.2594" y="32.9977" width="4.64727" height="6.21617" filterUnits="userSpaceOnUse" color-interpolation-filters="sRGB">
<feFlood flood-opacity="0" result="BackgroundImageFix"/>
<feBlend mode="normal" in="SourceGraphic" in2="BackgroundImageFix" result="shape"/>
<feGaussianBlur stdDeviation="0.253115" result="effect1_foregroundBlur"/>
</filter>
<filter id="filter3_f" x="91.052" y="39.4321" width="6.37319" height="3.20075" filterUnits="userSpaceOnUse" color-interpolation-filters="sRGB">
<feFlood flood-opacity="0" result="BackgroundImageFix"/>
<feBlend mode="normal" in="SourceGraphic" in2="BackgroundImageFix" result="shape"/>
<feGaussianBlur stdDeviation="0.0902185" result="effect1_foregroundBlur"/>
</filter>
<filter id="filter4_f" x="88.4971" y="39.4271" width="4.92691" height="3.24854" filterUnits="userSpaceOnUse" color-interpolation-filters="sRGB">
<feFlood flood-opacity="0" result="BackgroundImageFix"/>
<feBlend mode="normal" in="SourceGraphic" in2="BackgroundImageFix" result="shape"/>
<feGaussianBlur stdDeviation="0.211401" result="effect1_foregroundBlur"/>
</filter>
<filter id="filter5_f" x="87.3235" y="34.8023" width="1.54373" height="2.85879" filterUnits="userSpaceOnUse" color-interpolation-filters="sRGB">
<feFlood flood-opacity="0" result="BackgroundImageFix"/>
<feBlend mode="normal" in="SourceGraphic" in2="BackgroundImageFix" result="shape"/>
<feGaussianBlur stdDeviation="0.0530798" result="effect1_foregroundBlur"/>
</filter>
<linearGradient id="paint0_linear" x1="86.2692" y1="35.4185" x2="87.3347" y2="39.2257" gradientUnits="userSpaceOnUse">
<stop stop-color="#000018"/>
<stop offset="1" stop-color="#000024" stop-opacity="0"/>
</linearGradient>
<radialGradient id="paint1_radial" cx="0" cy="0" r="1" gradientUnits="userSpaceOnUse" gradientTransform="translate(86.865 42.5126) rotate(90) scale(1.25771 1.06421)">
<stop stop-color="#99E4FC" stop-opacity="0"/>
<stop offset="1" stop-color="#99E4FC" stop-opacity="0.79"/>
</radialGradient>
<clipPath id="clip0">
<path d="M0 0H164.543V155H0V0Z" fill="white"/>
</clipPath>
</defs>
</svg>
