<svg width="205" height="156" viewBox="0 0 205 156" fill="none" xmlns="http://www.w3.org/2000/svg">
<g clip-path="url(#clip0)">
<path d="M98.9109 137.227C54.9079 133.878 2.43224 99.7829 5.10385 64.6764C7.77547 29.5698 58.5987 -3.11148 102.602 0.237148C146.605 3.58577 171.934 69.194 169.263 104.301C166.591 139.407 142.914 140.575 98.9109 137.227Z" fill="#F2F2F2"/>
<path d="M102.601 142.865C153.331 142.865 194.456 140.346 194.456 137.238C194.456 134.13 153.331 131.61 102.601 131.61C51.8709 131.61 10.7461 134.13 10.7461 137.238C10.7461 140.346 51.8709 142.865 102.601 142.865Z" fill="#3F3D56"/>
<path opacity="0.1" d="M102.601 140.869C145.812 140.869 180.841 139.202 180.841 137.147C180.841 135.092 145.812 133.426 102.601 133.426C59.3906 133.426 24.3613 135.092 24.3613 137.147C24.3613 139.202 59.3906 140.869 102.601 140.869Z" fill="black"/>
<path d="M38.5198 155.209C59.7937 155.209 77.0396 153.706 77.0396 151.851C77.0396 149.996 59.7937 148.493 38.5198 148.493C17.2459 148.493 0 149.996 0 151.851C0 153.706 17.2459 155.209 38.5198 155.209Z" fill="#3F3D56"/>
<path opacity="0.1" d="M38.5193 154.018C56.64 154.018 71.3297 153.024 71.3297 151.797C71.3297 150.57 56.64 149.576 38.5193 149.576C20.3987 149.576 5.70898 150.57 5.70898 151.797C5.70898 153.024 20.3987 154.018 38.5193 154.018Z" fill="black"/>
<path d="M172.127 29.4082H35.6152V136.512H172.127V29.4082Z" fill="#3F3D56"/>
<path d="M102.317 44.045H68.64C68.5863 44.0451 68.5331 44.0346 68.4834 44.0141C68.4337 43.9936 68.3885 43.9635 68.3505 43.9256C68.3124 43.8876 68.2823 43.8425 68.2617 43.7928C68.2411 43.7432 68.2305 43.69 68.2305 43.6362C68.2305 43.5825 68.2411 43.5293 68.2617 43.4796C68.2823 43.43 68.3124 43.3849 68.3505 43.3469C68.3885 43.309 68.4337 43.2789 68.4834 43.2584C68.5331 43.2379 68.5863 43.2274 68.64 43.2275H102.317C102.426 43.2278 102.529 43.2709 102.606 43.3476C102.682 43.4242 102.725 43.528 102.725 43.6362C102.725 43.7445 102.682 43.8483 102.606 43.9249C102.529 44.0016 102.426 44.0447 102.317 44.045V44.045Z" fill="#F2F2F2"/>
<path d="M139.184 48.5408H86.2153C86.107 48.5408 86.003 48.4977 85.9264 48.4211C85.8497 48.3444 85.8066 48.2405 85.8066 48.1321C85.8066 48.0237 85.8497 47.9197 85.9264 47.8431C86.003 47.7664 86.107 47.7234 86.2153 47.7234H139.184C139.237 47.7234 139.29 47.734 139.34 47.7545C139.39 47.775 139.435 47.8051 139.473 47.8431C139.51 47.881 139.541 47.9261 139.561 47.9757C139.582 48.0253 139.592 48.0784 139.592 48.1321C139.592 48.1858 139.582 48.2389 139.561 48.2885C139.541 48.3381 139.51 48.3831 139.473 48.4211C139.435 48.459 139.39 48.4891 139.34 48.5097C139.29 48.5302 139.237 48.5408 139.184 48.5408V48.5408Z" fill="#F2F2F2"/>
<path d="M102.481 53.0364H68.8032C68.6948 53.0364 68.5909 52.9933 68.5142 52.9167C68.4376 52.84 68.3945 52.7361 68.3945 52.6277C68.3945 52.5193 68.4376 52.4153 68.5142 52.3387C68.5909 52.2621 68.6948 52.219 68.8032 52.219H102.481C102.589 52.219 102.693 52.2621 102.77 52.3387C102.846 52.4153 102.889 52.5193 102.889 52.6277C102.889 52.7361 102.846 52.84 102.77 52.9167C102.693 52.9933 102.589 53.0364 102.481 53.0364V53.0364Z" fill="#F2F2F2"/>
<path d="M139.184 53.1179H105.506C105.398 53.1179 105.294 53.0749 105.217 52.9982C105.141 52.9216 105.098 52.8176 105.098 52.7092C105.098 52.6008 105.141 52.4969 105.217 52.4202C105.294 52.3436 105.398 52.3005 105.506 52.3005H139.184C139.292 52.3005 139.396 52.3436 139.473 52.4202C139.549 52.4969 139.592 52.6008 139.592 52.7092C139.592 52.8176 139.549 52.9216 139.473 52.9982C139.396 53.0749 139.292 53.1179 139.184 53.1179V53.1179Z" fill="#F2F2F2"/>
<path d="M102.563 57.5323H68.8853C68.7769 57.5323 68.6729 57.4892 68.5963 57.4125C68.5196 57.3359 68.4766 57.2319 68.4766 57.1235C68.4766 57.0152 68.5196 56.9112 68.5963 56.8345C68.6729 56.7579 68.7769 56.7148 68.8853 56.7148H102.563C102.671 56.7148 102.775 56.7579 102.852 56.8345C102.928 56.9112 102.971 57.0152 102.971 57.1235C102.971 57.2319 102.928 57.3359 102.852 57.4125C102.775 57.4892 102.671 57.5323 102.563 57.5323V57.5323Z" fill="#F2F2F2"/>
<path d="M102.645 62.0279H68.9673C68.8589 62.0279 68.7549 61.9848 68.6783 61.9081C68.6017 61.8315 68.5586 61.7276 68.5586 61.6192C68.5586 61.5108 68.6017 61.4068 68.6783 61.3302C68.7549 61.2535 68.8589 61.2104 68.9673 61.2104H102.645C102.753 61.2104 102.857 61.2535 102.934 61.3302C103.01 61.4068 103.053 61.5108 103.053 61.6192C103.053 61.7276 103.01 61.8315 102.934 61.9081C102.857 61.9848 102.753 62.0279 102.645 62.0279V62.0279Z" fill="#F2F2F2"/>
<path d="M117.931 44.1265H108.286C108.177 44.1265 108.073 44.0834 107.997 44.0068C107.92 43.9301 107.877 43.8262 107.877 43.7178C107.877 43.6094 107.92 43.5054 107.997 43.4288C108.073 43.3521 108.177 43.3091 108.286 43.3091H117.931C118.039 43.3091 118.143 43.3521 118.22 43.4288C118.297 43.5054 118.34 43.6094 118.34 43.7178C118.34 43.8262 118.297 43.9301 118.22 44.0068C118.143 44.0834 118.039 44.1265 117.931 44.1265V44.1265Z" fill="#F2F2F2"/>
<path d="M117.931 57.5323H108.286C108.177 57.5323 108.073 57.4892 107.997 57.4125C107.92 57.3359 107.877 57.2319 107.877 57.1235C107.877 57.0152 107.92 56.9112 107.997 56.8345C108.073 56.7579 108.177 56.7148 108.286 56.7148H117.931C118.039 56.7148 118.143 56.7579 118.22 56.8345C118.297 56.9112 118.34 57.0152 118.34 57.1235C118.34 57.2319 118.297 57.3359 118.22 57.4125C118.143 57.4892 118.039 57.5323 117.931 57.5323V57.5323Z" fill="#F2F2F2"/>
<path d="M117.93 61.9461H108.285C108.231 61.9462 108.178 61.9357 108.128 61.9152C108.078 61.8947 108.033 61.8646 107.995 61.8267C107.957 61.7887 107.927 61.7436 107.906 61.694C107.886 61.6443 107.875 61.5911 107.875 61.5374C107.875 61.4836 107.886 61.4304 107.906 61.3808C107.927 61.3311 107.957 61.286 107.995 61.2481C108.033 61.2101 108.078 61.18 108.128 61.1595C108.178 61.139 108.231 61.1285 108.285 61.1287H117.93C117.984 61.1285 118.037 61.139 118.087 61.1595C118.136 61.18 118.182 61.2101 118.22 61.2481C118.258 61.286 118.288 61.3311 118.308 61.3808C118.329 61.4304 118.34 61.4836 118.34 61.5374C118.34 61.5911 118.329 61.6443 118.308 61.694C118.288 61.7436 118.258 61.7887 118.22 61.8267C118.182 61.8646 118.136 61.8947 118.087 61.9152C118.037 61.9357 117.984 61.9462 117.93 61.9461V61.9461Z" fill="#F2F2F2"/>
<path d="M134.116 61.9461H124.47C124.362 61.9458 124.258 61.9027 124.182 61.8261C124.105 61.7494 124.062 61.6456 124.062 61.5374C124.062 61.4291 124.105 61.3253 124.182 61.2487C124.258 61.1721 124.362 61.1289 124.47 61.1287H134.116C134.17 61.1285 134.223 61.139 134.272 61.1595C134.322 61.18 134.367 61.2101 134.405 61.2481C134.443 61.286 134.474 61.3311 134.494 61.3808C134.515 61.4304 134.525 61.4836 134.525 61.5374C134.525 61.5911 134.515 61.6443 134.494 61.694C134.474 61.7436 134.443 61.7887 134.405 61.8267C134.367 61.8646 134.322 61.8947 134.272 61.9152C134.223 61.9357 134.17 61.9462 134.116 61.9461V61.9461Z" fill="#F2F2F2"/>
<path d="M78.2045 48.5408H68.5591C68.4507 48.5408 68.3467 48.4977 68.2701 48.4211C68.1934 48.3444 68.1504 48.2405 68.1504 48.1321C68.1504 48.0237 68.1934 47.9197 68.2701 47.8431C68.3467 47.7664 68.4507 47.7234 68.5591 47.7234H78.2045C78.3129 47.7234 78.4169 47.7664 78.4935 47.8431C78.5702 47.9197 78.6132 48.0237 78.6132 48.1321C78.6132 48.2405 78.5702 48.3444 78.4935 48.4211C78.4169 48.4977 78.3129 48.5408 78.2045 48.5408V48.5408Z" fill="#F2F2F2"/>
<path d="M102.359 110.255H68.6821C68.5737 110.255 68.4698 110.212 68.3931 110.135C68.3165 110.059 68.2734 109.955 68.2734 109.846C68.2734 109.738 68.3165 109.634 68.3931 109.557C68.4698 109.481 68.5737 109.438 68.6821 109.438H102.359C102.468 109.438 102.572 109.481 102.648 109.557C102.725 109.634 102.768 109.738 102.768 109.846C102.768 109.955 102.725 110.059 102.648 110.135C102.572 110.212 102.468 110.255 102.359 110.255Z" fill="#F2F2F2"/>
<path d="M102.195 119.247H68.5181C68.4097 119.247 68.3057 119.204 68.2291 119.127C68.1524 119.05 68.1094 118.946 68.1094 118.838C68.1094 118.73 68.1524 118.626 68.2291 118.549C68.3057 118.472 68.4097 118.429 68.5181 118.429H102.195C102.304 118.429 102.408 118.472 102.484 118.549C102.561 118.626 102.604 118.73 102.604 118.838C102.604 118.946 102.561 119.05 102.484 119.127C102.408 119.204 102.304 119.247 102.195 119.247Z" fill="#F2F2F2"/>
<path d="M102.276 123.742H68.599C68.5453 123.743 68.492 123.732 68.4423 123.712C68.3927 123.691 68.3475 123.661 68.3095 123.623C68.2714 123.585 68.2412 123.54 68.2206 123.49C68.2 123.441 68.1895 123.388 68.1895 123.334C68.1895 123.28 68.2 123.227 68.2206 123.177C68.2412 123.128 68.2714 123.082 68.3095 123.044C68.3475 123.006 68.3927 122.976 68.4423 122.956C68.492 122.935 68.5453 122.925 68.599 122.925H102.276C102.33 122.925 102.383 122.935 102.433 122.956C102.483 122.976 102.528 123.006 102.566 123.044C102.604 123.082 102.634 123.128 102.655 123.177C102.675 123.227 102.686 123.28 102.686 123.334C102.686 123.388 102.675 123.441 102.655 123.49C102.634 123.54 102.604 123.585 102.566 123.623C102.528 123.661 102.483 123.691 102.433 123.712C102.383 123.732 102.33 123.743 102.276 123.742V123.742Z" fill="#F2F2F2"/>
<path d="M116.664 119.328H107.018C106.91 119.328 106.806 119.285 106.729 119.208C106.652 119.132 106.609 119.028 106.609 118.919C106.609 118.811 106.652 118.707 106.729 118.63C106.806 118.554 106.91 118.511 107.018 118.511H116.664C116.772 118.511 116.876 118.554 116.953 118.63C117.029 118.707 117.072 118.811 117.072 118.919C117.072 119.028 117.029 119.132 116.953 119.208C116.876 119.285 116.772 119.328 116.664 119.328Z" fill="#F2F2F2"/>
<path d="M116.664 123.742H107.018C106.91 123.742 106.806 123.699 106.729 123.623C106.652 123.546 106.609 123.442 106.609 123.334C106.609 123.225 106.652 123.121 106.729 123.045C106.806 122.968 106.91 122.925 107.018 122.925H116.664C116.772 122.925 116.876 122.968 116.953 123.045C117.029 123.121 117.072 123.225 117.072 123.334C117.072 123.442 117.029 123.546 116.953 123.623C116.876 123.699 116.772 123.742 116.664 123.742V123.742Z" fill="#F2F2F2"/>
<path d="M132.849 119.328H123.204C123.095 119.328 122.991 119.285 122.915 119.208C122.838 119.132 122.795 119.028 122.795 118.919C122.795 118.811 122.838 118.707 122.915 118.63C122.991 118.554 123.095 118.511 123.204 118.511H132.849C132.957 118.511 133.061 118.554 133.138 118.63C133.215 118.707 133.258 118.811 133.258 118.919C133.258 119.028 133.215 119.132 133.138 119.208C133.061 119.285 132.957 119.328 132.849 119.328V119.328Z" fill="#F2F2F2"/>
<path d="M139.225 114.751H86.2564C86.148 114.751 86.044 114.708 85.9674 114.631C85.8907 114.554 85.8477 114.45 85.8477 114.342C85.8477 114.234 85.8907 114.13 85.9674 114.053C86.044 113.976 86.148 113.933 86.2564 113.933H139.225C139.333 113.933 139.437 113.976 139.514 114.053C139.59 114.13 139.633 114.234 139.633 114.342C139.633 114.45 139.59 114.554 139.514 114.631C139.437 114.708 139.333 114.751 139.225 114.751V114.751Z" fill="#F2F2F2"/>
<path d="M78.2455 114.751H68.6001C68.4917 114.751 68.3878 114.708 68.3111 114.631C68.2345 114.554 68.1914 114.45 68.1914 114.342C68.1914 114.234 68.2345 114.13 68.3111 114.053C68.3878 113.976 68.4917 113.933 68.6001 113.933H78.2455C78.3539 113.933 78.4579 113.976 78.5345 114.053C78.6112 114.13 78.6543 114.234 78.6543 114.342C78.6543 114.45 78.6112 114.554 78.5345 114.631C78.4579 114.708 78.3539 114.751 78.2455 114.751V114.751Z" fill="#F2F2F2"/>
<path d="M139.223 128.32H86.2553C86.2015 128.32 86.1483 128.309 86.0986 128.289C86.0489 128.268 86.0038 128.238 85.9657 128.2C85.9277 128.162 85.8975 128.117 85.8769 128.068C85.8563 128.018 85.8457 127.965 85.8457 127.911C85.8457 127.857 85.8563 127.804 85.8769 127.755C85.8975 127.705 85.9277 127.66 85.9657 127.622C86.0038 127.584 86.0489 127.554 86.0986 127.533C86.1483 127.513 86.2015 127.502 86.2553 127.502H139.223C139.332 127.502 139.436 127.546 139.512 127.622C139.589 127.699 139.632 127.803 139.632 127.911C139.632 128.02 139.589 128.124 139.512 128.2C139.436 128.277 139.332 128.32 139.223 128.32V128.32Z" fill="#F2F2F2"/>
<path d="M78.2445 128.32H68.599C68.5453 128.32 68.492 128.309 68.4423 128.289C68.3927 128.268 68.3475 128.238 68.3095 128.2C68.2714 128.162 68.2412 128.117 68.2206 128.068C68.2 128.018 68.1895 127.965 68.1895 127.911C68.1895 127.857 68.2 127.804 68.2206 127.755C68.2412 127.705 68.2714 127.66 68.3095 127.622C68.3475 127.584 68.3927 127.554 68.4423 127.533C68.492 127.513 68.5453 127.502 68.599 127.502H78.2445C78.2982 127.502 78.3514 127.513 78.4011 127.533C78.4508 127.554 78.496 127.584 78.534 127.622C78.5721 127.66 78.6022 127.705 78.6228 127.755C78.6434 127.804 78.654 127.857 78.654 127.911C78.654 127.965 78.6434 128.018 78.6228 128.068C78.6022 128.117 78.5721 128.162 78.534 128.2C78.496 128.238 78.4508 128.268 78.4011 128.289C78.3514 128.309 78.2982 128.32 78.2445 128.32Z" fill="#F2F2F2"/>
<path d="M94.2251 72.8176L81.1465 85.7327L94.2251 98.6477L97.1677 95.7051L87.2772 85.8144L97.2494 75.8419L94.2251 72.8176Z" fill="#97CFED"/>
<path d="M113.517 72.8176L126.595 85.7327L113.517 98.6477L110.574 95.7051L120.465 85.8144L110.492 75.8419L113.517 72.8176Z" fill="#97CFED"/>
<path d="M39.2451 33.7649C40.1474 33.7649 40.8789 33.0334 40.8789 32.1311C40.8789 31.2288 40.1474 30.4973 39.2451 30.4973C38.3428 30.4973 37.6113 31.2288 37.6113 32.1311C37.6113 33.0334 38.3428 33.7649 39.2451 33.7649Z" fill="#97CFED"/>
<path d="M43.6025 33.7649C44.5048 33.7649 45.2363 33.0334 45.2363 32.1311C45.2363 31.2288 44.5048 30.4973 43.6025 30.4973C42.7002 30.4973 41.9688 31.2288 41.9688 32.1311C41.9688 33.0334 42.7002 33.7649 43.6025 33.7649Z" fill="#97CFED"/>
<path d="M47.96 33.7649C48.8623 33.7649 49.5937 33.0334 49.5937 32.1311C49.5937 31.2288 48.8623 30.4973 47.96 30.4973C47.0576 30.4973 46.3262 31.2288 46.3262 32.1311C46.3262 33.0334 47.0576 33.7649 47.96 33.7649Z" fill="#97CFED"/>
<path opacity="0.1" d="M172.127 34.8542H35.6152V35.3988H172.127V34.8542Z" fill="black"/>
<path d="M204.44 110.272C204.44 121.848 197.558 125.891 189.069 125.891C180.579 125.891 173.697 121.848 173.697 110.272C173.697 98.6956 189.069 83.9685 189.069 83.9685C189.069 83.9685 204.44 98.6956 204.44 110.272Z" fill="#F2F2F2"/>
<path d="M188.508 124.12L188.666 114.431L195.217 102.445L188.69 112.911L188.761 108.555L193.276 99.8834L188.78 107.402L188.907 99.5671L193.742 92.6633L188.927 98.3351L189.006 83.9685L188.507 102.987L188.548 102.203L183.632 94.6781L188.469 103.709L188.011 112.459L187.997 112.227L182.33 104.308L187.98 113.047L187.923 114.142L187.913 114.158L187.917 114.248L186.755 136.449H188.308L188.494 124.982L194.13 116.264L188.508 124.12Z" fill="#3F3D56"/>
<path d="M22.2603 136.347C21.7887 136.609 21.2912 136.822 20.7757 136.982C19.8537 137.234 18.8683 137.142 17.9371 137.357C17.5558 137.445 17.1408 137.629 17.0196 138.001C16.9306 138.274 17.0274 138.569 17.12 138.84C18.1491 141.857 18.7693 145.061 20.4103 147.794C21.1 148.941 21.956 149.981 22.9505 150.877C23.3235 151.214 23.7463 151.543 24.2458 151.595C24.4759 151.62 24.7084 151.583 24.9198 151.488C25.1312 151.394 25.314 151.246 25.4497 151.058C25.5854 150.871 25.6693 150.651 25.6928 150.421C25.7164 150.19 25.6787 149.958 25.5837 149.747C25.4366 149.42 25.1631 149.167 24.9867 148.855C24.7954 148.457 24.6832 148.026 24.6564 147.586C24.4943 146.295 24.3381 144.947 24.7852 143.725C25.085 142.906 25.6351 142.208 26.0934 141.466C26.5516 140.723 26.9323 139.873 26.8304 139.007C26.7608 138.416 26.4724 137.875 26.1678 137.363C25.8625 136.851 25.2593 135.474 24.646 135.303C24.0095 135.125 22.8154 136.062 22.2603 136.347Z" fill="#2F2E41"/>
<path d="M39.0389 146.768C39.0485 147.06 39.0077 147.352 38.9185 147.63C38.7265 148.137 38.2502 148.484 38.0042 148.967C37.662 149.639 37.8171 150.451 38.0438 151.17C38.186 151.621 38.3724 152.09 38.7541 152.368C39.0805 152.571 39.4517 152.69 39.8349 152.715C43.109 153.168 46.435 152.908 49.739 153.003C50.3412 153.02 50.9787 153.041 51.5044 152.747C52.0301 152.453 52.3551 151.713 51.9975 151.228C51.6765 150.792 51.0417 150.796 50.5013 150.771C49.0942 150.699 47.7542 150.147 46.705 149.207C46.4981 149.03 46.3186 148.824 46.1725 148.594C46.0601 148.39 45.9669 148.176 45.8939 147.955C45.4308 146.701 44.8798 145.48 44.245 144.303C44.0673 143.974 43.8661 143.631 43.5359 143.454C43.2942 143.344 43.0319 143.287 42.7664 143.286C41.9429 143.233 39.8105 142.953 39.1737 143.593C38.5853 144.185 39.0519 146.017 39.0389 146.768Z" fill="#2F2E41"/>
<path d="M44.1075 73.6464C47.0125 73.6464 49.3674 71.2915 49.3674 68.3866C49.3674 65.4816 47.0125 63.1267 44.1075 63.1267C41.2026 63.1267 38.8477 65.4816 38.8477 68.3866C38.8477 71.2915 41.2026 73.6464 44.1075 73.6464Z" fill="#FBBEBE"/>
<path d="M39.3579 72.7297C39.045 73.5673 38.5144 74.3539 37.7422 74.8046L45.017 76.2886C44.7531 75.2268 44.7184 74.1211 44.915 73.0448C44.9872 72.7843 45.002 72.5112 44.9585 72.2444C44.8217 71.7166 44.2276 71.4626 43.696 71.3414C42.3683 71.0387 41.1941 70.8764 39.9603 70.29C39.5831 70.9357 39.6359 71.9854 39.3579 72.7297Z" fill="#FBBEBE"/>
<path d="M37.6813 72.8353C38.4639 72.4812 39.3165 72.3088 40.1752 72.3313C41.0339 72.3537 41.8764 72.5703 42.6395 72.9649C43.5721 73.4564 44.3444 74.1982 45.1031 74.9302C45.8025 75.6049 46.5486 76.3774 46.5982 77.3479C46.6222 77.8181 46.4755 78.2779 46.4014 78.7428C46.2682 79.7043 46.4375 80.6834 46.8857 81.5443C47.3339 82.4053 48.0389 83.1055 48.9029 83.5478C49.4808 84.5106 49.6001 85.677 49.609 86.7998C49.6426 91.0542 48.3003 95.361 49.2585 99.5062C49.4835 100.479 49.8325 101.422 50.0268 102.402C50.2786 103.671 50.2662 104.976 50.3979 106.263C50.5407 107.657 50.8524 109.028 51.3261 110.347C51.0095 110.85 50.3506 111.043 49.7572 111.002C49.1639 110.962 48.609 110.704 48.0795 110.433C45.5157 109.121 43.1674 107.391 40.512 106.276C38.7552 105.538 36.8837 105.079 35.1794 104.227C33.4751 103.375 31.8901 102.023 31.369 100.19C31.1436 99.3977 31.1298 98.5627 31.1175 97.7389C31.0657 94.2692 31.0175 90.7615 31.7728 87.3746C32.4388 84.3877 33.7227 81.5304 34.0028 78.483C34.094 77.4911 34.0959 76.4292 34.6501 75.6015C35.4335 74.4316 37.1248 74.1286 37.6813 72.8353Z" fill="#2F2E41"/>
<path d="M41.1164 68.4608C41.4263 68.0566 42.0241 68.0015 42.5193 68.1211C43.0144 68.2406 43.471 68.4958 43.971 68.5928C44.0847 68.625 44.2039 68.6332 44.3209 68.6168C44.4379 68.6004 44.5502 68.5597 44.6505 68.4973C44.8254 68.3252 44.9299 68.0942 44.9438 67.8492C45.119 66.807 45.1599 65.7467 45.0656 64.6941C45.0396 64.5464 45.0494 64.3947 45.0944 64.2516C45.2182 63.9533 45.5959 63.8823 45.9044 63.7866C46.4134 63.6146 46.8505 63.2779 47.1468 62.8297C47.4431 62.3816 47.5816 61.8475 47.5405 61.3118C47.5328 61.0548 47.4249 60.8111 47.2398 60.6327C47.0265 60.4589 46.7279 60.4482 46.4527 60.446C45.0388 60.4347 43.6249 60.435 42.2109 60.447C41.6876 60.4515 41.138 60.4644 40.6843 60.7253C40.3489 60.9182 40.0995 61.2287 39.7984 61.4717C39.013 62.1054 37.9508 62.2343 36.9953 62.5592C36.5289 62.692 36.1054 62.9445 35.7668 63.2918C35.4491 63.6548 35.2963 64.1945 35.4958 64.6337C35.5983 64.8168 35.7127 64.9929 35.8384 65.1609C36.402 66.062 36.0268 67.2309 36.1109 68.2904C36.216 69.6135 38.174 71.7598 39.5017 72.0729C41.6452 72.5783 40.4068 69.3293 41.1164 68.4608Z" fill="#2F2E41"/>
<path d="M38.1458 126.47C38.2811 127.436 38.4546 128.405 38.4082 129.38C38.3435 130.74 37.8529 132.051 37.7622 133.41C37.6944 134.424 37.8511 135.45 37.7102 136.458C37.6199 137.103 37.4096 137.724 37.2794 138.363C37.0731 139.403 37.079 140.473 37.2965 141.511C37.514 142.549 37.9387 143.532 38.5452 144.401C38.6343 144.55 38.761 144.673 38.9125 144.757C39.0579 144.811 39.2134 144.832 39.3678 144.818C40.8987 144.786 42.4255 144.648 43.937 144.402C44.0476 144.398 44.1524 144.352 44.2303 144.273C44.2644 144.221 44.2862 144.162 44.2941 144.1C44.5743 142.659 43.9352 141.215 43.7727 139.756C43.5992 138.198 43.9729 136.638 44.3438 135.115C44.512 134.364 44.7222 133.623 44.9733 132.895C45.1526 132.406 45.3691 131.93 45.5245 131.432C45.7446 130.65 45.8786 129.846 45.9242 129.035C46.0321 127.755 46.0893 126.472 46.0957 125.187C46.1324 123.968 46.031 122.75 45.7935 121.554C45.4526 120.041 44.7544 118.635 44.0624 117.247C43.6924 117.335 43.345 117.5 43.0426 117.731C42.1508 118.309 41.2197 118.823 40.2561 119.271C39.6086 119.572 38.346 119.785 37.9351 120.412C37.5299 121.03 37.7913 122.291 37.8223 122.972C37.8754 124.142 37.9833 125.308 38.1458 126.47Z" fill="#2F2E41"/>
<path opacity="0.1" d="M38.1458 126.47C38.2811 127.436 38.4546 128.405 38.4082 129.38C38.3435 130.74 37.8529 132.051 37.7622 133.41C37.6944 134.424 37.8511 135.45 37.7102 136.458C37.6199 137.103 37.4096 137.724 37.2794 138.363C37.0731 139.403 37.079 140.473 37.2965 141.511C37.514 142.549 37.9387 143.532 38.5452 144.401C38.6343 144.55 38.761 144.673 38.9125 144.757C39.0579 144.811 39.2134 144.832 39.3678 144.818C40.8987 144.786 42.4255 144.648 43.937 144.402C44.0476 144.398 44.1524 144.352 44.2303 144.273C44.2644 144.221 44.2862 144.162 44.2941 144.1C44.5743 142.659 43.9352 141.215 43.7727 139.756C43.5992 138.198 43.9729 136.638 44.3438 135.115C44.512 134.364 44.7222 133.623 44.9733 132.895C45.1526 132.406 45.3691 131.93 45.5245 131.432C45.7446 130.65 45.8786 129.846 45.9242 129.035C46.0321 127.755 46.0893 126.472 46.0957 125.187C46.1324 123.968 46.031 122.75 45.7935 121.554C45.4526 120.041 44.7544 118.635 44.0624 117.247C43.6924 117.335 43.345 117.5 43.0426 117.731C42.1508 118.309 41.2197 118.823 40.2561 119.271C39.6086 119.572 38.346 119.785 37.9351 120.412C37.5299 121.03 37.7913 122.291 37.8223 122.972C37.8754 124.142 37.9833 125.308 38.1458 126.47Z" fill="black"/>
<path d="M31.0354 105.836C30.3369 107.717 31.3636 109.749 32.2556 111.546C34.4533 115.973 35.9793 120.696 37.4973 125.4C37.611 125.752 37.7246 126.136 37.5978 126.484C37.4884 126.731 37.3107 126.942 37.0856 127.092C36.039 127.887 34.7063 128.17 33.4595 128.586C32.2547 128.988 31.1007 129.529 30.0209 130.198C29.1174 130.758 28.2711 131.404 27.4264 132.049L24.7376 134.103C24.5635 134.22 24.4114 134.367 24.2882 134.538C24.0288 134.944 24.135 135.476 24.2642 135.94C24.6061 137.171 25.0463 138.373 25.5807 139.533C25.6686 139.788 25.8359 140.007 26.0581 140.159C26.4778 140.385 26.9911 140.086 27.3116 139.733C27.6321 139.38 27.9093 138.942 28.361 138.79C28.8123 138.639 29.3089 138.822 29.7802 138.756C30.5424 138.649 31.0484 137.947 31.5978 137.408C33.8425 135.206 37.5902 135.365 40.0594 133.418C40.4164 133.099 40.7942 132.804 41.1906 132.535C41.608 132.288 42.0814 132.153 42.5145 131.934C43.8318 131.271 44.6599 129.9 45.1036 128.493C45.5472 127.087 45.6737 125.602 45.9925 124.162C46.1573 123.417 46.3742 122.681 46.4476 121.922C46.4947 121.216 46.4793 120.507 46.4016 119.804L45.5106 108.782C45.4381 107.885 45.3654 106.987 45.2246 106.097C42.5785 106.192 39.9342 106.298 37.2866 106.33C35.1798 106.355 33.0344 106.502 31.0354 105.836Z" fill="#2F2E41"/>
<path d="M30.0622 108.414C30.4211 108.992 31.2948 108.98 31.8964 108.663C32.498 108.347 32.9654 107.815 33.5684 107.501C34.3788 107.079 35.3377 107.095 36.2508 107.121C37.6964 107.162 39.1598 107.205 40.5507 107.602C41.9893 108.011 43.3898 108.8 44.8773 108.643C45.1362 108.615 45.4192 108.541 45.5601 108.322C45.6426 108.164 45.6814 107.986 45.6726 107.808L45.7212 106.508C45.751 106.283 45.7151 106.055 45.6177 105.85C45.4929 105.679 45.3218 105.548 45.1247 105.472C43.0074 104.447 40.5928 104.257 38.2419 104.176C37.0469 104.135 35.8514 104.118 34.6553 104.126C33.6404 104.132 32.4219 103.985 31.4352 104.256C30.1109 104.62 29.3903 107.334 30.0622 108.414Z" fill="#2F2E41"/>
<path d="M43.3563 74.3782C40.5821 74.3536 38.0681 72.5225 35.2941 72.4779C34.959 72.4547 34.6232 72.5126 34.3152 72.6468C33.9287 72.8415 33.6745 73.218 33.3809 73.536C32.5607 74.4242 31.373 74.8984 30.5303 75.7654C29.7402 76.5783 29.3008 77.7894 29.6128 78.8792C29.9247 79.969 31.102 80.805 32.2049 80.543C32.6492 79.1047 33.5663 77.8587 34.8074 77.0069C35.4532 76.5926 36.1338 76.2353 36.8416 75.9391C38.0883 75.3742 39.4824 74.7985 40.784 75.222C41.2641 75.4032 41.7167 75.6501 42.129 75.9554L44.299 77.4131C44.0462 76.4158 43.8188 75.2973 43.3563 74.3782Z" fill="#97CFED"/>
<path d="M31.8854 79.5787C31.517 80.0383 32.0476 80.7041 31.9664 81.2875C31.9125 81.6751 31.5935 81.971 31.4607 82.3391C31.3231 82.7204 31.396 83.1428 31.3439 83.5447C31.2915 83.837 31.2141 84.1243 31.1124 84.4033C30.8787 85.2368 30.7156 86.0885 30.6247 86.9494L30.1392 90.5756C30.0549 91.1213 30.0036 91.6716 29.9856 92.2235C30.0101 92.636 29.9825 93.05 29.9035 93.4556C29.796 93.8518 29.5579 94.1985 29.3977 94.5766C29.2376 94.9547 29.1633 95.412 29.3797 95.761C28.6551 96.3645 28.4397 97.5497 28.9463 98.3451C29.0428 98.469 29.1182 98.6079 29.1696 98.7563C29.1976 98.9637 29.1634 99.1747 29.0713 99.3626L28.5803 100.671C28.4546 101.006 28.4149 101.516 28.7643 101.592C28.4749 101.893 28.2494 102.249 28.1014 102.639C28.0297 102.835 28.0082 103.046 28.0391 103.252C28.0699 103.458 28.1521 103.653 28.278 103.82C28.4 103.927 28.5038 104.053 28.5856 104.193C28.6336 104.388 28.6212 104.594 28.55 104.782C28.4766 105.068 28.4624 105.365 28.5084 105.657C28.5544 105.948 28.6596 106.227 28.8174 106.476C28.981 106.722 29.2126 106.915 29.484 107.031C29.7554 107.148 30.0548 107.182 30.3456 107.131C31.3278 106.91 32.2104 106.56 33.2007 106.742C35.3329 107.133 37.4721 107.526 39.5372 108.185C41.8942 108.938 44.1765 110.041 46.6398 110.273C46.8019 110.306 46.9705 110.28 47.1148 110.199C47.2403 110.08 47.3184 109.92 47.3345 109.747C47.5882 108.558 47.842 107.368 48.0958 106.178C48.4026 104.859 48.6363 103.524 48.7957 102.179C48.8823 101.311 48.907 100.438 48.9317 99.5663L49.1279 92.6262C49.2198 91.6034 49.0834 90.5729 48.7285 89.6092L47.5998 86.0061C46.9558 83.9499 45.4782 82.1266 44.9521 80.0371C44.6191 78.7146 44.3732 77.2954 43.4802 76.2647C42.2073 74.7952 40.0049 74.5666 38.0772 74.8193C37.2063 74.9334 36.328 75.1304 35.5747 75.582C34.7037 76.1043 34.062 76.9269 33.4412 77.7307C32.9296 78.3931 32.4089 78.9256 31.8854 79.5787Z" fill="#97CFED"/>
<path d="M36.387 99.9918C36.5459 100.677 36.8794 101.308 37.0836 101.981C37.4256 103.108 37.3966 104.322 37.738 105.449C37.8813 105.922 38.0889 106.376 38.1918 106.86C38.4316 107.987 38.0814 109.154 37.6465 110.221C37.2116 111.289 36.682 112.341 36.5408 113.485C36.4414 114.291 36.5842 115.201 37.2052 115.723C37.85 116.266 38.7869 116.23 39.6267 116.157C39.9281 116.149 40.2257 116.087 40.5055 115.974C41.1477 115.671 41.4182 114.911 41.5683 114.216C42.0714 111.889 41.9276 109.477 41.7815 107.101L41.3991 100.886C41.3255 99.6897 41.2467 98.4685 40.878 97.3197C40.7439 96.9018 40.5101 96.0574 40.1284 95.7906C39.7504 95.5263 38.6707 95.5145 38.2026 95.4925C36.0065 95.3894 36.0311 98.4547 36.387 99.9918Z" fill="#FBBEBE"/>
<path d="M38.82 77.0462C38.3715 76.8113 37.8064 76.9126 37.3729 77.174C36.9543 77.4607 36.5877 77.8166 36.2888 78.2266C35.3196 79.4096 34.2936 80.7671 34.4374 82.2896C34.4913 82.8605 34.7099 83.4008 34.8581 83.9547C35.5078 86.3835 34.7893 88.9523 34.8717 91.4651C34.9194 92.9172 35.2353 94.3454 35.55 95.7637C35.6142 96.0532 35.7171 96.3882 35.9971 96.4857C36.2074 96.5589 36.4346 96.4648 36.6428 96.3856C37.4184 96.0991 38.2516 96.0034 39.072 96.1068C39.8923 96.2102 40.6757 96.5096 41.3559 96.9797C41.876 96.7022 41.6811 95.8247 41.5645 95.2468C41.2181 93.5299 41.6884 91.7588 42.2595 90.1031C42.8306 88.4473 43.514 86.7937 43.6086 85.0448C43.7158 83.0632 43.0588 81.129 42.4105 79.2534C42.269 78.844 42.1144 78.4147 41.7863 78.1318C41.5055 77.923 41.1836 77.7759 40.8418 77.7003C40.1533 77.4968 39.4561 77.3793 38.82 77.0462Z" fill="#2F2E41"/>
</g>
<defs>
<clipPath id="clip0">
<rect width="204.439" height="155.209" fill="white"/>
</clipPath>
</defs>
</svg>
