<svg width="42" height="42" viewBox="0 0 42 42" fill="none" xmlns="http://www.w3.org/2000/svg">
<circle cx="21" cy="21" r="20" fill="white"/>
<circle cx="21" cy="21" r="21" fill="white"/>
<path class="social-icon" d="M21 1C10 1 1 10 1 21C1 32 10 41 21 41C32 41 41 32 41 21C41 10 32 1 21 1ZM26.25 14.375H24.375C22.875 14.375 22.625 15.125 22.625 16.125V18.375H26.125L25.625 21.875H22.625V31H19V21.875H15.875V18.375H19V15.75C18.875 12.625 20.75 11 23.5 11C24.75 11 25.875 11.125 26.25 11.125V14.375Z" fill="#FF6AB2"/>
</svg>
