<svg width="223" height="24" viewBox="0 0 223 24" fill="none" xmlns="http://www.w3.org/2000/svg">
<path d="M5.7 5.325V9.175H13.425V13H5.7V19H0.75V1.5H14.475V5.325H5.7ZM23.9471 19.225C22.4971 19.225 21.1887 18.925 20.0221 18.325C18.8554 17.725 17.9387 16.8917 17.2721 15.825C16.6221 14.7583 16.2971 13.55 16.2971 12.2C16.2971 10.8667 16.6221 9.66667 17.2721 8.6C17.9387 7.53333 18.8471 6.70833 19.9971 6.125C21.1637 5.525 22.4804 5.225 23.9471 5.225C25.4137 5.225 26.7304 5.525 27.8971 6.125C29.0637 6.70833 29.9721 7.53333 30.6221 8.6C31.2721 9.65 31.5971 10.85 31.5971 12.2C31.5971 13.55 31.2721 14.7583 30.6221 15.825C29.9721 16.8917 29.0637 17.725 27.8971 18.325C26.7304 18.925 25.4137 19.225 23.9471 19.225ZM23.9471 15.45C24.7804 15.45 25.4637 15.1667 25.9971 14.6C26.5304 14.0167 26.7971 13.2167 26.7971 12.2C26.7971 11.2 26.5304 10.4167 25.9971 9.85C25.4637 9.28333 24.7804 9 23.9471 9C23.1137 9 22.4304 9.28333 21.8971 9.85C21.3637 10.4167 21.0971 11.2 21.0971 12.2C21.0971 13.2167 21.3637 14.0167 21.8971 14.6C22.4304 15.1667 23.1137 15.45 23.9471 15.45ZM39.1975 7.075C39.6808 6.45833 40.3058 6 41.0725 5.7C41.8558 5.38333 42.7475 5.225 43.7475 5.225V9.5C43.3141 9.45 42.9558 9.425 42.6725 9.425C41.6558 9.425 40.8558 9.7 40.2725 10.25C39.7058 10.8 39.4225 11.6417 39.4225 12.775V19H34.6725V5.45H39.1975V7.075ZM64.2326 5.225C65.8993 5.225 67.2243 5.725 68.2076 6.725C69.2076 7.725 69.7076 9.23333 69.7076 11.25V19H64.9576V12.025C64.9576 11.075 64.7743 10.375 64.4076 9.925C64.0576 9.475 63.5576 9.25 62.9076 9.25C62.191 9.25 61.616 9.5 61.1826 10C60.7493 10.5 60.5326 11.2583 60.5326 12.275V19H55.7826V12.025C55.7826 10.175 55.0993 9.25 53.7326 9.25C52.9993 9.25 52.416 9.5 51.9826 10C51.5493 10.5 51.3326 11.2583 51.3326 12.275V19H46.5826V5.45H51.1076V6.875C51.6076 6.325 52.1993 5.91667 52.8826 5.65C53.5826 5.36667 54.341 5.225 55.1576 5.225C56.1076 5.225 56.9576 5.4 57.7076 5.75C58.4576 6.1 59.066 6.63333 59.5326 7.35C60.066 6.66667 60.741 6.14167 61.5576 5.775C62.3743 5.40833 63.266 5.225 64.2326 5.225ZM79.3557 5.225C81.6057 5.225 83.3223 5.74167 84.5057 6.775C85.689 7.79167 86.2807 9.35833 86.2807 11.475V19H81.8557V17.25C81.1723 18.5667 79.839 19.225 77.8557 19.225C76.8057 19.225 75.8973 19.0417 75.1307 18.675C74.364 18.3083 73.7807 17.8167 73.3807 17.2C72.9973 16.5667 72.8057 15.85 72.8057 15.05C72.8057 13.7667 73.2973 12.775 74.2807 12.075C75.264 11.3583 76.7807 11 78.8307 11H81.5307C81.4473 9.56667 80.489 8.85 78.6557 8.85C78.0057 8.85 77.3473 8.95833 76.6807 9.175C76.014 9.375 75.4473 9.65833 74.9807 10.025L73.3807 6.8C74.1307 6.3 75.039 5.91667 76.1057 5.65C77.189 5.36667 78.2723 5.225 79.3557 5.225ZM79.1807 16.225C79.7307 16.225 80.214 16.0917 80.6307 15.825C81.0473 15.5583 81.3473 15.1667 81.5307 14.65V13.475H79.4807C78.0973 13.475 77.4057 13.9333 77.4057 14.85C77.4057 15.2667 77.564 15.6 77.8807 15.85C78.1973 16.1 78.6307 16.225 79.1807 16.225ZM90.1539 0.449999H94.9039V19H90.1539V0.449999Z" fill="#1B0F0F"/>
<path d="M102.041 3.1V9.975H111.091V11.575H102.041V19H100.191V1.5H112.191V3.1H102.041ZM116.511 0.449999H118.286V19H116.511V0.449999ZM128.7 5.75C130.417 5.75 131.733 6.18333 132.65 7.05C133.567 7.9 134.025 9.16667 134.025 10.85V19H132.325V16.95C131.925 17.6333 131.333 18.1667 130.55 18.55C129.783 18.9333 128.867 19.125 127.8 19.125C126.333 19.125 125.167 18.775 124.3 18.075C123.433 17.375 123 16.45 123 15.3C123 14.1833 123.4 13.2833 124.2 12.6C125.017 11.9167 126.308 11.575 128.075 11.575H132.25V10.775C132.25 9.64167 131.933 8.78333 131.3 8.2C130.667 7.6 129.742 7.3 128.525 7.3C127.692 7.3 126.892 7.44167 126.125 7.725C125.358 7.99167 124.7 8.36667 124.15 8.85L123.35 7.525C124.017 6.95833 124.817 6.525 125.75 6.225C126.683 5.90833 127.667 5.75 128.7 5.75ZM128.075 17.725C129.075 17.725 129.933 17.5 130.65 17.05C131.367 16.5833 131.9 15.9167 132.25 15.05V12.9H128.125C125.875 12.9 124.75 13.6833 124.75 15.25C124.75 16.0167 125.042 16.625 125.625 17.075C126.208 17.5083 127.025 17.725 128.075 17.725ZM156.121 5.75C157.771 5.75 159.063 6.225 159.996 7.175C160.946 8.125 161.421 9.525 161.421 11.375V19H159.646V11.55C159.646 10.1833 159.313 9.14167 158.646 8.425C157.996 7.70833 157.071 7.35 155.871 7.35C154.504 7.35 153.429 7.775 152.646 8.625C151.863 9.45833 151.471 10.6167 151.471 12.1V19H149.696V11.55C149.696 10.1833 149.363 9.14167 148.696 8.425C148.046 7.70833 147.113 7.35 145.896 7.35C144.546 7.35 143.471 7.775 142.671 8.625C141.888 9.45833 141.496 10.6167 141.496 12.1V19H139.721V5.85H141.421V8.25C141.888 7.45 142.538 6.83333 143.371 6.4C144.204 5.96667 145.163 5.75 146.246 5.75C147.346 5.75 148.296 5.98333 149.096 6.45C149.913 6.91667 150.521 7.60833 150.921 8.525C151.404 7.65833 152.096 6.98333 152.996 6.5C153.913 6 154.954 5.75 156.121 5.75ZM167.11 5.85H168.885V19H167.11V5.85ZM168.01 2.975C167.643 2.975 167.335 2.85 167.085 2.6C166.835 2.35 166.71 2.05 166.71 1.7C166.71 1.36667 166.835 1.075 167.085 0.824999C167.335 0.574999 167.643 0.449999 168.01 0.449999C168.376 0.449999 168.685 0.574999 168.935 0.824999C169.185 1.05833 169.31 1.34167 169.31 1.675C169.31 2.04167 169.185 2.35 168.935 2.6C168.685 2.85 168.376 2.975 168.01 2.975ZM181.399 5.75C183.049 5.75 184.357 6.23333 185.324 7.2C186.307 8.15 186.799 9.54167 186.799 11.375V19H185.024V11.55C185.024 10.1833 184.682 9.14167 183.999 8.425C183.315 7.70833 182.34 7.35 181.074 7.35C179.657 7.35 178.532 7.775 177.699 8.625C176.882 9.45833 176.474 10.6167 176.474 12.1V19H174.699V5.85H176.399V8.275C176.882 7.475 177.549 6.85833 178.399 6.425C179.265 5.975 180.265 5.75 181.399 5.75ZM204.716 5.85V17.4C204.716 19.6333 204.166 21.2833 203.066 22.35C201.983 23.4333 200.341 23.975 198.141 23.975C196.925 23.975 195.766 23.7917 194.666 23.425C193.583 23.075 192.7 22.5833 192.016 21.95L192.916 20.6C193.55 21.1667 194.316 21.6083 195.216 21.925C196.133 22.2417 197.091 22.4 198.091 22.4C199.758 22.4 200.983 22.0083 201.766 21.225C202.55 20.4583 202.941 19.2583 202.941 17.625V15.95C202.391 16.7833 201.666 17.4167 200.766 17.85C199.883 18.2833 198.9 18.5 197.816 18.5C196.583 18.5 195.458 18.2333 194.441 17.7C193.441 17.15 192.65 16.3917 192.066 15.425C191.5 14.4417 191.216 13.3333 191.216 12.1C191.216 10.8667 191.5 9.76667 192.066 8.8C192.65 7.83333 193.441 7.08333 194.441 6.55C195.441 6.01667 196.566 5.75 197.816 5.75C198.933 5.75 199.941 5.975 200.841 6.425C201.741 6.875 202.466 7.525 203.016 8.375V5.85H204.716ZM197.991 16.925C198.941 16.925 199.8 16.725 200.566 16.325C201.333 15.9083 201.925 15.3333 202.341 14.6C202.775 13.8667 202.991 13.0333 202.991 12.1C202.991 11.1667 202.775 10.3417 202.341 9.625C201.925 8.89167 201.333 8.325 200.566 7.925C199.816 7.50833 198.958 7.3 197.991 7.3C197.041 7.3 196.183 7.5 195.416 7.9C194.666 8.3 194.075 8.86667 193.641 9.6C193.225 10.3333 193.016 11.1667 193.016 12.1C193.016 13.0333 193.225 13.8667 193.641 14.6C194.075 15.3333 194.666 15.9083 195.416 16.325C196.183 16.725 197.041 16.925 197.991 16.925ZM215.93 19.125C214.663 19.125 213.522 18.8417 212.505 18.275C211.488 17.6917 210.688 16.8917 210.105 15.875C209.522 14.8583 209.23 13.7083 209.23 12.425C209.23 11.1417 209.522 9.99167 210.105 8.975C210.688 7.95833 211.488 7.16667 212.505 6.6C213.522 6.03333 214.663 5.75 215.93 5.75C217.197 5.75 218.338 6.03333 219.355 6.6C220.372 7.16667 221.163 7.95833 221.73 8.975C222.313 9.99167 222.605 11.1417 222.605 12.425C222.605 13.7083 222.313 14.8583 221.73 15.875C221.163 16.8917 220.372 17.6917 219.355 18.275C218.338 18.8417 217.197 19.125 215.93 19.125ZM215.93 17.55C216.863 17.55 217.697 17.3417 218.43 16.925C219.18 16.4917 219.763 15.8833 220.18 15.1C220.597 14.3167 220.805 13.425 220.805 12.425C220.805 11.425 220.597 10.5333 220.18 9.75C219.763 8.96667 219.18 8.36667 218.43 7.95C217.697 7.51667 216.863 7.3 215.93 7.3C214.997 7.3 214.155 7.51667 213.405 7.95C212.672 8.36667 212.088 8.96667 211.655 9.75C211.238 10.5333 211.03 11.425 211.03 12.425C211.03 13.425 211.238 14.3167 211.655 15.1C212.088 15.8833 212.672 16.4917 213.405 16.925C214.155 17.3417 214.997 17.55 215.93 17.55Z" fill="#FF1988"/>
</svg>
