<svg width="165" height="156" viewBox="0 0 165 156" fill="none" xmlns="http://www.w3.org/2000/svg">
<path d="M93.905 1.2413C49.902 4.58994 -2.57362 38.6851 0.0979935 73.7917C2.76961 108.898 53.5928 141.579 97.5958 138.231C141.599 134.882 166.928 69.274 164.257 34.1674C161.585 -0.939117 137.908 -2.10733 93.905 1.2413Z" fill="#F2F2F2"/>
<g clip-path="url(#clip0)">
<path d="M156.255 133.164C158.882 142.517 133.592 163.888 89.0971 151.958C53.2723 142.353 21.9395 138.284 21.9395 133.164C21.9395 128.043 52.007 133.414 89.0971 133.414C126.187 133.414 154.87 128.234 156.255 133.164Z" fill="#3F3D56"/>
<path opacity="0.1" d="M156.255 133.164C158.882 142.517 133.592 163.888 89.0971 151.958C53.2723 142.353 21.9395 138.284 21.9395 133.164C21.9395 128.043 52.007 133.414 89.0971 133.414C126.187 133.414 154.87 128.234 156.255 133.164Z" fill="black"/>
<path d="M156.255 133.164C158.882 142.517 133.592 154.366 89.0971 142.436C53.2723 132.83 21.9395 138.285 21.9395 133.164C21.9395 128.043 52.007 123.892 89.0971 123.892C126.187 123.892 154.87 128.234 156.255 133.164Z" fill="#3F3D56"/>
<path opacity="0.1" d="M110.692 139.881C113.561 139.881 115.886 139.076 115.886 138.083C115.886 137.09 113.561 136.285 110.692 136.285C107.824 136.285 105.498 137.09 105.498 138.083C105.498 139.076 107.824 139.881 110.692 139.881Z" fill="black"/>
<path opacity="0.1" d="M131.868 139.881C134.737 139.881 137.062 139.076 137.062 138.083C137.062 137.09 134.737 136.285 131.868 136.285C128.999 136.285 126.674 137.09 126.674 138.083C126.674 139.076 128.999 139.881 131.868 139.881Z" fill="black"/>
<path opacity="0.1" d="M89.1159 134.687C98.4943 134.687 106.097 132.63 106.097 130.092C106.097 127.554 98.4943 125.497 89.1159 125.497C79.7375 125.497 72.1348 127.554 72.1348 130.092C72.1348 132.63 79.7375 134.687 89.1159 134.687Z" fill="black"/>
<path d="M164.233 116.108V33H14V116.108H83.3229V127.217C79.8606 127.632 77.5294 128.406 77.5294 129.293C77.5294 130.617 82.7171 131.69 89.1165 131.69C95.5159 131.69 100.704 130.617 100.704 129.293C100.704 128.406 98.3725 127.632 94.9101 127.217V116.108H164.233Z" fill="#3F3D56"/>
<path d="M156.441 35.9116H21.791V110.399H156.441V35.9116Z" fill="#F2F2F2"/>
<path opacity="0.1" d="M156.441 35.9966C156.441 35.9966 100.504 41.7901 90.3149 64.1653C80.1262 86.5404 21.791 110.314 21.791 110.314H156.441V35.9966Z" fill="black"/>
<path d="M131.32 71.5571V77.0807H110.644V71.8948H110.045V138.083H110.644V126.234H131.32V138.083H131.919V71.5571H131.32ZM131.32 77.68V86.7914H110.644V77.68L131.32 77.68ZM110.644 106.213V97.1016H131.32V106.213H110.644ZM131.32 106.812V115.924H110.644V106.812H131.32ZM110.644 96.5023V87.3907H131.32V96.5023H110.644ZM110.644 125.635V116.523H131.32V125.635H110.644Z" fill="#2F2E41"/>
<path d="M104.123 72.8723V73.7002C104.123 73.7002 103.532 73.9368 103.532 74.883C103.532 75.8291 103.059 79.3774 103.059 79.3774C103.059 79.3774 103.887 80.087 104.596 79.8505C104.989 79.7312 105.352 79.5296 105.661 79.2591L105.779 75.5926L105.306 74.6464V72.9906L104.123 72.8723Z" fill="#97CFED"/>
<path d="M126.749 39.9922C126.749 39.9922 124.692 40.2287 124.692 41.1749C124.692 42.1211 123.047 45.6693 123.047 45.6693C123.047 45.6693 125.927 46.379 128.395 46.1424C130.863 45.9059 132.097 45.5511 132.097 45.5511L132.509 41.8846L130.863 40.9384L126.749 39.9922Z" fill="#97CFED"/>
<path d="M126.95 48.2713V46.0241C126.95 46.0241 124.466 41.0566 126.477 41.0566C128.488 41.0566 128.724 45.551 128.724 45.551V48.7444L126.95 48.2713Z" fill="#FFB8B8"/>
<path d="M105.662 71.8078C105.662 71.8078 104.361 71.0982 104.125 71.8078C103.888 72.5175 103.178 74.055 104.125 74.1733C105.071 74.2916 106.017 73.4637 106.017 73.4637L105.662 71.8078Z" fill="#FFB8B8"/>
<path d="M112.065 76.5987C112.065 76.5987 111.353 77.5393 112.386 86.7154C113.42 95.8916 112.824 102.573 114.786 102.482C114.786 102.482 114.274 104.471 115.941 104.545C117.608 104.618 118.369 104.734 118.499 104.274C118.629 103.814 118.832 101.688 118.379 101.709C118.379 101.709 118.407 102.312 118.596 99.8841C118.786 97.4558 118.25 85.988 118.934 84.4439L121.609 89.9142C121.609 89.9142 121.729 92.4793 122.238 93.6653C122.747 94.8513 123.825 101.757 123.825 101.757L123.724 102.82C123.724 102.82 127.373 103.255 127.496 102.644C127.619 102.034 127.576 101.128 127.412 100.834C127.247 100.539 127.247 100.539 127.52 99.9212C127.641 99.689 127.711 99.4335 127.725 99.1719C127.739 98.9104 127.696 98.6489 127.601 98.4052C127.429 97.9596 126.971 88.1517 126.971 88.1517C126.971 88.1517 126.112 76.2454 124.273 75.7263C122.435 75.2073 112.065 76.5987 112.065 76.5987Z" fill="#2F2E41"/>
<path d="M115.279 103.366L114.171 105.535C114.171 105.535 112.253 104.944 112.711 106.661C114.552 106.719 116.395 106.607 118.215 106.329C118.215 106.329 118.984 106.595 119.114 106.136C119.243 105.676 118.641 104.116 118.189 104.137C117.736 104.158 115.279 103.366 115.279 103.366Z" fill="#2F2E41"/>
<path d="M124.004 102.353C124.004 102.353 122.924 105.126 123.383 105.256C123.843 105.385 127.945 105.799 128.254 105.935C128.563 106.072 130.079 106.153 130.188 105.24C130.296 104.328 129.377 104.068 129.377 104.068C129.377 104.068 127.703 103.844 127.18 102.356C126.657 100.869 124.004 102.353 124.004 102.353Z" fill="#2F2E41"/>
<path d="M113.761 54.1044C115.506 54.1044 116.92 52.6899 116.92 50.945C116.92 49.2001 115.506 47.7856 113.761 47.7856C112.016 47.7856 110.602 49.2001 110.602 50.945C110.602 52.6899 112.016 54.1044 113.761 54.1044Z" fill="#FFB8B8"/>
<path d="M112.098 52.4417C112.098 52.4417 112.929 56.765 112.597 57.5964C112.264 58.4279 117.252 57.2639 117.252 57.2639C117.252 57.2639 116.255 52.9405 116.421 51.9428C116.587 50.9451 112.098 52.4417 112.098 52.4417Z" fill="#FFB8B8"/>
<path d="M113.664 47.0428C113.401 46.9952 113.131 47.0071 112.874 47.0777C112.668 47.1689 112.478 47.2934 112.312 47.4461C112.011 47.6859 111.69 47.8988 111.352 48.0823C111.069 48.2038 110.815 48.3821 110.605 48.6061C110.516 48.7285 110.445 48.8629 110.394 49.0053C110.07 49.8329 109.983 50.7344 110.142 51.6087C110.16 51.7329 110.198 51.8536 110.253 51.9662C110.426 52.2846 110.808 52.4101 111.129 52.577C111.74 52.8939 112.202 53.4275 112.703 53.8991C112.889 54.0848 113.098 54.2459 113.325 54.3784C114.039 54.7679 114.912 54.6408 115.714 54.5031C115.771 54.503 115.827 54.4916 115.88 54.4697C115.932 54.4477 115.98 54.4156 116.02 54.3752C116.06 54.3348 116.091 54.2869 116.113 54.2342C116.134 54.1816 116.145 54.1252 116.144 54.0684L116.777 51.2215C116.892 50.7997 116.946 50.3639 116.939 49.9268C116.895 49.2357 116.521 48.2784 116.014 47.7875C115.423 47.2156 114.437 47.1245 113.664 47.0428Z" fill="#2F2E41"/>
<path d="M111.338 57.8515C111.338 57.8515 111.575 56.1956 112.994 56.0774C113.797 56.0016 114.589 55.843 115.359 55.6043C115.478 55.6043 117.015 55.7225 117.725 56.4322C117.725 56.4322 118.198 57.1418 118.435 56.6687C118.671 56.1956 118.671 55.9591 119.144 56.1956C119.617 56.4322 119.617 55.486 120.445 55.6043C121.273 55.7225 123.402 61.0449 123.402 61.0449L122.692 61.8728C122.692 61.8728 121.746 68.2596 123.402 70.9799C125.058 73.7002 125.768 76.657 124.112 77.2484C122.456 77.8397 110.865 83.1621 111.338 79.8504C111.811 76.5387 111.456 71.3347 110.983 71.2164C110.51 71.0981 107.908 61.7545 107.908 61.7545C108.013 61.1613 108.262 60.6029 108.633 60.1285C109.004 59.6541 109.486 59.2783 110.037 59.0342C111.93 58.2063 111.338 57.8515 111.338 57.8515Z" fill="#575A88"/>
<path d="M119.854 56.0775L120.445 55.6044C120.445 55.6044 121.509 55.6044 121.628 55.3678C121.746 55.1313 122.337 55.1313 122.81 54.8947C123.283 54.6582 122.692 54.3034 123.283 54.0668C123.875 53.8303 123.875 54.0668 123.875 53.4755C123.875 52.8841 125.412 52.2927 125.531 51.5831C125.649 50.8734 126.832 47.5618 126.832 47.5618L129.079 48.2714L128.487 52.5293C128.487 52.5293 128.487 54.6582 127.423 56.0775C126.359 57.4968 123.993 61.045 122.81 61.1633C121.628 61.2815 119.854 56.0775 119.854 56.0775Z" fill="#575A88"/>
<path d="M108.619 61.1631L107.91 61.7545C107.91 61.7545 107.673 64.3565 107.673 64.4747C107.673 64.593 107.91 66.0123 107.673 66.1306C107.436 66.2489 106.963 68.6143 107.082 68.7326V69.0874L105.426 71.6894V74.1732L109.329 71.6894C109.329 71.6894 111.576 71.4529 111.221 69.4422C110.866 67.4316 108.619 61.1631 108.619 61.1631Z" fill="#575A88"/>
<path d="M89.1155 116.108C90.3292 116.108 91.3131 115.124 91.3131 113.91C91.3131 112.696 90.3292 111.712 89.1155 111.712C87.9018 111.712 86.918 112.696 86.918 113.91C86.918 115.124 87.9018 116.108 89.1155 116.108Z" fill="#97CFED"/>
</g>
<defs>
<clipPath id="clip0">
<rect x="14" y="33" width="150.233" height="122.488" fill="white"/>
</clipPath>
</defs>
</svg>
