<svg width="266" height="244" viewBox="0 0 266 244" fill="none" xmlns="http://www.w3.org/2000/svg">
<path d="M80.4186 73.1306C120.409 42.2046 191.204 30.9228 215.878 62.8284C240.551 94.7339 222.414 161.535 182.424 192.461C142.433 223.387 70.5359 187.034 45.8625 155.129C21.1891 123.223 40.4278 104.057 80.4186 73.1306Z" fill="#F2F2F2"/>
<path opacity="0.05" d="M146.952 119.27C146.952 119.27 156.979 113.574 158.411 109.719C158.603 109.202 158.783 108.68 159 108.171C159.9 106.05 161.763 101.088 160.54 98.8331C158.965 95.9247 163.956 99.0293 163.956 99.0293L162.012 113.358L155.456 117.549L146.751 119.282" fill="#FF1988"/>
<path opacity="0.1" d="M125.905 174.873C189.774 164.753 240.229 148.215 238.6 137.934C236.971 127.654 183.875 127.523 120.006 137.643C56.1377 147.764 5.6825 164.302 7.31149 174.582C8.94049 184.863 62.0368 184.993 125.905 174.873Z" fill="#6C63FF"/>
<path d="M223.069 108.194L152.845 112.408L154.544 140.736L224.769 136.523L223.069 108.194Z" fill="#6F7D95"/>
<path d="M134.193 100.212L145.508 121.958L165.189 119.576L165.435 110.351L165.387 99.5412L137.339 99.2208L134.193 100.212Z" fill="#4B5C7A"/>
<path d="M134.193 100.212C134.193 100.212 137.762 96.3944 142.31 95.3192C146.858 94.244 162.309 94.9192 162.309 94.9192L164.731 98.5719L164.428 100.399L134.193 100.212Z" fill="#97CFED"/>
<path d="M172.487 109.427L101.664 113.677L102.909 134.425L173.732 130.175L172.487 109.427Z" fill="#4B5C7A"/>
<path d="M156.065 135.4L157.286 132.749L152.908 131.813L154.437 135.498L156.065 135.4Z" fill="#EB71AB"/>
<path d="M157.815 151.853L156.097 135.326L154.432 135.426L156.331 151.942L157.815 151.853Z" fill="#434141"/>
<path d="M134.191 117.613C140.74 102.695 148.652 94.5947 136.043 89.1788C134.608 90.9136 133.942 92.1639 137.054 94.5285C139.656 98.0022 138.116 100.129 134.244 107.007C127.971 116.946 126.959 121.522 132.418 126.797L135.147 122.058C134.233 121.378 134.038 120.378 134.191 117.613Z" fill="#FF6AB2"/>
<path d="M139.58 117.253C137.406 120.766 136.207 122.59 134.626 121.835L132.211 126.374C134.464 128.752 139.217 129.367 144.422 129.563C147.745 130.489 150.229 131.263 152.923 132.067L153.52 132.938L157.03 132.728C163.79 132.542 167.528 131.849 174.049 128.911L182.805 128.385L172.592 120.973C162.55 112.734 157.809 113.229 149.056 112.4C143.525 113.183 141.779 114.446 139.58 117.253Z" fill="#FF6AB2"/>
<path d="M143.416 120.073C146.428 123.429 148.266 124.852 152.349 124.911L149.205 126.371L151.918 126.208L156.53 127.42L151.175 127.741L152.588 128.891L157.089 128.258L158.943 128.909L153.189 129.835L153.822 130.705L160.094 129.929L161.114 128.779L166.677 127.683C168.774 126.979 169.496 127.121 170.729 127.439L168.096 128.941L169.479 130.202C165.286 132.051 162.538 132.506 157.369 132.925L153.968 133.129L152.77 131.93C146.622 129.692 144.647 129.424 140.807 129.235C138.707 129.23 135.772 129.039 132.307 126.767L132.19 124.814L130.888 124.892C130.125 123.263 130.014 122.533 129.909 121.283L131.947 120.761C131.944 123.295 132.513 124.454 135.541 125.593C137.376 125.864 137.937 124.929 138.795 122.928C140.503 117.936 141.887 116.307 145.056 115.327L143.416 120.073Z" fill="#FF1988"/>
<path d="M137.777 95.6832C142.076 97.7751 125.14 118.664 131.111 123.172C134.744 112.314 139.616 105.798 140.881 101.416C143.22 93.3142 139.969 93.456 139.229 92.6549L136.338 95.2975L137.777 95.6832Z" fill="#FF1988"/>
<path d="M133.838 97.8077C132.657 98.3987 132.242 98.7677 131.722 99.4598C130.193 98.3063 129.652 97.2711 129.462 94.4754C130.053 90.4094 133.801 88.1148 136.346 89.3782C137.922 91.2447 138.04 92.5528 137.455 95.1578C136.193 96.1215 135.428 96.689 133.838 97.8077Z" fill="#FF6AB2"/>
<path d="M138.834 90.8996C136.992 89.0212 134.746 89.458 133.138 90.9871L133.262 93.0495L134.777 96.5171L136.944 95.1161C139.384 94.2818 139.735 93.3289 138.834 90.8996Z" fill="#FF6AB2"/>
<path d="M133.225 97.8809C132.866 98.2415 132.599 98.3075 131.967 98.1016L129.547 94.6883C131.269 92.6677 132.354 90.9287 134.061 90.641C134.706 90.9241 134.726 91.164 134.629 91.6237L133.774 92.5101C134.049 92.8713 134.06 93.1518 133.85 93.7765C134.785 93.8939 135.152 93.5982 135.763 92.9718C136.316 93.542 136.516 93.8858 136.62 94.5544L135.173 96.4568C134.812 96.7971 134.606 96.9325 134.222 96.9496L134.015 96.5263L133.4 96.5632C133.501 97.1286 133.508 97.4305 133.225 97.8809Z" fill="#FF1988"/>
<path d="M132.212 97.9418C131.93 98.2772 131.956 98.5609 132.026 99.0786L130.949 101.104L130.923 102.485C130.764 103.78 130.804 104.639 131.162 106.465C131.11 106.95 131.051 107.102 130.871 107.064L130.886 107.317C129.456 106.812 128.688 105.529 127.364 101.864C127.222 101.328 127.135 101.079 126.926 100.619C126.884 99.3145 127.209 98.5659 127.924 97.2913C128.679 96.0233 129.109 95.4018 129.464 94.5118L130.869 94.3186C131.323 94.0445 131.535 93.8963 131.809 93.6449C131.972 92.9536 132.286 92.8781 132.923 92.8518C133.295 93.2311 133.296 93.4892 132.814 94.0567C132.328 94.7856 132.146 95.2265 132.325 96.1921C132.044 96.8932 132.078 97.2719 132.212 97.9418Z" fill="#EAD6CF"/>
<path d="M130.843 101.147C130.925 101.537 130.947 101.819 130.923 102.486L128.716 102.618L128.371 100.496C129.074 98.8193 129.578 98.1475 130.738 97.5946C130.802 98.2279 130.829 98.6067 130.751 99.6272L131.077 99.6077C131.074 100.454 131.002 100.736 130.843 101.147Z" fill="#EFA788"/>
<path d="M129.793 95.1456C130.239 96.158 130.475 96.5707 130.822 96.5725C128.586 98.4239 130.47 105.168 130.882 107.245C129.032 105.358 128.309 103.729 127.077 100.719C127.323 98.1193 128.289 97.1191 129.793 95.1456Z" fill="#EFA788"/>
<path d="M128.403 100.422C128.799 101.436 129.453 101.813 130.919 102.413C130.819 103.859 130.902 104.557 131.056 105.31C131.167 106.16 131.333 106.891 130.909 107.098C129.126 105.208 126.439 100.378 129.351 98.0774C130.495 97.1736 131.088 96.5703 131.329 96.5426L131.37 96.6128C130.631 97.0202 128.766 98.6614 128.403 100.422Z" fill="#272D26"/>
<path d="M129.735 96.6017C129.272 97.0943 129.018 97.3767 128.617 97.9397L128.73 98.0056C129.255 97.4782 129.47 97.1619 129.843 96.5952L129.735 96.6017Z" fill="#272D26"/>
<path d="M130.886 107.317L130.873 107.1C129.754 106.005 128.325 103.532 127.984 101.318L127.906 100.016L127.145 100.642L126.921 100.547C127.71 103.413 128.142 104.045 129.009 105.687C129.859 106.985 130.302 107.228 130.886 107.317Z" fill="#272D26"/>
<path d="M132.061 93.3024C132.004 93.4393 131.988 93.5976 131.996 93.7375C132.018 93.7979 132.049 93.8392 132.087 93.8679C132.127 93.8978 132.177 93.916 132.238 93.926C132.343 93.9431 132.472 93.9347 132.626 93.9247C132.652 93.923 132.679 93.9212 132.707 93.9196C133.025 93.8059 133.139 93.5198 133.125 93.2471C133.077 93.1133 133.031 93.0308 132.935 92.9885C132.834 92.944 132.67 92.9401 132.375 92.9944C132.216 93.0507 132.118 93.1654 132.061 93.3024Z" fill="#C9B7A1" stroke="#7F7552" stroke-width="0.0724926"/>
<path d="M132.163 93.4885C132.169 93.5667 132.198 93.6318 132.257 93.6767C132.318 93.7242 132.419 93.7538 132.577 93.7443C132.694 93.7373 132.775 93.7145 132.832 93.6677C132.889 93.622 132.929 93.5488 132.957 93.4282C132.931 93.2957 132.883 93.231 132.82 93.1979C132.753 93.1624 132.663 93.1582 132.543 93.1654C132.431 93.1721 132.361 93.2095 132.306 93.2655C132.251 93.3218 132.21 93.3975 132.163 93.4885Z" fill="white" stroke="#7F7552" stroke-width="0.0724926"/>
<ellipse rx="0.144985" ry="0.108739" transform="matrix(-0.998205 0.0598945 0.0598945 0.998205 132.487 93.4587)" fill="black"/>
<path d="M136.807 111.952C136.87 111.969 136.906 111.984 136.992 112.033C137.117 112.105 137.248 112.219 137.311 112.308C137.345 112.357 137.44 112.574 137.482 112.7C137.527 112.835 137.555 112.977 137.567 113.137C137.569 113.179 137.561 113.339 137.533 113.719C137.512 114.008 137.492 114.285 137.489 114.335C137.484 114.405 137.477 114.443 137.462 114.498C137.437 114.584 137.383 114.716 137.334 114.811C137.303 114.87 137.297 114.886 137.293 114.929C137.278 115.089 137.161 115.448 137.083 115.579C136.95 115.798 136.825 115.919 136.702 115.947C136.54 115.983 136.321 115.921 135.932 115.727C135.848 115.686 135.721 115.622 135.652 115.588C135.582 115.553 135.488 115.509 135.443 115.49C135.347 115.451 135.288 115.417 135.139 115.314C135.011 115.228 134.698 114.998 134.585 114.909C134.541 114.873 134.487 114.833 134.464 114.82C134.365 114.76 133.856 114.503 133.833 114.502C133.83 114.501 133.826 114.507 133.823 114.514C133.822 114.52 133.811 114.527 133.8 114.529C133.789 114.531 133.766 114.542 133.747 114.553C133.659 114.608 133.568 114.622 133.313 114.621C133.231 114.621 133.135 114.623 133.1 114.626C133.048 114.631 132.99 114.629 132.823 114.616C132.631 114.602 132.603 114.598 132.525 114.578C132.477 114.566 132.421 114.549 132.399 114.54C132.319 114.508 132.246 114.438 132.204 114.348L132.182 114.302L132.095 114.366C131.875 114.529 131.692 114.631 131.599 114.641C131.578 114.644 131.545 114.648 131.524 114.65C131.47 114.656 131.381 114.694 131.132 114.819C131.012 114.879 130.876 114.944 130.83 114.963C130.757 114.993 130.738 114.997 130.691 114.999C130.662 115 130.625 115.004 130.609 115.008C130.565 115.02 130.432 115.076 130.261 115.154C129.953 115.295 129.708 115.387 129.585 115.407C129.416 115.435 129.309 115.416 129.242 115.344C129.194 115.294 129.174 115.236 129.144 115.059C129.112 114.874 129.103 114.785 129.073 114.353C129.05 114.008 129.049 113.999 129.056 113.743C129.062 113.507 129.063 113.546 129.047 113.242C129.032 112.971 129.026 112.902 128.998 112.718C128.974 112.556 128.972 112.468 128.988 112.33C129.012 112.119 129.068 111.919 129.129 111.819C129.15 111.786 129.211 111.734 129.26 111.708C129.285 111.695 129.374 111.657 129.457 111.623C129.611 111.56 129.652 111.541 129.697 111.511L129.723 111.495L129.833 111.512C130.233 111.578 130.565 111.663 130.736 111.746C130.89 111.82 131.088 111.946 131.387 112.159C131.71 112.389 131.851 112.474 132.111 112.599C132.217 112.649 132.317 112.698 132.335 112.708L132.365 112.724L132.381 112.711C132.409 112.687 132.462 112.663 132.517 112.651C132.627 112.625 132.678 112.625 132.984 112.647C133.139 112.659 133.297 112.667 133.334 112.667C133.472 112.666 133.661 112.717 133.778 112.787C133.832 112.819 133.891 112.87 133.913 112.901L133.932 112.928L134.008 112.89C134.116 112.836 134.285 112.763 134.497 112.679C134.723 112.589 134.841 112.537 135.166 112.384C135.809 112.081 135.994 112.018 136.355 111.975C136.496 111.958 136.732 111.936 136.746 111.937C136.754 111.938 136.781 111.945 136.807 111.952Z" fill="black"/>
<path fill-rule="evenodd" clip-rule="evenodd" d="M133.796 86.1977C134.19 85.2586 134.197 84.4146 134.373 83.4544C134.65 81.938 142.951 84.6461 142.255 85.9035L141.237 87.7439C141.237 87.7439 140.671 89.0476 140.678 89.053C141.287 89.5738 141.963 89.5773 142.383 90.6139C142.906 91.9049 138.472 93.3546 136.935 92.9062C135.211 92.403 132.434 91.9015 130.573 89.3807C129.953 88.5409 130.891 85.6948 133.796 86.1979L133.796 86.1977Z" fill="#00006C"/>
<path fill-rule="evenodd" clip-rule="evenodd" d="M133.796 86.1976C134.189 85.2585 134.197 84.4145 134.373 83.4543C134.65 81.9379 142.95 84.646 142.255 85.9034L141.236 87.7438C141.236 87.7438 140.671 89.0475 140.678 89.0529C141.287 89.5737 141.963 89.5772 142.383 90.6138C142.906 91.9048 138.535 92.9426 136.935 92.9061C135.16 92.8657 132.254 92.2763 130.573 89.3806C130.048 88.4778 130.891 85.6947 133.796 86.1978L133.796 86.1976Z" fill="#000050"/>
<path d="M133.547 93.8593C135.791 94.0231 136.515 93.5553 137.522 92.4207" stroke="#F5BF00" stroke-width="0.184295"/>
<path fill-rule="evenodd" clip-rule="evenodd" d="M133.796 86.1978C134.189 85.2587 134.197 84.4146 134.373 83.4544C134.65 81.938 142.95 84.6462 142.255 85.9035L141.237 87.7439C141.237 87.7439 140.671 89.0477 140.678 89.053C141.287 89.5738 141.963 89.5773 142.383 90.6139C142.906 91.905 138.532 93.0113 136.935 92.9062C135.032 92.781 132.239 92.3009 130.573 89.3807C130.055 88.474 130.891 85.6948 133.796 86.1979L133.796 86.1978Z" fill="#000003"/>
<path opacity="0.27755" fill-rule="evenodd" clip-rule="evenodd" d="M142.308 85.8013C141.531 87.3509 140.532 88.7429 140.353 90.717C140.279 91.5296 138.648 91.7259 135.864 91.3542C134.383 91.1564 132.318 89.5091 132.765 88.6444C133.099 88.0003 133.686 86.8151 133.912 85.9157C134.261 84.841 134.483 83.1164 134.483 83.1164C134.073 84.2722 141.135 87.0725 142.308 85.8014L142.308 85.8013Z" fill="#00002C"/>
<path fill-rule="evenodd" clip-rule="evenodd" d="M136.092 82.9468L136.482 83.0243C136.844 83.0965 137.72 83.1813 138.401 83.4458L140.298 84.1832C140.655 84.322 142.625 85.4178 142.352 85.8543C141.543 87.1474 134.074 84.6251 134.561 83.1298C134.874 82.7674 135.508 82.9548 136.092 82.9468L136.092 82.9468Z" fill="#000078"/>
<path fill-rule="evenodd" clip-rule="evenodd" d="M136.092 82.9468L136.482 83.0243C136.844 83.0965 137.72 83.1813 138.401 83.4458L140.298 84.1832C140.655 84.322 142.625 85.4178 142.352 85.8543C141.543 87.1474 134.074 84.6251 134.561 83.1298C134.874 82.7674 135.508 82.9548 136.092 82.9468L136.092 82.9468Z" fill="black"/>
<g opacity="0.4" filter="url(#filter0_f)">
<path fill-rule="evenodd" clip-rule="evenodd" d="M134.61 83.0849C134.566 83.1131 134.526 83.1473 134.49 83.1889C134.013 84.6544 141.176 87.1062 142.224 85.9865C140.871 86.8743 134.133 84.5222 134.596 83.0996C134.601 83.0946 134.605 83.0898 134.61 83.085L134.61 83.0849Z" fill="#A4E8FC"/>
</g>
<g opacity="0.27347" filter="url(#filter1_f)">
<path fill-rule="evenodd" clip-rule="evenodd" d="M140.852 86.2588L139.147 90.9261L137.656 90.7925C137.648 90.7918 139.75 86.2096 139.75 86.2096C139.815 85.8441 140.852 86.2588 140.852 86.2588L140.852 86.2588Z" fill="#8CE4FC"/>
</g>
<path fill-rule="evenodd" clip-rule="evenodd" d="M139.642 86.134C140.21 86.5149 137.936 90.8176 137.936 90.8176C138.535 91.2846 134.597 90.3986 134.592 89.9902C134.977 90.3454 136.714 85.2649 136.379 85.1487C136.38 85.1405 139.642 86.134 139.642 86.134L139.642 86.134Z" fill="black"/>
<g opacity="0.26939" filter="url(#filter2_f)">
<path fill-rule="evenodd" clip-rule="evenodd" d="M136.416 84.9375C136.047 86.6384 135.493 88.2047 134.711 89.6048L133.22 89.4712C133.689 89.7895 135.897 84.9942 135.462 84.7036C135.528 84.3381 136.416 84.9375 136.416 84.9375L136.416 84.9375Z" fill="#84E0FC"/>
</g>
<path fill-rule="evenodd" clip-rule="evenodd" d="M135.623 84.5858C135.766 84.7644 133.855 89.3174 133.621 89.243C133.767 89.4623 132.878 88.4998 132.878 88.4998C134.005 86.2683 134.118 85.0358 134.414 83.3225C134.592 83.9586 135.118 84.2616 135.622 84.5858L135.623 84.5858Z" fill="black"/>
<path fill-rule="evenodd" clip-rule="evenodd" d="M142.154 86.0949C141.952 86.6048 141.057 88.391 141.057 88.391C140.846 88.9084 140.29 90.5739 140.29 90.5739C139.925 90.5082 139.304 90.7097 139.307 90.7019L140.895 86.3122C140.896 86.3039 142.154 86.0948 142.154 86.0948L142.154 86.0949Z" fill="black"/>
<path fill-rule="evenodd" clip-rule="evenodd" d="M130.338 88.5605C130.814 86.452 132.212 86.0779 133.806 86.0733C133.932 86.1185 132.82 88.8323 132.615 89.054C132.491 89.1025 133.619 90.3124 133.81 90.2501C134.436 90.5372 130.428 88.8642 130.428 88.8642C130.692 89.2425 130.28 88.8211 130.339 88.5606L130.338 88.5605Z" fill="url(#paint0_linear)"/>
<path fill-rule="evenodd" clip-rule="evenodd" d="M140.116 91.13C140.116 91.13 140.35 90.7605 140.26 90.4751C137.072 91.5391 133.531 89.2612 132.817 88.4644C132.943 88.6251 132.628 89.0349 132.628 89.0349C131.853 90.3911 139.222 92.2752 140.116 91.13L140.116 91.13Z" fill="#0000FF"/>
<path opacity="0.50204" fill-rule="evenodd" clip-rule="evenodd" d="M141.858 89.9873C141.945 90.1135 142.026 90.2625 142.099 90.4434C142.622 91.7345 138.194 93.1621 136.652 92.7354L136.602 92.7221L136.599 92.7564C136.743 92.7905 136.882 92.8249 137.014 92.8612C138.556 93.2877 142.925 91.9704 142.378 90.5782C142.287 90.3462 142.18 90.1513 142.064 90.0057L141.858 89.9873Z" fill="black"/>
<g opacity="0.45714" filter="url(#filter3_f)">
<path fill-rule="evenodd" clip-rule="evenodd" d="M141.986 90.0315C141.994 90.0433 142.002 90.0556 142.01 90.0677L142.302 90.0939C142.293 90.0816 142.284 90.0692 142.274 90.0573L141.986 90.0315ZM140.665 92.1204C139.372 92.6832 137.634 93.0159 136.78 92.7797L136.731 92.7664L136.727 92.8007C136.872 92.8348 137.011 92.8692 137.142 92.9055C137.913 93.1187 139.405 92.8682 140.64 92.4033L140.665 92.1204L140.665 92.1204Z" fill="#E4F4FC"/>
</g>
<g opacity="0.43673" filter="url(#filter4_f)">
<path fill-rule="evenodd" clip-rule="evenodd" d="M138.331 91.561C137.61 91.2488 137.04 92.1559 138.4 92.6412C138.503 92.9559 137.658 92.6079 137.658 92.6079C137.567 92.7977 134.396 90.7136 134.396 90.7136C134.396 90.7054 138.331 91.5611 138.331 91.5611L138.331 91.561Z" fill="#00A0F0"/>
</g>
<g opacity="0.22449" filter="url(#filter5_f)">
<path fill-rule="evenodd" clip-rule="evenodd" d="M133.946 86.1683C133.954 86.169 132.985 88.6084 132.985 88.6084L132.842 88.5296C133.469 87.1956 133.567 86.8037 133.874 86.0298C134.03 86.1345 133.946 86.1683 133.946 86.1683L133.946 86.1683Z" fill="white"/>
</g>
<path fill-rule="evenodd" clip-rule="evenodd" d="M138.393 90.6559L138.836 90.6882C138.929 90.695 139.016 90.728 139.078 90.7799C139.139 90.8319 139.17 90.8985 139.164 90.9651L139.124 91.3838C139.117 91.4504 139.074 91.5116 139.003 91.5539C138.933 91.5962 138.841 91.6161 138.747 91.6093L138.305 91.5771C138.212 91.5703 138.124 91.5373 138.063 91.4853C138.001 91.4334 137.97 91.3668 137.977 91.3002L138.017 90.8815C138.023 90.8148 138.067 90.7536 138.137 90.7114C138.208 90.6691 138.3 90.6491 138.393 90.6559" fill="#FF00C7"/>
<path d="M133.513 93.3079C133.551 93.9325 133.154 94.4372 132.66 94.4669C132.166 94.4965 131.711 94.0429 131.674 93.4183C131.636 92.7937 132.033 92.289 132.527 92.2593C133.022 92.2296 133.476 92.6833 133.513 93.3079Z" fill="url(#paint1_radial)" stroke="#F5BF00" stroke-width="0.184295"/>
<g opacity="0.1">
<path opacity="0.1" d="M142.801 101.478C141.45 99.8501 139.152 101.391 138.776 101.658L138.16 101.633C137.59 101.083 135.858 99.6349 134.387 100.865L134.324 100.919L134.362 103.107L134.432 103.155C134.897 103.472 135.417 103.7 135.965 103.828C136.312 103.907 136.673 103.904 137.018 103.817C137.273 103.742 137.509 103.611 137.708 103.435C137.907 103.259 138.065 103.042 138.17 102.798L138.491 102.8L138.725 102.741C138.787 102.99 138.902 103.222 139.061 103.423C139.221 103.624 139.421 103.788 139.649 103.906C140.742 104.441 142.251 103.75 142.314 103.734L142.393 103.698L142.834 101.552L142.801 101.478ZM142.114 103.447C141.806 103.572 140.64 103.993 139.815 103.585C139.609 103.472 139.432 103.314 139.297 103.122C139.162 102.93 139.073 102.71 139.037 102.478L138.998 102.307L138.486 102.444L137.965 102.457L137.921 102.559C137.839 102.78 137.707 102.978 137.536 103.14C137.365 103.302 137.16 103.422 136.935 103.492C136.055 103.737 134.982 103.108 134.701 102.928L134.668 101.078C135.953 100.097 137.516 101.47 137.971 101.922L138.018 101.969L138.887 102.003L138.937 101.964C138.96 101.948 141.018 100.379 142.311 101.465C142.375 101.517 142.435 101.575 142.49 101.637L142.114 103.447Z" fill="black"/>
<path opacity="0.1" d="M146.741 102.343L142.7 102.251L142.365 102.207L142.48 101.64C142.425 101.578 142.366 101.52 142.302 101.468L142.792 101.486L146.101 101.61L146.741 102.343Z" fill="black"/>
</g>
<path d="M120.787 128.747L50.5624 132.96L52.2622 161.289L122.487 157.076L120.787 128.747Z" fill="#6F7D95"/>
<path d="M85.5145 177.914C96.3372 177.264 104.535 167.136 103.824 155.292C103.113 143.448 93.7636 134.373 82.9409 135.022C72.1183 135.672 63.9209 145.8 64.6316 157.644C65.3423 169.488 74.6919 178.563 85.5145 177.914Z" fill="#4B5C7A"/>
<path opacity="0.05" d="M85.5145 177.914C96.3372 177.264 104.535 167.136 103.824 155.292C103.113 143.448 93.7636 134.373 82.9409 135.022C72.1183 135.672 63.9209 145.8 64.6316 157.644C65.3423 169.488 74.6919 178.563 85.5145 177.914Z" fill="black"/>
<path d="M89.8691 177.653C100.692 177.003 108.889 166.875 108.178 155.031C107.468 143.187 98.1182 134.112 87.2955 134.761C76.4728 135.41 68.2755 145.538 68.9861 157.383C69.6968 169.227 79.0464 178.302 89.8691 177.653Z" fill="#4B5C7A"/>
<path opacity="0.05" d="M88.6761 165.05C93.4859 164.762 97.151 160.629 96.8624 155.819C96.5738 151.009 92.4408 147.344 87.631 147.633C82.8212 147.921 79.1561 152.054 79.4447 156.864C79.7333 161.674 83.8663 165.339 88.6761 165.05Z" fill="black"/>
<path d="M88.3103 158.955C89.7538 158.869 90.8537 157.628 90.7671 156.185C90.6805 154.741 89.4401 153.641 87.9967 153.728C86.5532 153.815 85.4533 155.055 85.5399 156.498C85.6265 157.942 86.8669 159.042 88.3103 158.955Z" stroke="#6F7D95" stroke-width="0.473902" stroke-miterlimit="10"/>
<path d="M87.9184 152.422C88.2789 152.401 88.5537 152.091 88.5321 151.73C88.5104 151.37 88.2006 151.095 87.8401 151.117C87.4795 151.138 87.2048 151.448 87.2264 151.809C87.2481 152.169 87.5579 152.444 87.9184 152.422Z" fill="#6F7D95"/>
<path d="M91.9768 153.291C92.2391 153.043 92.2504 152.629 92.0021 152.366C91.7538 152.104 91.3398 152.093 91.0776 152.341C90.8153 152.589 90.804 153.003 91.0523 153.266C91.3006 153.528 91.7145 153.539 91.9768 153.291Z" fill="#6F7D95"/>
<path d="M93.7251 156.359C93.7664 156 93.509 155.675 93.1502 155.634C92.7914 155.593 92.467 155.85 92.4257 156.209C92.3844 156.568 92.6418 156.892 93.0006 156.933C93.3595 156.975 93.6838 156.717 93.7251 156.359Z" fill="#6F7D95"/>
<path d="M91.7676 160.244C92.069 160.045 92.152 159.64 91.953 159.338C91.754 159.037 91.3483 158.954 91.0469 159.153C90.7455 159.352 90.6625 159.757 90.8615 160.059C91.0605 160.36 91.4662 160.443 91.7676 160.244Z" fill="#6F7D95"/>
<path d="M88.3518 160.804C88.4547 160.458 88.2576 160.093 87.9114 159.99C87.5652 159.887 87.2011 160.085 87.0981 160.431C86.9951 160.777 87.1923 161.141 87.5385 161.244C87.8847 161.347 88.2488 161.15 88.3518 160.804Z" fill="#6F7D95"/>
<path d="M84.9124 158.987C85.2438 158.843 85.396 158.458 85.2524 158.126C85.1088 157.795 84.7237 157.643 84.3923 157.787C84.0609 157.93 83.9087 158.315 84.0523 158.647C84.196 158.978 84.581 159.13 84.9124 158.987Z" fill="#6F7D95"/>
<path d="M84.9722 154.89C85.1338 154.567 85.0028 154.174 84.6798 154.013C84.3567 153.851 83.9639 153.982 83.8024 154.305C83.6408 154.628 83.7718 155.021 84.0948 155.183C84.4179 155.344 84.8107 155.213 84.9722 154.89Z" fill="#6F7D95"/>
<path d="M228.394 131.185C228.002 135.847 226.444 141.018 226.444 141.018C226.438 140.701 226.427 140.389 226.412 140.082C226.388 139.684 226.364 139.292 226.341 138.899C225.34 126.174 217.926 118.731 213.223 115.236C212 114.315 210.695 113.506 209.325 112.821L221.494 112.091C221.494 112.091 226.868 121.579 228.154 126.307C228.523 127.633 228.546 129.371 228.394 131.185Z" fill="#FF1988"/>
<path d="M208.649 149.154C216.88 148.66 223.115 140.957 222.574 131.949C222.034 122.941 214.923 116.039 206.692 116.533C198.461 117.027 192.227 124.729 192.767 133.738C193.308 142.746 200.418 149.648 208.649 149.154Z" fill="#4B5C7A"/>
<path opacity="0.05" d="M208.649 149.154C216.88 148.66 223.115 140.957 222.574 131.949C222.034 122.941 214.923 116.039 206.692 116.533C198.461 117.027 192.227 124.729 192.767 133.738C193.308 142.746 200.418 149.648 208.649 149.154Z" fill="black"/>
<path d="M211.961 148.956C220.192 148.462 226.426 140.759 225.886 131.751C225.345 122.743 218.234 115.84 210.003 116.334C201.772 116.828 195.538 124.531 196.079 133.539C196.619 142.547 203.73 149.45 211.961 148.956Z" fill="#4B5C7A"/>
<path opacity="0.05" d="M211.053 139.37C214.711 139.151 217.498 136.008 217.279 132.35C217.059 128.692 213.916 125.905 210.259 126.125C206.601 126.344 203.814 129.487 204.033 133.145C204.253 136.802 207.396 139.59 211.053 139.37Z" fill="black"/>
<path d="M210.775 134.734C211.872 134.669 212.709 133.726 212.643 132.628C212.577 131.531 211.634 130.695 210.537 130.761C209.439 130.827 208.603 131.77 208.669 132.867C208.735 133.964 209.678 134.8 210.775 134.734Z" stroke="#6F7D95" stroke-width="0.473902" stroke-miterlimit="10"/>
<path d="M210.477 129.767C210.752 129.751 210.961 129.515 210.944 129.241C210.928 128.966 210.692 128.757 210.418 128.774C210.143 128.79 209.934 129.026 209.951 129.3C209.967 129.575 210.203 129.784 210.477 129.767Z" fill="#6F7D95"/>
<path d="M213.565 130.427C213.765 130.238 213.773 129.923 213.584 129.724C213.396 129.524 213.081 129.515 212.881 129.704C212.681 129.893 212.673 130.208 212.862 130.408C213.051 130.607 213.366 130.616 213.565 130.427Z" fill="#6F7D95"/>
<path d="M214.893 132.762C214.925 132.489 214.729 132.242 214.456 132.211C214.183 132.18 213.936 132.375 213.905 132.648C213.873 132.922 214.069 133.168 214.342 133.2C214.615 133.231 214.862 133.035 214.893 132.762Z" fill="#6F7D95"/>
<path d="M213.407 135.717C213.636 135.566 213.699 135.257 213.548 135.028C213.396 134.798 213.088 134.735 212.858 134.886C212.629 135.038 212.566 135.347 212.717 135.576C212.869 135.805 213.177 135.868 213.407 135.717Z" fill="#6F7D95"/>
<path d="M210.808 136.142C210.886 135.878 210.736 135.601 210.473 135.523C210.209 135.445 209.932 135.595 209.854 135.858C209.776 136.122 209.926 136.399 210.189 136.477C210.453 136.555 210.73 136.405 210.808 136.142Z" fill="#6F7D95"/>
<path d="M208.191 134.758C208.443 134.649 208.559 134.356 208.45 134.104C208.341 133.851 208.048 133.736 207.795 133.845C207.543 133.954 207.427 134.247 207.537 134.499C207.646 134.752 207.939 134.867 208.191 134.758Z" fill="#6F7D95"/>
<path d="M208.24 131.643C208.363 131.397 208.263 131.098 208.017 130.975C207.771 130.852 207.472 130.952 207.349 131.198C207.227 131.443 207.326 131.742 207.572 131.865C207.818 131.988 208.117 131.888 208.24 131.643Z" fill="#6F7D95"/>
<path d="M5.0406 163.423L2.38831 149.365L23.7348 148.084L35.2937 157.202L30.6622 170.094C30.6622 170.094 8.71716 167.807 5.0406 163.423Z" fill="#FF1988"/>
<path d="M120.485 98.6324L120.76 103.221C120.76 103.221 110.268 112.871 108.151 121.508C107.776 122.912 107.69 124.379 107.9 125.817C109.46 135.133 78.7209 119.958 78.7209 119.958L80.0045 119.235C86.6401 115.53 116.924 98.6656 120.485 98.6324Z" fill="#97CFED"/>
<path d="M146.952 119.27C146.952 119.27 156.979 113.574 158.411 109.719C158.603 109.202 158.783 108.68 159 108.171C159.9 106.05 161.763 101.088 160.54 98.8331C158.965 95.9247 163.956 99.0293 163.956 99.0293L162.012 113.358L155.456 117.549L146.751 119.282" fill="#97CFED"/>
<path opacity="0.05" d="M35.3008 157.201L30.6693 170.093C30.6693 170.093 8.71715 167.807 5.04059 163.422L4.92549 162.81C5.00946 162.745 5.09801 162.678 5.19144 162.613C5.19144 162.613 12.0852 167.405 27.1221 167.707C27.1221 167.707 35.6791 159.984 20.6257 152.881C20.6257 152.881 7.97174 154.039 2.4769 149.813L2.4173 149.769L2.45254 149.684C2.48316 149.614 2.5328 149.505 2.60145 149.357L23.7398 148.089L35.3008 157.201Z" fill="black"/>
<path opacity="0.05" d="M107.9 125.815C109.46 135.133 78.721 119.958 78.721 119.958L80.0046 119.235C80.9357 120.114 84.6178 123.048 91.5819 122.288C96.0627 121.799 102.899 121.59 108.163 121.505C107.784 122.909 107.694 124.375 107.9 125.815V125.815Z" fill="black"/>
<path opacity="0.05" d="M120.789 128.747L122.489 157.076L109.442 157.858C109.908 151.217 108.835 141.642 100.136 136.637C96.8926 134.785 93.2003 133.864 89.4665 133.976C85.7327 134.089 82.1026 135.231 78.9766 137.276C73.6795 140.736 67.9284 147.472 64.8004 160.537L52.2645 161.289L50.5648 132.96L120.789 128.747Z" fill="black"/>
<path d="M226.343 140.919C226.491 140.224 231.753 115.164 214.172 115.035C196.344 114.903 194.951 128.401 194.047 146.676C194.047 146.676 138.242 154.229 108.64 164.816C108.64 164.816 114.683 144.562 100.526 136.414C97.2828 134.562 93.5905 133.641 89.8567 133.753C86.123 133.866 82.4928 135.008 79.3669 137.053C72.8797 141.292 65.7075 150.453 63.51 170.126L29.9896 172.137C29.9896 172.137 23.6274 172.92 21.2547 170.05C21.2547 170.05 12.2787 170.788 6.41649 166.335C6.41649 166.335 0.360576 165.498 4.96833 162.218C4.96833 162.218 12.0631 166.998 27.0977 167.3C27.0977 167.3 35.6547 159.577 20.6012 152.474C20.6012 152.474 7.85284 153.64 2.39523 149.362C2.39523 149.362 3.98832 145.49 7.86615 140.688C13.169 134.102 20.1258 129.042 28.0252 126.026C33.3497 124.023 38.9554 122.868 44.638 122.603L79.7837 119.393C79.7837 119.393 83.4484 123.579 91.594 122.689C99.7396 121.799 115.77 121.839 115.77 121.839L115.928 121.829L148.697 118.37C149.633 118.18 150.554 117.926 151.455 117.611C156.141 116.031 164.941 111.565 162.654 100.705L214.517 100.797C216.47 100.77 218.421 100.927 220.344 101.267C223.039 101.789 225.54 102.887 224.991 105.175C223.871 109.848 227.696 110.219 227.696 110.219C227.696 110.219 227.813 110.826 227.977 111.885C228.751 116.876 230.586 131.91 226.343 140.919Z" fill="#FF6AB2"/>
<path opacity="0.05" d="M67.0139 128.47C67.0139 128.47 45.4783 129.961 32.0649 143.385L40.0453 142.906C40.0453 142.906 62.0427 135.78 67.1531 130.868L67.0139 128.47Z" fill="black"/>
<path d="M66.8007 128.28C66.8007 128.28 45.2651 129.772 31.8516 143.196L39.832 142.717C39.832 142.717 61.8295 135.591 66.9398 130.679L66.8007 128.28Z" fill="#FFEC9F"/>
<path opacity="0.05" d="M28.2358 126.215L28.5576 131.577L10.9094 141.046L8.07917 140.877C13.3814 134.291 20.3373 129.232 28.2358 126.215V126.215Z" fill="black"/>
<path d="M28.0228 126.029L28.3446 131.391L10.6939 140.858L7.86369 140.688C13.1669 134.103 20.1237 129.044 28.0228 126.029V126.029Z" fill="#FFEC9F"/>
<path opacity="0.05" d="M55.2182 148.799C55.2182 148.799 45.8017 155.369 45.594 168.604L51.1808 168.269C51.1808 168.269 52.5138 153.773 58.61 148.595L55.2182 148.799Z" fill="black"/>
<path opacity="0.05" d="M170.757 142.268L120.44 151.292C120.44 151.292 115.809 130.159 115.93 121.822L148.699 118.363C149.634 118.175 150.555 117.924 151.455 117.611L151.574 119.591L175.953 112.122C175.953 112.122 180.515 118.054 170.757 142.268Z" fill="black"/>
<path d="M162.309 94.9194C162.309 94.9194 172.999 92.8775 178.337 101.767L162.894 102.098L162.309 94.9194Z" fill="#97CFED"/>
<path opacity="0.05" d="M177.782 105.029C177.439 106.381 177.846 107.821 180.359 108.684C182.451 109.404 184.786 108.286 185.358 106.15C185.692 104.906 185.33 103.541 183.063 102.549C180.795 101.558 178.384 102.666 177.782 105.029Z" fill="black"/>
<path d="M2.95312 152.331C2.95312 152.331 16.1371 158.187 25.1639 155.129" stroke="#FF1988" stroke-width="0.236951" stroke-miterlimit="10"/>
<path d="M3.61963 155.881C3.61963 155.881 12.2638 161.757 28.8737 159.274" stroke="#FF1988" stroke-width="0.236951" stroke-miterlimit="10"/>
<path d="M4.18042 158.859C4.18042 158.859 12.8028 165.48 29.5082 162.215" stroke="#FF1988" stroke-width="0.236951" stroke-miterlimit="10"/>
<path opacity="0.05" d="M177.655 100.733C177.655 100.733 171.335 106.887 165.408 109.854C165.408 109.854 174.745 110.944 177.655 100.733Z" fill="black"/>
<path opacity="0.1" d="M108.059 121.907C108.059 121.907 139.866 122.997 151.667 119.485C151.667 119.485 152.331 119.87 148.418 118.391L108.059 121.907Z" fill="black"/>
<path opacity="0.05" d="M227.979 111.885C225.931 110.709 222.645 108.212 222.892 105.199C223.015 103.689 221.871 102.353 220.346 101.264C223.041 101.786 225.542 102.885 224.993 105.173C223.873 109.845 227.698 110.216 227.698 110.216C227.698 110.216 227.813 110.827 227.979 111.885Z" fill="black"/>
<path opacity="0.1" d="M69.3536 139.97C68.4111 139.336 66.6462 138.366 65.0946 138.697L65.3007 137.543C65.3007 137.543 67.668 136.643 68.5648 137.347C68.8935 137.603 69.1736 138.671 69.3536 139.97Z" fill="black"/>
<path opacity="0.1" d="M37.8736 125.86C37.8736 125.86 43.3599 125.908 44.7987 124.687C42.907 126.325 40.6226 127.444 38.1689 127.934L37.8736 125.86Z" fill="black"/>
<path d="M29.0479 186.785C29.1027 187.698 29.0456 188.447 28.9108 188.455C28.7759 188.463 28.6298 187.729 28.5749 186.814C28.52 185.898 28.6742 186.333 28.7996 186.326C28.9249 186.318 28.9933 185.875 29.0479 186.785Z" fill="#FFD037"/>
<path d="M30.3763 187.8C29.6008 188.286 28.9193 188.6 28.853 188.483C28.7866 188.365 29.3589 187.894 30.1346 187.411C30.9103 186.928 30.6124 187.264 30.681 187.378C30.7496 187.493 31.1519 187.314 30.3763 187.8Z" fill="#FFD037"/>
<path d="M11.2068 187.856C11.2616 188.769 11.4078 189.505 11.5427 189.497C11.6775 189.489 11.7348 188.743 11.6798 187.827C11.6249 186.912 11.5237 187.362 11.3984 187.37C11.273 187.377 11.1522 186.945 11.2068 187.856Z" fill="#FFD037"/>
<path d="M10.0092 189.022C10.8373 189.412 11.5514 189.642 11.6033 189.518C11.6552 189.393 11.0307 188.994 10.2027 188.607C9.37478 188.22 9.71074 188.518 9.65634 188.64C9.60194 188.762 9.18116 188.633 10.0092 189.022Z" fill="#FFD037"/>
<defs>
<filter id="filter0_f" x="134.286" y="82.9045" width="8.11776" height="3.54645" filterUnits="userSpaceOnUse" color-interpolation-filters="sRGB">
<feFlood flood-opacity="0" result="BackgroundImageFix"/>
<feBlend mode="normal" in="SourceGraphic" in2="BackgroundImageFix" result="shape"/>
<feGaussianBlur stdDeviation="0.0901703" result="effect1_foregroundBlur"/>
</filter>
<filter id="filter1_f" x="137.174" y="85.5769" width="4.16068" height="5.83135" filterUnits="userSpaceOnUse" color-interpolation-filters="sRGB">
<feFlood flood-opacity="0" result="BackgroundImageFix"/>
<feBlend mode="normal" in="SourceGraphic" in2="BackgroundImageFix" result="shape"/>
<feGaussianBlur stdDeviation="0.241083" result="effect1_foregroundBlur"/>
</filter>
<filter id="filter2_f" x="132.738" y="84.1033" width="4.16054" height="5.98363" filterUnits="userSpaceOnUse" color-interpolation-filters="sRGB">
<feFlood flood-opacity="0" result="BackgroundImageFix"/>
<feBlend mode="normal" in="SourceGraphic" in2="BackgroundImageFix" result="shape"/>
<feGaussianBlur stdDeviation="0.241083" result="effect1_foregroundBlur"/>
</filter>
<filter id="filter3_f" x="136.556" y="89.8596" width="5.91811" height="3.29459" filterUnits="userSpaceOnUse" color-interpolation-filters="sRGB">
<feFlood flood-opacity="0" result="BackgroundImageFix"/>
<feBlend mode="normal" in="SourceGraphic" in2="BackgroundImageFix" result="shape"/>
<feGaussianBlur stdDeviation="0.0859297" result="effect1_foregroundBlur"/>
</filter>
<filter id="filter4_f" x="133.993" y="90.3108" width="4.81805" height="2.86479" filterUnits="userSpaceOnUse" color-interpolation-filters="sRGB">
<feFlood flood-opacity="0" result="BackgroundImageFix"/>
<feBlend mode="normal" in="SourceGraphic" in2="BackgroundImageFix" result="shape"/>
<feGaussianBlur stdDeviation="0.201352" result="effect1_foregroundBlur"/>
</filter>
<filter id="filter5_f" x="132.741" y="85.9287" width="1.32892" height="2.78079" filterUnits="userSpaceOnUse" color-interpolation-filters="sRGB">
<feFlood flood-opacity="0" result="BackgroundImageFix"/>
<feBlend mode="normal" in="SourceGraphic" in2="BackgroundImageFix" result="shape"/>
<feGaussianBlur stdDeviation="0.0505565" result="effect1_foregroundBlur"/>
</filter>
<linearGradient id="paint0_linear" x1="131.623" y1="86.6515" x2="132.853" y2="90.2104" gradientUnits="userSpaceOnUse">
<stop stop-color="#000018"/>
<stop offset="1" stop-color="#000024" stop-opacity="0"/>
</linearGradient>
<radialGradient id="paint1_radial" cx="0" cy="0" r="1" gradientUnits="userSpaceOnUse" gradientTransform="translate(132.594 93.3631) rotate(86.5662) scale(1.19792 1.01362)">
<stop stop-color="#99E4FC" stop-opacity="0"/>
<stop offset="1" stop-color="#99E4FC" stop-opacity="0.79"/>
</radialGradient>
</defs>
</svg>
