<svg width="42" height="42" viewBox="0 0 42 42" fill="none" xmlns="http://www.w3.org/2000/svg">
<circle cx="21" cy="21" r="21" fill="white"/>
<path d="M21 1C10 1 1 10 1 21C1 32 10 41 21 41C32 41 41 32 41 21C41 10 32 1 21 1ZM29 16.875C29 17 29 17.25 29 17.375C29 22.75 24.875 29 17.375 29C15 29 12.875 28.375 11.125 27.125C11.5 27.125 11.75 27.125 12.125 27.125C14 27.125 15.875 26.5 17.25 25.375C15.5 25.375 14 24.125 13.375 22.5C13.625 22.5 13.875 22.625 14.125 22.625C14.5 22.625 14.875 22.625 15.25 22.5C13.375 22.125 12 20.5 12 18.5C12.5 18.75 13.125 19 13.875 19C12.75 18.25 12 17 12 15.625C12 14.875 12.25 14.125 12.5 13.5C14.5 16 17.5 17.625 21 17.75C20.875 17.5 20.875 17.125 20.875 16.875C20.875 14.625 22.75 12.75 25 12.75C26.125 12.75 27.25 13.25 28 14C28.875 13.875 29.875 13.5 30.625 13C30.375 14 29.625 14.75 28.875 15.25C29.75 15.125 30.5 14.875 31.25 14.625C30.5 15.625 29.75 16.375 29 16.875Z" fill="#FF6AB2"/>
</svg>
